<?xml version="1.0" encoding="utf-8"?>
<!-- Generator: Adobe Illustrator 24.0.1, SVG Export Plug-In . SVG Version: 6.00 Build 0)  -->
<svg version="1.1" id="Lag_1" xmlns="http://www.w3.org/2000/svg" xmlns:xlink="http://www.w3.org/1999/xlink" x="0px" y="0px"
	 viewBox="0 0 523 179" style="enable-background:new 0 0 523 179;" xml:space="preserve">
<style type="text/css">
	.st0{fill:#E60018;}
	.st1{fill-rule:evenodd;clip-rule:evenodd;fill:#009C33;}
	.st2{fill:#009C33;}
	.st3{fill:#A0AFCE;}
	.st4{fill:#1A315D;}
	.st5{fill:#FFFFFF;}
</style>
<path id="path2895_2_" class="st0" d="M41.3,73.1h29.1V55.6H41.3V73.1z"/>
<path id="path2889_2_" class="st1" d="M156.8,38.1v52.5h17.5V38.1H156.8z M29.6,38.2v52.5h17.5V38.2H29.6z M64.6,38.2v52.5h17.5
	V38.2H64.6z M96.4,38.2v52.5h18.3c21.9,0,32-12.9,32-26.3c0-13.1-10.1-26.2-32-26.2H96.4z M113,51c12.4,0,16.1,5.4,16.1,13.6
	c0,8.2-3.6,13.3-16.1,13.3C113,78.1,113,51,113,51z"/>
<path id="path2901_2_" class="st2" d="M41.2,107.9c-7.8,0-13.2,5.9-13.2,14.7c0,7.2,3.5,14.8,13.3,14.8c2.7,0,5.7-0.9,7.2-1.5
	l0.5-0.2v-15.4h-5v11.9c-0.7,0.3-1.7,0.5-2.6,0.5c-7,0-8-6.8-8-10.8c0-6.4,4.1-9.3,7.8-9.3c1.4,0,3.1,0.4,4.7,1l2.1-4.4
	C46.2,108.3,43.9,107.9,41.2,107.9z M166.7,107.9c-7.8,0-13.1,5.9-13.1,14.7c0,7.2,3.5,14.8,13.3,14.8c2.7,0,5.7-0.9,7.2-1.5
	l0.6-0.2v-15.4h-5.1v11.9c-0.7,0.3-1.7,0.5-2.6,0.5c-7,0-8-6.8-8-10.8c0-6.4,4.1-9.3,7.8-9.3c1.4,0,3.1,0.4,4.7,1l2.1-4.4
	C171.7,108.3,169.5,107.9,166.7,107.9z M55,108.1v29h15.1v-4.7h-9.9v-8h9v-4.7h-9v-6.9h9.4v-4.7h-0.9H55z M76.8,108.1v29H82v-12.3
	h0.7c2.3,0,2.9,0.7,3.6,2.5l3.4,9.8h5.6l-4.3-12.1c-0.4-1.1-0.9-1.8-1.5-2.3c2.6-1.2,4.1-3.6,4.1-6.7c0-2.4-0.8-4.4-2.4-5.8
	c-1.6-1.5-3.5-2.1-6.4-2.1H76.8z M99.5,108.1v29h14.3v-4.7h-9.1v-24.4H99.5z M117.4,108.1v29h5.3v-29H117.4z M129.2,108.1v29h5.1
	v-19.5c2.3,4.9,9.1,19.5,9.1,19.5h5.8v-29h-0.9H144v19.6c-2.3-4.9-9.1-19.6-9.1-19.6H129.2z M82,112.7h1.9c2.8,0,4.2,1.2,4.2,3.6
	c0,0.9-0.3,3.9-4.3,3.9H82V112.7z"/>
<rect x="200" y="20" class="st3" width="2" height="140"/>
<g>
	<path class="st5" d="M234.6,55.8v8.5h-5.9V38.8h9c1.8,0,3.3,0.2,4.6,0.6c1.3,0.4,2.4,1,3.2,1.8c0.8,0.7,1.5,1.6,1.8,2.6
		s0.6,2.1,0.6,3.3c0,1.3-0.2,2.4-0.6,3.5s-1,2-1.9,2.7s-1.9,1.4-3.2,1.8c-1.3,0.4-2.8,0.6-4.6,0.6H234.6z M234.6,51.4h3.1
		c1.5,0,2.6-0.4,3.3-1.1s1-1.8,1-3.1c0-0.6-0.1-1.1-0.3-1.6c-0.2-0.5-0.4-0.9-0.8-1.2c-0.4-0.3-0.8-0.6-1.3-0.8
		c-0.5-0.2-1.2-0.3-1.9-0.3h-3.1V51.4z"/>
	<path class="st5" d="M251,64.3V46.2h3.2c0.3,0,0.5,0,0.7,0.1c0.2,0,0.3,0.1,0.5,0.2c0.1,0.1,0.2,0.2,0.3,0.4s0.1,0.4,0.2,0.6
		l0.3,1.7c0.7-1,1.4-1.8,2.2-2.4s1.7-0.9,2.7-0.9c0.8,0,1.5,0.2,2,0.6l-0.7,4c0,0.2-0.1,0.4-0.3,0.5c-0.1,0.1-0.3,0.1-0.6,0.1
		c-0.2,0-0.4,0-0.7-0.1c-0.3-0.1-0.6-0.1-1-0.1c-1.4,0-2.5,0.8-3.4,2.3v11.1H251z"/>
	<path class="st5" d="M273.6,45.9c1.4,0,2.6,0.2,3.8,0.6s2.1,1,2.9,1.9c0.8,0.8,1.4,1.8,1.9,2.9s0.7,2.4,0.7,3.9
		c0,1.4-0.2,2.8-0.7,3.9c-0.4,1.2-1.1,2.1-1.9,3c-0.8,0.8-1.8,1.4-2.9,1.9s-2.4,0.7-3.8,0.7c-1.4,0-2.7-0.2-3.8-0.7
		s-2.1-1.1-2.9-1.9s-1.5-1.8-1.9-3c-0.4-1.2-0.7-2.5-0.7-3.9c0-1.4,0.2-2.7,0.7-3.9c0.4-1.1,1.1-2.1,1.9-2.9
		c0.8-0.8,1.8-1.4,2.9-1.9S272.2,45.9,273.6,45.9z M273.6,60.6c1.2,0,2.2-0.4,2.8-1.3c0.6-0.9,0.9-2.2,0.9-4c0-1.8-0.3-3.1-0.9-4
		s-1.5-1.3-2.8-1.3c-1.3,0-2.2,0.4-2.8,1.3c-0.6,0.9-0.9,2.2-0.9,4c0,1.8,0.3,3.1,0.9,4C271.3,60.1,272.3,60.6,273.6,60.6z"/>
	<path class="st5" d="M286.6,64.3V49.9l-1.2-0.2c-0.4-0.1-0.7-0.2-1-0.4c-0.3-0.2-0.4-0.5-0.4-0.9v-2.1h2.6v-1c0-1,0.2-2,0.5-2.8
		c0.3-0.8,0.8-1.6,1.4-2.2c0.6-0.6,1.4-1.1,2.3-1.4s1.9-0.5,3.1-0.5c0.4,0,0.9,0,1.2,0.1c0.4,0.1,0.8,0.1,1.2,0.3l-0.1,2.6
		c0,0.2-0.1,0.3-0.1,0.5c-0.1,0.1-0.2,0.2-0.3,0.3c-0.1,0.1-0.3,0.1-0.4,0.2s-0.3,0.1-0.5,0.1c-0.5,0-0.9,0-1.3,0.1
		c-0.4,0.1-0.7,0.3-0.9,0.5s-0.4,0.6-0.6,0.9c-0.1,0.4-0.2,0.9-0.2,1.5v0.9h4.3v3.7H292v14.4H286.6z"/>
	<path class="st5" d="M306.2,45.9c1.2,0,2.3,0.2,3.3,0.6c1,0.4,1.9,0.9,2.6,1.6c0.7,0.7,1.3,1.6,1.7,2.6c0.4,1,0.6,2.2,0.6,3.5
		c0,0.4,0,0.7-0.1,1c0,0.3-0.1,0.5-0.2,0.6c-0.1,0.2-0.2,0.3-0.4,0.3c-0.2,0.1-0.4,0.1-0.6,0.1h-10.5c0.2,1.5,0.6,2.6,1.4,3.3
		c0.7,0.7,1.7,1,2.9,1c0.6,0,1.2-0.1,1.6-0.2c0.5-0.2,0.9-0.3,1.2-0.5c0.4-0.2,0.7-0.4,1-0.5c0.3-0.2,0.6-0.2,0.9-0.2
		c0.4,0,0.8,0.2,1,0.5l1.6,1.9c-0.6,0.6-1.2,1.2-1.8,1.6c-0.6,0.4-1.3,0.7-2,0.9c-0.7,0.2-1.4,0.4-2,0.5c-0.7,0.1-1.3,0.1-2,0.1
		c-1.3,0-2.5-0.2-3.6-0.6s-2.1-1-2.9-1.8c-0.8-0.8-1.5-1.8-2-3c-0.5-1.2-0.7-2.6-0.7-4.2c0-1.2,0.2-2.4,0.6-3.4s1-2,1.8-2.9
		c0.8-0.8,1.7-1.5,2.8-1.9S304.8,45.9,306.2,45.9z M306.3,49.7c-1,0-1.8,0.3-2.4,0.9c-0.6,0.6-1,1.4-1.2,2.5h6.8
		c0-0.4-0.1-0.9-0.2-1.3c-0.1-0.4-0.3-0.8-0.5-1.1c-0.3-0.3-0.6-0.6-1-0.8C307.4,49.8,306.9,49.7,306.3,49.7z"/>
	<path class="st5" d="M328.6,50.2c-0.1,0.2-0.3,0.4-0.4,0.5c-0.2,0.1-0.4,0.1-0.6,0.1c-0.3,0-0.5-0.1-0.8-0.2s-0.5-0.2-0.8-0.4
		c-0.3-0.1-0.6-0.2-1-0.4c-0.4-0.1-0.8-0.2-1.3-0.2c-0.7,0-1.2,0.1-1.6,0.4c-0.4,0.3-0.6,0.6-0.6,1.1c0,0.3,0.1,0.6,0.4,0.8
		c0.2,0.2,0.6,0.4,1,0.6c0.4,0.2,0.8,0.3,1.3,0.5c0.5,0.2,1,0.3,1.5,0.5c0.5,0.2,1,0.4,1.5,0.7c0.5,0.3,1,0.6,1.3,0.9
		c0.4,0.4,0.7,0.8,1,1.3s0.4,1.2,0.4,1.9c0,0.9-0.2,1.7-0.5,2.5c-0.3,0.8-0.8,1.4-1.5,2c-0.6,0.5-1.4,1-2.4,1.3
		c-1,0.3-2,0.5-3.3,0.5c-0.6,0-1.2-0.1-1.9-0.2s-1.2-0.3-1.8-0.5c-0.6-0.2-1.1-0.4-1.6-0.7c-0.5-0.3-0.9-0.6-1.3-0.9l1.3-2
		c0.2-0.2,0.3-0.4,0.5-0.6c0.2-0.1,0.5-0.2,0.8-0.2c0.3,0,0.6,0.1,0.8,0.2s0.5,0.3,0.8,0.5c0.3,0.2,0.6,0.3,1,0.5s0.9,0.2,1.5,0.2
		c0.4,0,0.8,0,1.1-0.1c0.3-0.1,0.5-0.2,0.7-0.4c0.2-0.2,0.3-0.3,0.4-0.5c0.1-0.2,0.1-0.4,0.1-0.6c0-0.4-0.1-0.7-0.4-0.9
		c-0.2-0.2-0.6-0.4-1-0.6c-0.4-0.2-0.8-0.3-1.4-0.5c-0.5-0.1-1-0.3-1.5-0.5c-0.5-0.2-1-0.4-1.5-0.7c-0.5-0.3-1-0.6-1.4-1
		s-0.7-0.9-1-1.5s-0.4-1.3-0.4-2.1c0-0.8,0.1-1.5,0.4-2.2c0.3-0.7,0.7-1.3,1.3-1.8c0.6-0.5,1.3-0.9,2.2-1.3c0.9-0.3,1.9-0.5,3.2-0.5
		c0.7,0,1.3,0.1,1.9,0.2s1.2,0.3,1.7,0.5c0.5,0.2,1,0.5,1.5,0.7c0.4,0.3,0.8,0.6,1.2,0.9L328.6,50.2z"/>
	<path class="st5" d="M344,50.2c-0.1,0.2-0.3,0.4-0.4,0.5c-0.2,0.1-0.4,0.1-0.6,0.1c-0.3,0-0.5-0.1-0.8-0.2s-0.5-0.2-0.8-0.4
		c-0.3-0.1-0.6-0.2-1-0.4c-0.4-0.1-0.8-0.2-1.3-0.2c-0.7,0-1.2,0.1-1.6,0.4c-0.4,0.3-0.6,0.6-0.6,1.1c0,0.3,0.1,0.6,0.4,0.8
		c0.2,0.2,0.6,0.4,1,0.6c0.4,0.2,0.8,0.3,1.3,0.5c0.5,0.2,1,0.3,1.5,0.5c0.5,0.2,1,0.4,1.5,0.7c0.5,0.3,1,0.6,1.3,0.9
		c0.4,0.4,0.7,0.8,1,1.3s0.4,1.2,0.4,1.9c0,0.9-0.2,1.7-0.5,2.5c-0.3,0.8-0.8,1.4-1.5,2c-0.6,0.5-1.4,1-2.4,1.3
		c-1,0.3-2,0.5-3.3,0.5c-0.6,0-1.2-0.1-1.9-0.2s-1.2-0.3-1.8-0.5c-0.6-0.2-1.1-0.4-1.6-0.7c-0.5-0.3-0.9-0.6-1.3-0.9l1.3-2
		c0.2-0.2,0.3-0.4,0.5-0.6c0.2-0.1,0.5-0.2,0.8-0.2c0.3,0,0.6,0.1,0.8,0.2s0.5,0.3,0.8,0.5c0.3,0.2,0.6,0.3,1,0.5s0.9,0.2,1.5,0.2
		c0.4,0,0.8,0,1.1-0.1c0.3-0.1,0.5-0.2,0.7-0.4c0.2-0.2,0.3-0.3,0.4-0.5c0.1-0.2,0.1-0.4,0.1-0.6c0-0.4-0.1-0.7-0.4-0.9
		c-0.2-0.2-0.6-0.4-1-0.6c-0.4-0.2-0.8-0.3-1.4-0.5c-0.5-0.1-1-0.3-1.5-0.5c-0.5-0.2-1-0.4-1.5-0.7c-0.5-0.3-1-0.6-1.4-1
		s-0.7-0.9-1-1.5s-0.4-1.3-0.4-2.1c0-0.8,0.1-1.5,0.4-2.2c0.3-0.7,0.7-1.3,1.3-1.8c0.6-0.5,1.3-0.9,2.2-1.3c0.9-0.3,1.9-0.5,3.2-0.5
		c0.7,0,1.3,0.1,1.9,0.2s1.2,0.3,1.7,0.5c0.5,0.2,1,0.5,1.5,0.7c0.4,0.3,0.8,0.6,1.2,0.9L344,50.2z"/>
	<path class="st5" d="M354.5,41.2c0,0.4-0.1,0.8-0.3,1.2c-0.2,0.4-0.4,0.7-0.7,1c-0.3,0.3-0.7,0.5-1.1,0.7c-0.4,0.2-0.8,0.3-1.3,0.3
		c-0.4,0-0.9-0.1-1.2-0.3c-0.4-0.2-0.7-0.4-1-0.7c-0.3-0.3-0.5-0.6-0.7-1c-0.2-0.4-0.3-0.8-0.3-1.2c0-0.4,0.1-0.9,0.3-1.2
		c0.2-0.4,0.4-0.7,0.7-1c0.3-0.3,0.6-0.5,1-0.7c0.4-0.2,0.8-0.2,1.2-0.2c0.5,0,0.9,0.1,1.3,0.2c0.4,0.2,0.8,0.4,1.1,0.7
		c0.3,0.3,0.5,0.6,0.7,1C354.4,40.4,354.5,40.8,354.5,41.2z M353.9,46.2v18.1h-5.4V46.2H353.9z"/>
	<path class="st5" d="M366.4,45.9c1.4,0,2.6,0.2,3.8,0.6s2.1,1,2.9,1.9c0.8,0.8,1.4,1.8,1.9,2.9s0.7,2.4,0.7,3.9
		c0,1.4-0.2,2.8-0.7,3.9c-0.4,1.2-1.1,2.1-1.9,3c-0.8,0.8-1.8,1.4-2.9,1.9s-2.4,0.7-3.8,0.7c-1.4,0-2.7-0.2-3.8-0.7
		s-2.1-1.1-2.9-1.9s-1.5-1.8-1.9-3c-0.4-1.2-0.7-2.5-0.7-3.9c0-1.4,0.2-2.7,0.7-3.9s1.1-2.1,1.9-2.9c0.8-0.8,1.8-1.4,2.9-1.9
		S365,45.9,366.4,45.9z M366.4,60.6c1.2,0,2.2-0.4,2.8-1.3c0.6-0.9,0.9-2.2,0.9-4c0-1.8-0.3-3.1-0.9-4c-0.6-0.9-1.5-1.3-2.8-1.3
		c-1.3,0-2.2,0.4-2.8,1.3c-0.6,0.9-0.9,2.2-0.9,4c0,1.8,0.3,3.1,0.9,4C364.1,60.1,365.1,60.6,366.4,60.6z"/>
	<path class="st5" d="M378.6,64.3V46.2h3.4c0.3,0,0.6,0.1,0.8,0.2c0.2,0.2,0.4,0.4,0.5,0.7l0.3,1c0.3-0.3,0.7-0.6,1.1-0.9
		c0.4-0.3,0.8-0.5,1.2-0.7s0.9-0.3,1.4-0.5c0.5-0.1,1-0.2,1.6-0.2c1,0,1.9,0.2,2.6,0.5c0.8,0.3,1.4,0.8,1.9,1.4
		c0.5,0.6,0.9,1.3,1.2,2.2s0.4,1.8,0.4,2.8v11.5h-5.4V52.8c0-0.9-0.2-1.6-0.6-2.1c-0.4-0.5-1-0.7-1.8-0.7c-0.6,0-1.2,0.1-1.7,0.4
		c-0.5,0.3-1,0.6-1.5,1v12.9H378.6z"/>
	<path class="st5" d="M406.6,45.9c1.2,0,2.3,0.2,3.3,0.6c1,0.4,1.9,0.9,2.6,1.6c0.7,0.7,1.3,1.6,1.7,2.6c0.4,1,0.6,2.2,0.6,3.5
		c0,0.4,0,0.7-0.1,1c0,0.3-0.1,0.5-0.2,0.6c-0.1,0.2-0.2,0.3-0.4,0.3c-0.2,0.1-0.4,0.1-0.6,0.1h-10.5c0.2,1.5,0.6,2.6,1.4,3.3
		c0.7,0.7,1.7,1,2.9,1c0.6,0,1.2-0.1,1.6-0.2c0.5-0.2,0.9-0.3,1.2-0.5c0.4-0.2,0.7-0.4,1-0.5c0.3-0.2,0.6-0.2,0.9-0.2
		c0.4,0,0.8,0.2,1,0.5l1.6,1.9c-0.6,0.6-1.2,1.2-1.8,1.6c-0.6,0.4-1.3,0.7-2,0.9c-0.7,0.2-1.4,0.4-2,0.5c-0.7,0.1-1.3,0.1-2,0.1
		c-1.3,0-2.5-0.2-3.6-0.6s-2.1-1-2.9-1.8c-0.8-0.8-1.5-1.8-2-3c-0.5-1.2-0.7-2.6-0.7-4.2c0-1.2,0.2-2.4,0.6-3.4s1-2,1.8-2.9
		c0.8-0.8,1.7-1.5,2.8-1.9S405.2,45.9,406.6,45.9z M406.7,49.7c-1,0-1.8,0.3-2.4,0.9c-0.6,0.6-1,1.4-1.2,2.5h6.8
		c0-0.4-0.1-0.9-0.2-1.3c-0.1-0.4-0.3-0.8-0.5-1.1c-0.3-0.3-0.6-0.6-1-0.8C407.8,49.8,407.3,49.7,406.7,49.7z"/>
	<path class="st5" d="M423.5,38.1v26.2h-5.4V38.1H423.5z"/>
	<path class="st5" d="M434.3,64.6c-0.9,0-1.6-0.1-2.3-0.4c-0.7-0.3-1.2-0.6-1.7-1.1s-0.8-1-1-1.7s-0.3-1.4-0.3-2.2v-9.4h-1.5
		c-0.3,0-0.5-0.1-0.7-0.3c-0.2-0.2-0.3-0.4-0.3-0.8v-2.1l2.9-0.6l1.1-4.4c0.1-0.6,0.5-0.8,1.2-0.8h2.8v5.3h4.4v3.7h-4.4v9
		c0,0.4,0.1,0.8,0.3,1s0.5,0.4,0.9,0.4c0.2,0,0.4,0,0.5-0.1s0.3-0.1,0.3-0.1c0.1-0.1,0.2-0.1,0.3-0.1c0.1,0,0.2-0.1,0.3-0.1
		c0.2,0,0.3,0,0.4,0.1c0.1,0.1,0.2,0.2,0.3,0.4l1.6,2.6c-0.7,0.5-1.5,0.9-2.4,1.2S435.2,64.6,434.3,64.6z"/>
	<path class="st5" d="M252.4,98.3h-4.6c-0.5,0-0.9-0.1-1.3-0.4c-0.3-0.2-0.6-0.5-0.7-0.9l-1.5-4.4h-9.7l-1.5,4.4
		c-0.1,0.3-0.3,0.6-0.7,0.9c-0.3,0.3-0.8,0.4-1.2,0.4h-4.6l9.9-25.5h6.1L252.4,98.3z M236,88.6h7l-2.3-7c-0.2-0.4-0.3-1-0.5-1.6
		c-0.2-0.6-0.4-1.3-0.6-2c-0.2,0.7-0.4,1.4-0.6,2c-0.2,0.6-0.4,1.1-0.6,1.6L236,88.6z"/>
	<path class="st5" d="M254.5,98.3V80.2h3.4c0.3,0,0.6,0.1,0.8,0.2c0.2,0.2,0.4,0.4,0.5,0.7l0.3,1c0.3-0.3,0.7-0.6,1.1-0.9
		c0.4-0.3,0.8-0.5,1.2-0.7s0.9-0.3,1.4-0.5s1-0.2,1.6-0.2c1,0,1.9,0.2,2.6,0.5s1.4,0.8,1.9,1.4c0.5,0.6,0.9,1.3,1.2,2.2
		s0.4,1.8,0.4,2.8v11.5h-5.4V86.8c0-0.9-0.2-1.6-0.6-2.1c-0.4-0.5-1-0.7-1.8-0.7c-0.6,0-1.2,0.1-1.7,0.4c-0.5,0.3-1,0.6-1.5,1v12.9
		H254.5z"/>
	<path class="st5" d="M285.9,84.2c-0.1,0.2-0.3,0.4-0.4,0.5c-0.2,0.1-0.4,0.1-0.6,0.1c-0.3,0-0.5-0.1-0.8-0.2
		c-0.3-0.1-0.5-0.2-0.8-0.4c-0.3-0.1-0.6-0.2-1-0.4c-0.4-0.1-0.8-0.2-1.3-0.2c-0.7,0-1.2,0.1-1.6,0.4c-0.4,0.3-0.6,0.6-0.6,1.1
		c0,0.3,0.1,0.6,0.4,0.8c0.2,0.2,0.6,0.4,1,0.6c0.4,0.2,0.8,0.3,1.3,0.5c0.5,0.2,1,0.3,1.5,0.5c0.5,0.2,1,0.4,1.5,0.7s1,0.6,1.3,0.9
		c0.4,0.4,0.7,0.8,1,1.3c0.2,0.5,0.4,1.2,0.4,1.9c0,0.9-0.2,1.7-0.5,2.5c-0.3,0.8-0.8,1.4-1.5,2c-0.6,0.5-1.4,1-2.4,1.3
		c-0.9,0.3-2,0.5-3.3,0.5c-0.6,0-1.2-0.1-1.9-0.2c-0.6-0.1-1.2-0.3-1.8-0.5c-0.6-0.2-1.1-0.4-1.6-0.7c-0.5-0.3-0.9-0.6-1.3-0.9
		l1.3-2c0.2-0.2,0.3-0.4,0.5-0.6c0.2-0.1,0.5-0.2,0.8-0.2c0.3,0,0.6,0.1,0.8,0.2c0.2,0.1,0.5,0.3,0.8,0.5c0.3,0.2,0.6,0.3,1,0.5
		s0.9,0.2,1.5,0.2c0.4,0,0.8,0,1.1-0.1c0.3-0.1,0.5-0.2,0.7-0.4c0.2-0.2,0.3-0.3,0.4-0.5s0.1-0.4,0.1-0.6c0-0.4-0.1-0.7-0.4-0.9
		c-0.2-0.2-0.6-0.4-1-0.6c-0.4-0.2-0.8-0.3-1.4-0.5c-0.5-0.1-1-0.3-1.5-0.5c-0.5-0.2-1-0.4-1.5-0.7c-0.5-0.3-1-0.6-1.4-1
		s-0.7-0.9-1-1.5c-0.2-0.6-0.4-1.3-0.4-2.1c0-0.8,0.1-1.5,0.4-2.2c0.3-0.7,0.7-1.3,1.3-1.8c0.6-0.5,1.3-0.9,2.2-1.3
		c0.9-0.3,1.9-0.5,3.2-0.5c0.7,0,1.3,0.1,1.9,0.2c0.6,0.1,1.2,0.3,1.7,0.5c0.5,0.2,1,0.5,1.5,0.7c0.4,0.3,0.8,0.6,1.2,0.9
		L285.9,84.2z"/>
	<path class="st5" d="M300.2,98.3h-4.9l-7-18.1h4.5c0.4,0,0.7,0.1,1,0.3c0.3,0.2,0.4,0.4,0.5,0.7l2.5,8.1c0.2,0.7,0.4,1.3,0.6,1.9
		c0.2,0.6,0.3,1.3,0.5,1.9c0.1-0.6,0.3-1.3,0.5-1.9s0.4-1.3,0.6-1.9l2.6-8.1c0.1-0.3,0.3-0.5,0.5-0.7c0.3-0.2,0.6-0.3,0.9-0.3h4.3
		L300.2,98.3z"/>
	<path class="st5" d="M322.1,98.3c-0.5,0-0.9-0.1-1.2-0.2c-0.3-0.1-0.5-0.4-0.7-0.9l-0.4-1c-0.5,0.4-0.9,0.7-1.3,1s-0.9,0.5-1.3,0.7
		s-0.9,0.4-1.4,0.5c-0.5,0.1-1.1,0.1-1.7,0.1c-0.8,0-1.6-0.1-2.3-0.3c-0.7-0.2-1.3-0.5-1.7-1c-0.5-0.4-0.8-0.9-1.1-1.6
		c-0.3-0.6-0.4-1.3-0.4-2.2c0-0.6,0.2-1.3,0.5-2s0.9-1.3,1.7-1.9c0.8-0.6,1.9-1,3.3-1.4c1.4-0.4,3.1-0.6,5.2-0.6V87
		c0-1.1-0.2-1.8-0.7-2.3c-0.4-0.5-1.1-0.7-1.9-0.7c-0.6,0-1.2,0.1-1.6,0.2c-0.4,0.1-0.8,0.3-1.1,0.5c-0.3,0.2-0.6,0.3-0.9,0.5
		c-0.3,0.1-0.7,0.2-1.1,0.2c-0.4,0-0.7-0.1-1-0.3c-0.3-0.2-0.5-0.4-0.6-0.7l-1-1.7c1.1-1,2.3-1.7,3.6-2.2c1.3-0.5,2.8-0.7,4.3-0.7
		c1.1,0,2.1,0.2,3,0.5c0.9,0.4,1.6,0.9,2.2,1.5c0.6,0.6,1.1,1.4,1.4,2.3c0.3,0.9,0.5,1.8,0.5,2.9v11.3H322.1z M315.8,95
		c0.7,0,1.3-0.1,1.8-0.4c0.5-0.2,1.1-0.6,1.6-1.2V91c-1.1,0-2,0.1-2.7,0.2s-1.3,0.3-1.7,0.5c-0.4,0.2-0.7,0.5-0.8,0.7
		c-0.2,0.3-0.2,0.6-0.2,0.9c0,0.6,0.2,1.1,0.5,1.3C314.7,94.9,315.2,95,315.8,95z"/>
	<path class="st5" d="M328.4,98.3V80.2h3.2c0.3,0,0.5,0,0.7,0.1c0.2,0,0.3,0.1,0.5,0.2c0.1,0.1,0.2,0.2,0.3,0.4s0.1,0.4,0.2,0.6
		l0.3,1.7c0.7-1,1.4-1.8,2.2-2.4c0.8-0.6,1.7-0.9,2.7-0.9c0.8,0,1.5,0.2,2,0.6l-0.7,4c0,0.2-0.1,0.4-0.3,0.5
		c-0.1,0.1-0.3,0.1-0.6,0.1c-0.2,0-0.4,0-0.7-0.1c-0.3-0.1-0.6-0.1-1-0.1c-1.4,0-2.5,0.8-3.4,2.3v11.1H328.4z"/>
	<path class="st5" d="M354,84.2c-0.1,0.2-0.3,0.4-0.4,0.5c-0.2,0.1-0.4,0.1-0.6,0.1c-0.3,0-0.5-0.1-0.8-0.2s-0.5-0.2-0.8-0.4
		c-0.3-0.1-0.6-0.2-1-0.4c-0.4-0.1-0.8-0.2-1.3-0.2c-0.7,0-1.2,0.1-1.6,0.4c-0.4,0.3-0.6,0.6-0.6,1.1c0,0.3,0.1,0.6,0.4,0.8
		c0.2,0.2,0.6,0.4,1,0.6c0.4,0.2,0.8,0.3,1.3,0.5c0.5,0.2,1,0.3,1.5,0.5c0.5,0.2,1,0.4,1.5,0.7c0.5,0.3,1,0.6,1.3,0.9
		c0.4,0.4,0.7,0.8,1,1.3s0.4,1.2,0.4,1.9c0,0.9-0.2,1.7-0.5,2.5c-0.3,0.8-0.8,1.4-1.5,2c-0.6,0.5-1.4,1-2.4,1.3
		c-1,0.3-2,0.5-3.3,0.5c-0.6,0-1.2-0.1-1.9-0.2s-1.2-0.3-1.8-0.5c-0.6-0.2-1.1-0.4-1.6-0.7c-0.5-0.3-0.9-0.6-1.3-0.9l1.3-2
		c0.2-0.2,0.3-0.4,0.5-0.6c0.2-0.1,0.5-0.2,0.8-0.2c0.3,0,0.6,0.1,0.8,0.2s0.5,0.3,0.8,0.5c0.3,0.2,0.6,0.3,1,0.5s0.9,0.2,1.5,0.2
		c0.4,0,0.8,0,1.1-0.1c0.3-0.1,0.5-0.2,0.7-0.4c0.2-0.2,0.3-0.3,0.4-0.5c0.1-0.2,0.1-0.4,0.1-0.6c0-0.4-0.1-0.7-0.4-0.9
		c-0.2-0.2-0.6-0.4-1-0.6c-0.4-0.2-0.8-0.3-1.4-0.5c-0.5-0.1-1-0.3-1.5-0.5c-0.5-0.2-1-0.4-1.5-0.7c-0.5-0.3-1-0.6-1.4-1
		s-0.7-0.9-1-1.5s-0.4-1.3-0.4-2.1c0-0.8,0.1-1.5,0.4-2.2c0.3-0.7,0.7-1.3,1.3-1.8c0.6-0.5,1.3-0.9,2.2-1.3c0.9-0.3,1.9-0.5,3.2-0.5
		c0.7,0,1.3,0.1,1.9,0.2s1.2,0.3,1.7,0.5c0.5,0.2,1,0.5,1.5,0.7c0.4,0.3,0.8,0.6,1.2,0.9L354,84.2z"/>
	<path class="st5" d="M359.1,98.3V83.9l-1.2-0.2c-0.4-0.1-0.7-0.2-1-0.4c-0.3-0.2-0.4-0.5-0.4-0.9v-2.1h2.6v-1c0-1,0.2-2,0.5-2.8
		c0.3-0.8,0.8-1.6,1.4-2.2c0.6-0.6,1.4-1.1,2.3-1.4s1.9-0.5,3.1-0.5c0.4,0,0.9,0,1.2,0.1c0.4,0.1,0.8,0.1,1.2,0.3l-0.1,2.6
		c0,0.2-0.1,0.3-0.1,0.5c-0.1,0.1-0.2,0.2-0.3,0.3c-0.1,0.1-0.3,0.1-0.4,0.2s-0.3,0.1-0.5,0.1c-0.5,0-0.9,0-1.3,0.1
		c-0.4,0.1-0.7,0.3-0.9,0.5s-0.4,0.6-0.6,0.9c-0.1,0.4-0.2,0.9-0.2,1.5v0.9h4.3v3.7h-4.1v14.4H359.1z"/>
	<path class="st5" d="M379,79.9c1.4,0,2.6,0.2,3.8,0.6s2.1,1,2.9,1.9c0.8,0.8,1.4,1.8,1.9,2.9s0.7,2.4,0.7,3.9
		c0,1.4-0.2,2.8-0.7,3.9c-0.4,1.2-1.1,2.1-1.9,3c-0.8,0.8-1.8,1.4-2.9,1.9s-2.4,0.7-3.8,0.7c-1.4,0-2.7-0.2-3.8-0.7
		s-2.1-1.1-2.9-1.9s-1.5-1.8-1.9-3c-0.4-1.2-0.7-2.5-0.7-3.9c0-1.4,0.2-2.7,0.7-3.9s1.1-2.1,1.9-2.9c0.8-0.8,1.8-1.4,2.9-1.9
		S377.6,79.9,379,79.9z M379,94.6c1.2,0,2.2-0.4,2.8-1.3c0.6-0.9,0.9-2.2,0.9-4c0-1.8-0.3-3.1-0.9-4c-0.6-0.9-1.5-1.3-2.8-1.3
		c-1.3,0-2.2,0.4-2.8,1.3c-0.6,0.9-0.9,2.2-0.9,4c0,1.8,0.3,3.1,0.9,4C376.8,94.1,377.7,94.6,379,94.6z"/>
	<path class="st5" d="M391.2,98.3V80.2h3.2c0.3,0,0.5,0,0.7,0.1c0.2,0,0.3,0.1,0.5,0.2c0.1,0.1,0.2,0.2,0.3,0.4s0.1,0.4,0.2,0.6
		l0.3,1.7c0.7-1,1.4-1.8,2.2-2.4c0.8-0.6,1.7-0.9,2.7-0.9c0.8,0,1.5,0.2,2,0.6l-0.7,4c0,0.2-0.1,0.4-0.3,0.5
		c-0.1,0.1-0.3,0.1-0.6,0.1c-0.2,0-0.4,0-0.7-0.1c-0.3-0.1-0.6-0.1-1-0.1c-1.4,0-2.5,0.8-3.4,2.3v11.1H391.2z"/>
	<path class="st5" d="M416.8,84.2c-0.1,0.2-0.3,0.4-0.4,0.5c-0.2,0.1-0.4,0.1-0.6,0.1c-0.3,0-0.5-0.1-0.8-0.2s-0.5-0.2-0.8-0.4
		c-0.3-0.1-0.6-0.2-1-0.4c-0.4-0.1-0.8-0.2-1.3-0.2c-0.7,0-1.2,0.1-1.6,0.4c-0.4,0.3-0.6,0.6-0.6,1.1c0,0.3,0.1,0.6,0.4,0.8
		c0.2,0.2,0.6,0.4,1,0.6c0.4,0.2,0.8,0.3,1.3,0.5c0.5,0.2,1,0.3,1.5,0.5c0.5,0.2,1,0.4,1.5,0.7c0.5,0.3,1,0.6,1.3,0.9
		c0.4,0.4,0.7,0.8,1,1.3s0.4,1.2,0.4,1.9c0,0.9-0.2,1.7-0.5,2.5c-0.3,0.8-0.8,1.4-1.5,2c-0.6,0.5-1.4,1-2.4,1.3
		c-1,0.3-2,0.5-3.3,0.5c-0.6,0-1.2-0.1-1.9-0.2s-1.2-0.3-1.8-0.5c-0.6-0.2-1.1-0.4-1.6-0.7c-0.5-0.3-0.9-0.6-1.3-0.9l1.3-2
		c0.2-0.2,0.3-0.4,0.5-0.6c0.2-0.1,0.5-0.2,0.8-0.2c0.3,0,0.6,0.1,0.8,0.2s0.5,0.3,0.8,0.5c0.3,0.2,0.6,0.3,1,0.5s0.9,0.2,1.5,0.2
		c0.4,0,0.8,0,1.1-0.1c0.3-0.1,0.5-0.2,0.7-0.4c0.2-0.2,0.3-0.3,0.4-0.5c0.1-0.2,0.1-0.4,0.1-0.6c0-0.4-0.1-0.7-0.4-0.9
		c-0.2-0.2-0.6-0.4-1-0.6c-0.4-0.2-0.8-0.3-1.4-0.5c-0.5-0.1-1-0.3-1.5-0.5c-0.5-0.2-1-0.4-1.5-0.7c-0.5-0.3-1-0.6-1.4-1
		s-0.7-0.9-1-1.5s-0.4-1.3-0.4-2.1c0-0.8,0.1-1.5,0.4-2.2c0.3-0.7,0.7-1.3,1.3-1.8c0.6-0.5,1.3-0.9,2.2-1.3c0.9-0.3,1.9-0.5,3.2-0.5
		c0.7,0,1.3,0.1,1.9,0.2s1.2,0.3,1.7,0.5c0.5,0.2,1,0.5,1.5,0.7c0.4,0.3,0.8,0.6,1.2,0.9L416.8,84.2z"/>
	<path class="st5" d="M427.3,75.2c0,0.4-0.1,0.8-0.3,1.2c-0.2,0.4-0.4,0.7-0.7,1c-0.3,0.3-0.7,0.5-1.1,0.7c-0.4,0.2-0.8,0.3-1.3,0.3
		c-0.4,0-0.9-0.1-1.2-0.3c-0.4-0.2-0.7-0.4-1-0.7c-0.3-0.3-0.5-0.6-0.7-1c-0.2-0.4-0.3-0.8-0.3-1.2c0-0.4,0.1-0.9,0.3-1.2
		c0.2-0.4,0.4-0.7,0.7-1c0.3-0.3,0.6-0.5,1-0.7c0.4-0.2,0.8-0.2,1.2-0.2c0.5,0,0.9,0.1,1.3,0.2c0.4,0.2,0.8,0.4,1.1,0.7
		c0.3,0.3,0.5,0.6,0.7,1C427.2,74.4,427.3,74.8,427.3,75.2z M426.7,80.2v18.1h-5.4V80.2H426.7z"/>
	<path class="st5" d="M436.5,72.1v14.7h0.8c0.3,0,0.6,0,0.8-0.1s0.4-0.3,0.5-0.5l3.4-5.1c0.2-0.3,0.4-0.5,0.7-0.7s0.6-0.2,1-0.2h5
		l-4.7,6.5c-0.2,0.3-0.5,0.6-0.7,0.8c-0.3,0.2-0.5,0.4-0.8,0.6c0.5,0.4,1,0.9,1.4,1.6l5.1,8.7h-4.9c-0.4,0-0.8-0.1-1.1-0.2
		s-0.5-0.4-0.7-0.7l-3.4-6.4c-0.2-0.3-0.3-0.5-0.5-0.6s-0.4-0.1-0.8-0.1h-1v8h-5.4V72.1H436.5z"/>
	<path class="st5" d="M451.2,98.3V80.2h3.2c0.3,0,0.5,0,0.7,0.1c0.2,0,0.3,0.1,0.5,0.2c0.1,0.1,0.2,0.2,0.3,0.4s0.1,0.4,0.2,0.6
		l0.3,1.7c0.7-1,1.4-1.8,2.2-2.4c0.8-0.6,1.7-0.9,2.7-0.9c0.8,0,1.5,0.2,2,0.6l-0.7,4c0,0.2-0.1,0.4-0.3,0.5
		c-0.1,0.1-0.3,0.1-0.6,0.1c-0.2,0-0.4,0-0.7-0.1c-0.3-0.1-0.6-0.1-1-0.1c-1.4,0-2.5,0.8-3.4,2.3v11.1H451.2z"/>
	<path class="st5" d="M473.5,79.9c1.2,0,2.3,0.2,3.3,0.6c1,0.4,1.9,0.9,2.6,1.6c0.7,0.7,1.3,1.6,1.7,2.6c0.4,1,0.6,2.2,0.6,3.5
		c0,0.4,0,0.7-0.1,1c0,0.3-0.1,0.5-0.2,0.6c-0.1,0.2-0.2,0.3-0.4,0.3c-0.2,0.1-0.4,0.1-0.6,0.1h-10.5c0.2,1.5,0.6,2.6,1.4,3.3
		c0.7,0.7,1.7,1,2.9,1c0.6,0,1.2-0.1,1.6-0.2c0.5-0.2,0.9-0.3,1.2-0.5c0.4-0.2,0.7-0.4,1-0.5c0.3-0.2,0.6-0.2,0.9-0.2
		c0.4,0,0.8,0.2,1,0.5l1.6,1.9c-0.6,0.6-1.2,1.2-1.8,1.6c-0.6,0.4-1.3,0.7-2,0.9c-0.7,0.2-1.4,0.4-2,0.5c-0.7,0.1-1.3,0.1-2,0.1
		c-1.3,0-2.5-0.2-3.6-0.6s-2.1-1-2.9-1.8c-0.8-0.8-1.5-1.8-2-3c-0.5-1.2-0.7-2.6-0.7-4.2c0-1.2,0.2-2.4,0.6-3.4s1-2,1.8-2.9
		c0.8-0.8,1.7-1.5,2.8-1.9S472.1,79.9,473.5,79.9z M473.6,83.7c-1,0-1.8,0.3-2.4,0.9c-0.6,0.6-1,1.4-1.2,2.5h6.8
		c0-0.4-0.1-0.9-0.2-1.3c-0.1-0.4-0.3-0.8-0.5-1.1c-0.3-0.3-0.6-0.6-1-0.8C474.6,83.8,474.1,83.7,473.6,83.7z"/>
	<path class="st5" d="M491.1,98.6c-0.9,0-1.6-0.1-2.3-0.4c-0.7-0.3-1.2-0.6-1.7-1.1s-0.8-1-1-1.7s-0.3-1.4-0.3-2.2v-9.4h-1.5
		c-0.3,0-0.5-0.1-0.7-0.3c-0.2-0.2-0.3-0.4-0.3-0.8v-2.1l2.9-0.6l1.1-4.4c0.1-0.6,0.5-0.8,1.2-0.8h2.8v5.3h4.4v3.7h-4.4v9
		c0,0.4,0.1,0.8,0.3,1s0.5,0.4,0.9,0.4c0.2,0,0.4,0,0.5-0.1s0.3-0.1,0.3-0.1c0.1-0.1,0.2-0.1,0.3-0.1c0.1,0,0.2-0.1,0.3-0.1
		c0.2,0,0.3,0,0.4,0.1c0.1,0.1,0.2,0.2,0.3,0.4l1.6,2.6c-0.7,0.5-1.5,0.9-2.4,1.2S492,98.6,491.1,98.6z"/>
	<path class="st5" d="M228.6,136.3v-18.2h1.2v7.9c0.6-0.7,1.2-1.3,2-1.7c0.7-0.4,1.6-0.6,2.5-0.6c0.7,0,1.3,0.1,1.8,0.3
		c0.5,0.2,1,0.5,1.3,0.9c0.3,0.4,0.6,0.9,0.8,1.5c0.2,0.6,0.3,1.2,0.3,1.9v8h-1.2v-8c0-1.2-0.3-2.1-0.8-2.7s-1.3-1-2.5-1
		c-0.8,0-1.6,0.2-2.3,0.6c-0.7,0.4-1.3,1-1.9,1.7v9.3H228.6z"/>
	<path class="st5" d="M246.9,123.7c0.9,0,1.7,0.2,2.4,0.5s1.3,0.7,1.8,1.3c0.5,0.6,0.9,1.2,1.1,2s0.4,1.7,0.4,2.6s-0.1,1.9-0.4,2.6
		s-0.6,1.5-1.1,2c-0.5,0.6-1.1,1-1.8,1.3c-0.7,0.3-1.5,0.5-2.4,0.5c-0.9,0-1.7-0.1-2.4-0.5c-0.7-0.3-1.3-0.7-1.8-1.3
		c-0.5-0.6-0.9-1.2-1.1-2c-0.3-0.8-0.4-1.7-0.4-2.6s0.1-1.9,0.4-2.6c0.3-0.8,0.6-1.5,1.1-2c0.5-0.6,1.1-1,1.8-1.3
		C245.2,123.8,246,123.7,246.9,123.7z M246.9,135.6c0.7,0,1.4-0.1,1.9-0.4c0.6-0.3,1-0.6,1.4-1.1c0.4-0.5,0.6-1,0.8-1.7
		s0.3-1.4,0.3-2.3c0-0.8-0.1-1.6-0.3-2.2c-0.2-0.7-0.5-1.3-0.8-1.7c-0.4-0.5-0.8-0.8-1.4-1.1s-1.2-0.4-1.9-0.4
		c-0.7,0-1.4,0.1-1.9,0.4c-0.6,0.3-1,0.6-1.4,1.1c-0.4,0.5-0.6,1.1-0.8,1.7c-0.2,0.7-0.3,1.4-0.3,2.2c0,0.8,0.1,1.6,0.3,2.3
		s0.5,1.2,0.8,1.7c0.4,0.5,0.8,0.8,1.4,1.1C245.5,135.4,246.1,135.6,246.9,135.6z"/>
	<path class="st5" d="M262.5,125.4c-0.1,0.1-0.2,0.2-0.3,0.2c-0.1,0-0.2-0.1-0.4-0.2c-0.1-0.1-0.3-0.2-0.6-0.4
		c-0.2-0.1-0.5-0.2-0.9-0.4c-0.3-0.1-0.8-0.2-1.3-0.2c-0.5,0-0.9,0.1-1.2,0.2c-0.4,0.1-0.7,0.3-1,0.5c-0.3,0.2-0.5,0.5-0.6,0.8
		s-0.2,0.6-0.2,0.9c0,0.4,0.1,0.7,0.3,1s0.5,0.5,0.8,0.7c0.3,0.2,0.7,0.3,1.1,0.5c0.4,0.1,0.8,0.3,1.3,0.4s0.9,0.3,1.3,0.4
		c0.4,0.2,0.8,0.4,1.1,0.6c0.3,0.2,0.6,0.5,0.8,0.9s0.3,0.8,0.3,1.3c0,0.5-0.1,1-0.3,1.5s-0.5,0.9-0.8,1.2c-0.4,0.3-0.8,0.6-1.4,0.8
		c-0.5,0.2-1.2,0.3-1.8,0.3c-0.9,0-1.6-0.1-2.3-0.4s-1.2-0.6-1.7-1.1l0.3-0.4c0-0.1,0.1-0.1,0.1-0.2c0.1,0,0.1,0,0.2,0
		c0.1,0,0.2,0.1,0.4,0.2s0.4,0.3,0.6,0.4c0.3,0.2,0.6,0.3,1,0.4s0.8,0.2,1.4,0.2c0.5,0,1-0.1,1.4-0.2c0.4-0.1,0.7-0.3,1-0.6
		s0.5-0.5,0.6-0.9c0.1-0.3,0.2-0.7,0.2-1.1c0-0.4-0.1-0.8-0.3-1c-0.2-0.3-0.5-0.5-0.8-0.7c-0.3-0.2-0.7-0.4-1.1-0.5
		c-0.4-0.1-0.8-0.3-1.3-0.4s-0.9-0.3-1.3-0.4c-0.4-0.2-0.8-0.4-1.1-0.6c-0.3-0.2-0.6-0.5-0.8-0.9c-0.2-0.3-0.3-0.8-0.3-1.3
		c0-0.4,0.1-0.9,0.3-1.3c0.2-0.4,0.5-0.8,0.8-1.1c0.4-0.3,0.8-0.6,1.3-0.7c0.5-0.2,1.1-0.3,1.7-0.3c0.8,0,1.4,0.1,2,0.3
		c0.6,0.2,1.1,0.6,1.6,1L262.5,125.4z"/>
	<path class="st5" d="M285.5,136.3h-1.3v-8.5h-11.1v8.5h-1.3v-17.7h1.3v8.2h11.1v-8.2h1.3V136.3z"/>
	<path class="st5" d="M305.6,127.5c0,1.4-0.2,2.6-0.6,3.7c-0.4,1.1-1,2-1.7,2.8c-0.7,0.8-1.6,1.4-2.7,1.8s-2.2,0.6-3.4,0.6h-6.5
		v-17.7h6.5c1.3,0,2.4,0.2,3.4,0.6c1,0.4,1.9,1,2.7,1.8c0.7,0.8,1.3,1.7,1.7,2.8C305.4,124.9,305.6,126.1,305.6,127.5z M304.3,127.5
		c0-1.2-0.2-2.3-0.5-3.3s-0.8-1.8-1.4-2.5c-0.6-0.7-1.4-1.2-2.2-1.5s-1.8-0.5-2.9-0.5H292v15.6h5.2c1.1,0,2-0.2,2.9-0.5
		s1.6-0.9,2.2-1.5c0.6-0.7,1.1-1.5,1.4-2.5C304.1,129.8,304.3,128.7,304.3,127.5z"/>
	<path class="st5" d="M311.5,136.3h-1.3v-17.7h1.3V136.3z"/>
	<path class="st5" d="M329.6,135.5c0.6,0,1.2,0,1.7-0.1s1-0.2,1.4-0.3c0.4-0.1,0.8-0.3,1.2-0.5c0.4-0.2,0.8-0.4,1.2-0.6v-4.8h-3.4
		c-0.1,0-0.2,0-0.2-0.1c-0.1-0.1-0.1-0.1-0.1-0.2v-0.7h4.9v6.3c-0.4,0.3-0.9,0.6-1.4,0.8c-0.5,0.2-1,0.4-1.5,0.6s-1.1,0.3-1.8,0.4
		s-1.3,0.1-2,0.1c-1.3,0-2.4-0.2-3.5-0.6c-1.1-0.4-2-1-2.7-1.8c-0.8-0.8-1.3-1.7-1.8-2.9s-0.6-2.4-0.6-3.7s0.2-2.6,0.6-3.7
		c0.4-1.1,1-2.1,1.8-2.9c0.8-0.8,1.7-1.4,2.8-1.8c1.1-0.4,2.3-0.6,3.7-0.6c0.7,0,1.3,0,1.9,0.1c0.6,0.1,1.1,0.2,1.6,0.4
		c0.5,0.2,1,0.4,1.4,0.7c0.4,0.3,0.8,0.6,1.2,0.9l-0.3,0.5c-0.1,0.1-0.2,0.2-0.3,0.2c-0.1,0-0.1,0-0.2,0c-0.1-0.1-0.3-0.2-0.5-0.4
		c-0.2-0.2-0.6-0.4-1-0.6c-0.4-0.2-0.9-0.4-1.5-0.5s-1.3-0.2-2.2-0.2c-1.2,0-2.2,0.2-3.1,0.6c-0.9,0.4-1.7,0.9-2.4,1.6
		c-0.7,0.7-1.2,1.5-1.5,2.5c-0.4,1-0.5,2.1-0.5,3.3c0,1.2,0.2,2.4,0.5,3.4c0.4,1,0.9,1.8,1.5,2.5s1.4,1.2,2.3,1.6
		C327.6,135.3,328.6,135.5,329.6,135.5z"/>
	<path class="st5" d="M344.8,123.7c0.7,0,1.3,0.1,1.9,0.4s1.1,0.6,1.5,1.1s0.8,1,1,1.7c0.2,0.7,0.4,1.5,0.4,2.3c0,0.2,0,0.3-0.1,0.4
		c-0.1,0.1-0.1,0.1-0.3,0.1h-9v0.2c0,0.9,0.1,1.8,0.3,2.5c0.2,0.7,0.5,1.3,0.9,1.8c0.4,0.5,0.9,0.8,1.5,1.1s1.2,0.4,1.9,0.4
		c0.6,0,1.2-0.1,1.6-0.2c0.5-0.1,0.8-0.3,1.2-0.5s0.6-0.3,0.7-0.5c0.2-0.1,0.3-0.2,0.4-0.2c0.1,0,0.2,0,0.2,0.1l0.3,0.4
		c-0.2,0.2-0.5,0.5-0.8,0.7s-0.7,0.4-1.1,0.6c-0.4,0.2-0.8,0.3-1.3,0.4c-0.5,0.1-0.9,0.1-1.4,0.1c-0.8,0-1.6-0.1-2.3-0.4
		c-0.7-0.3-1.3-0.7-1.8-1.3c-0.5-0.6-0.9-1.3-1.2-2.1c-0.3-0.8-0.4-1.8-0.4-2.8c0-0.9,0.1-1.7,0.4-2.5c0.3-0.8,0.6-1.4,1.1-1.9
		s1.1-1,1.8-1.3C343.2,123.9,344,123.7,344.8,123.7z M344.9,124.6c-0.6,0-1.2,0.1-1.7,0.3c-0.5,0.2-0.9,0.5-1.3,0.9
		s-0.7,0.8-0.9,1.4c-0.2,0.5-0.4,1.1-0.5,1.8h8.2c0-0.7-0.1-1.3-0.3-1.8c-0.2-0.5-0.4-1-0.8-1.3s-0.7-0.6-1.2-0.8
		S345.4,124.6,344.9,124.6z"/>
	<path class="st5" d="M352.9,136.3v-12.4h0.6c0.1,0,0.2,0,0.3,0.1c0.1,0.1,0.1,0.2,0.1,0.3l0.1,2.6c0.4-1,0.9-1.8,1.6-2.4
		c0.7-0.6,1.5-0.9,2.5-0.9c0.4,0,0.7,0,1,0.1c0.3,0.1,0.6,0.2,0.9,0.3l-0.2,0.8c0,0.1-0.1,0.2-0.2,0.2c0,0-0.1,0-0.2,0
		s-0.2-0.1-0.3-0.1c-0.1,0-0.3-0.1-0.5-0.1s-0.4,0-0.7,0c-0.9,0-1.7,0.3-2.3,0.9c-0.6,0.6-1.1,1.4-1.5,2.5v8.1H352.9z"/>
	<path class="st5" d="M364.4,118.1v18.2h-1.2v-18.2H364.4z"/>
	<path class="st5" d="M370.9,119.6c0,0.1,0,0.3-0.1,0.4s-0.1,0.2-0.2,0.3s-0.2,0.2-0.3,0.2c-0.1,0.1-0.3,0.1-0.4,0.1
		c-0.1,0-0.3,0-0.4-0.1c-0.1-0.1-0.2-0.1-0.3-0.2c-0.1-0.1-0.2-0.2-0.2-0.3c-0.1-0.1-0.1-0.3-0.1-0.4s0-0.3,0.1-0.4
		c0.1-0.1,0.1-0.3,0.2-0.4c0.1-0.1,0.2-0.2,0.3-0.2c0.1-0.1,0.3-0.1,0.4-0.1c0.2,0,0.3,0,0.4,0.1c0.1,0.1,0.2,0.1,0.3,0.2
		c0.1,0.1,0.2,0.2,0.2,0.4S370.9,119.5,370.9,119.6z M370.3,123.9v12.4h-1.2v-12.4H370.3z"/>
	<path class="st5" d="M374.7,136.3v-12.4h0.6c0.2,0,0.3,0.1,0.4,0.3l0.1,1.9c0.6-0.7,1.2-1.3,2-1.7s1.6-0.7,2.5-0.7
		c0.7,0,1.3,0.1,1.8,0.3s1,0.5,1.3,0.9s0.6,0.9,0.8,1.5c0.2,0.6,0.3,1.2,0.3,1.9v8h-1.2v-8c0-1.2-0.3-2.1-0.8-2.7s-1.3-1-2.5-1
		c-0.8,0-1.6,0.2-2.3,0.6c-0.7,0.4-1.3,1-1.9,1.7v9.3H374.7z"/>
	<path class="st5" d="M392.4,123.7c0.5,0,1,0.1,1.5,0.2c0.5,0.1,0.9,0.3,1.2,0.6h3.2v0.4c0,0.2-0.1,0.3-0.3,0.3l-1.9,0.1
		c0.2,0.3,0.4,0.7,0.5,1.1s0.2,0.8,0.2,1.3c0,0.6-0.1,1.1-0.3,1.6s-0.5,0.9-0.9,1.2c-0.4,0.3-0.9,0.6-1.4,0.8
		c-0.5,0.2-1.1,0.3-1.8,0.3c-0.7,0-1.4-0.1-2-0.3c-0.3,0.2-0.6,0.4-0.8,0.7c-0.2,0.3-0.3,0.5-0.3,0.8c0,0.4,0.1,0.6,0.4,0.8
		c0.2,0.2,0.6,0.3,1,0.4c0.4,0.1,0.9,0.1,1.4,0.2s1.1,0.1,1.6,0.1c0.5,0,1.1,0.1,1.6,0.2c0.5,0.1,1,0.2,1.4,0.4s0.7,0.4,1,0.8
		c0.2,0.3,0.4,0.8,0.4,1.3c0,0.5-0.1,1-0.4,1.5c-0.3,0.5-0.6,0.9-1.1,1.3s-1.1,0.7-1.8,0.9s-1.5,0.3-2.3,0.3c-0.9,0-1.6-0.1-2.3-0.3
		s-1.2-0.4-1.7-0.7c-0.4-0.3-0.8-0.7-1-1.1c-0.2-0.4-0.3-0.8-0.3-1.3c0-0.7,0.2-1.2,0.7-1.7c0.4-0.5,1-0.8,1.8-1.1
		c-0.4-0.1-0.7-0.3-1-0.6c-0.2-0.3-0.4-0.6-0.4-1.1c0-0.2,0-0.4,0.1-0.6c0.1-0.2,0.2-0.4,0.3-0.6c0.1-0.2,0.3-0.4,0.5-0.5
		c0.2-0.2,0.4-0.3,0.7-0.5c-0.6-0.3-1.1-0.8-1.4-1.4c-0.3-0.6-0.5-1.2-0.5-2c0-0.6,0.1-1.1,0.3-1.6c0.2-0.5,0.5-0.9,0.9-1.3
		c0.4-0.4,0.9-0.6,1.4-0.8C391.1,123.8,391.7,123.7,392.4,123.7z M397,137.2c0-0.4-0.1-0.7-0.3-0.9c-0.2-0.2-0.5-0.4-0.8-0.6
		s-0.7-0.2-1.2-0.3c-0.4-0.1-0.9-0.1-1.4-0.1s-1,0-1.5-0.1c-0.5,0-1-0.1-1.4-0.1c-0.3,0.1-0.6,0.3-0.9,0.4c-0.3,0.2-0.5,0.3-0.7,0.6
		s-0.3,0.4-0.5,0.7s-0.2,0.5-0.2,0.8c0,0.4,0.1,0.7,0.3,1s0.5,0.6,0.8,0.8c0.4,0.2,0.8,0.4,1.3,0.5s1.1,0.2,1.8,0.2
		c0.6,0,1.2-0.1,1.8-0.2c0.5-0.1,1-0.3,1.4-0.6s0.7-0.6,1-0.9C396.9,138,397,137.6,397,137.2z M392.4,130.8c0.5,0,1-0.1,1.4-0.2
		c0.4-0.2,0.8-0.4,1-0.6s0.5-0.6,0.6-1c0.1-0.4,0.2-0.8,0.2-1.3c0-0.5-0.1-0.9-0.2-1.3c-0.1-0.4-0.4-0.7-0.7-1
		c-0.3-0.3-0.6-0.5-1-0.6c-0.4-0.2-0.9-0.2-1.4-0.2s-1,0.1-1.4,0.2c-0.4,0.1-0.8,0.4-1.1,0.6s-0.5,0.6-0.7,1
		c-0.2,0.4-0.2,0.8-0.2,1.3c0,0.5,0.1,0.9,0.2,1.3s0.4,0.7,0.7,1s0.6,0.5,1.1,0.6C391.4,130.8,391.8,130.8,392.4,130.8z"/>
</g>
</svg>
