<svg id="OUTLINES" xmlns="http://www.w3.org/2000/svg" viewBox="0 0 1391.85 311.61"><defs><style>.cls-1{fill:#fff;}</style></defs><path class="cls-1" d="M524.35,175.49H585.2q15.21,0,23.36,7.53a24.42,24.42,0,0,1,8.14,18.66,23.56,23.56,0,0,1-5.81,16q-3.89,4.45-11.34,7,11.34,2.73,16.68,9.36t5.35,16.69a28.74,28.74,0,0,1-3.8,14.71,28,28,0,0,1-10.41,10.33q-4.1,2.37-12.34,3.44a142,142,0,0,1-14.57,1.44H524.35Zm32.79,41.26h14.14q7.61,0,10.58-2.62t3-7.57a9,9,0,0,0-3-7.18q-3-2.58-10.37-2.58H557.14Zm0,41.33h16.58q8.38,0,11.84-3a10.06,10.06,0,0,0,3.44-8,9.28,9.28,0,0,0-3.41-7.5q-3.4-2.83-11.94-2.83H557.14Z"/><path class="cls-1" d="M632,242.79q0-17.43,11.77-28.73t31.79-11.31q22.89,0,34.58,13.28,9.41,10.69,9.4,26.33,0,17.58-11.66,28.81T675.66,282.4q-18.37,0-29.71-9.33Q632,261.52,632,242.79Zm29.28-.07q0,10.2,4.12,15.07a13.52,13.52,0,0,0,20.74.07q4.05-4.8,4.05-15.43,0-9.9-4.09-14.74A12.7,12.7,0,0,0,676,222.85a13.21,13.21,0,0,0-10.55,4.91Q661.3,232.68,661.31,242.72Z"/><path class="cls-1" d="M734,175.49h29.28V280.68H734Z"/><path class="cls-1" d="M781.83,175.49H811v19.87h-29.2Zm0,29H811v76.2h-29.2Z"/><path class="cls-1" d="M882.29,204.48h27.34v72l.07,3.37a31.84,31.84,0,0,1-3.05,13.67A28.65,28.65,0,0,1,898.54,304a31.71,31.71,0,0,1-12.84,5.81,79.61,79.61,0,0,1-17.83,1.8q-23,0-31.54-6.89t-8.57-18.44c0-1,0-2.25.14-3.88l28.34,3.23q1.08,3.94,3.3,5.45a13.94,13.94,0,0,0,8.11,2.23q6.32,0,9.44-3.37t3.12-11.77V266.62a28.4,28.4,0,0,1-23.18,11q-15.28,0-24.68-13.34-6.68-9.48-6.68-25,0-17.81,8.62-27.13t22.53-9.33q8.89,0,14.67,3t10.8,10Zm-27.48,37q0,8.25,3.51,12.23a12.46,12.46,0,0,0,18.41-.14q3.69-4.12,3.69-12.45t-3.87-12.74a12.13,12.13,0,0,0-9.47-4.41,11,11,0,0,0-8.94,4.06Q854.81,232,854.81,241.43Z"/><path class="cls-1" d="M939.45,238.8v41.88H932v-104h26.82q18.3,0,27.59,8t9.3,22.85a30.68,30.68,0,0,1-2.54,12.56,27.92,27.92,0,0,1-7.31,9.89,34.18,34.18,0,0,1-11.61,6.46,47.78,47.78,0,0,1-15.43,2.32Zm0-6h19.33a36.92,36.92,0,0,0,12.34-1.91,26.93,26.93,0,0,0,9.22-5.29,22.93,22.93,0,0,0,5.81-8,24.56,24.56,0,0,0,2-10q0-12-7.38-18.44t-22-6.47H939.45Z"/><path class="cls-1" d="M1059.1,280.68a2.53,2.53,0,0,1-2.72-2.06l-1-9.33a78.13,78.13,0,0,1-6,5.29,36.37,36.37,0,0,1-6.21,4,30.36,30.36,0,0,1-7,2.46,37.63,37.63,0,0,1-8.23.85,24.16,24.16,0,0,1-7.28-1.11,17.81,17.81,0,0,1-6.24-3.38,16.47,16.47,0,0,1-4.37-5.84,20.23,20.23,0,0,1-1.66-8.56,15.21,15.21,0,0,1,2.65-8.59,21.66,21.66,0,0,1,8.27-6.91,54.23,54.23,0,0,1,14.47-4.7,124.73,124.73,0,0,1,21.27-2.06v-7.64q0-10.14-4.37-15.62t-13-5.47a24.44,24.44,0,0,0-9,1.47,32.15,32.15,0,0,0-6.28,3.23,39.88,39.88,0,0,0-4.19,3.23,4.53,4.53,0,0,1-2.72,1.47,2.37,2.37,0,0,1-2.2-1.32l-1.25-2.13a42.54,42.54,0,0,1,12.05-8.67,33.58,33.58,0,0,1,14.33-2.94,26.27,26.27,0,0,1,10.28,1.87,19,19,0,0,1,7.31,5.37,23.39,23.39,0,0,1,4.38,8.45,38.81,38.81,0,0,1,1.47,11.06v47.61Zm-29.39-3.89a31.5,31.5,0,0,0,7.83-.92,29,29,0,0,0,6.61-2.57,33.08,33.08,0,0,0,5.7-3.94q2.64-2.26,5.21-4.92v-19a130.45,130.45,0,0,0-18,1.58,52,52,0,0,0-12.42,3.49,18.19,18.19,0,0,0-7.2,5.25,11.23,11.23,0,0,0-2.32,7,15.24,15.24,0,0,0,1.22,6.35,12.54,12.54,0,0,0,3.19,4.41,12.67,12.67,0,0,0,4.63,2.54A18.69,18.69,0,0,0,1029.71,276.79Z"/><path class="cls-1" d="M1083.23,280.68V207.57h3.68a2,2,0,0,1,2.42,2.28l.59,15.43a34.78,34.78,0,0,1,9.4-13.93,21.53,21.53,0,0,1,14.48-5,24.92,24.92,0,0,1,6.1.7,23.31,23.31,0,0,1,5.29,2l-1,4.85a1.32,1.32,0,0,1-1.47,1.17,3.88,3.88,0,0,1-1.25-.29c-.54-.19-1.21-.42-2-.66a22.09,22.09,0,0,0-3-.66,24.39,24.39,0,0,0-4-.3,18.8,18.8,0,0,0-13.63,5.15q-5.34,5.14-8.64,14.84v47.54Z"/><path class="cls-1" d="M1164.89,281.86q-7.41,0-11.53-4.12T1149.24,265v-50h-10.5a2,2,0,0,1-1.33-.44,1.56,1.56,0,0,1-.51-1.25v-2.71l12.49-.89,1.74-26.15a2.08,2.08,0,0,1,.55-1.18,1.64,1.64,0,0,1,1.27-.51h3.27v27.92h23v5.21h-23v49.6a15.31,15.31,0,0,0,.78,5.18,9.54,9.54,0,0,0,2.13,3.57,8.3,8.3,0,0,0,3.19,2,11.69,11.69,0,0,0,4,.66,12.09,12.09,0,0,0,4.56-.77,18.12,18.12,0,0,0,3.3-1.69,20.5,20.5,0,0,0,2.28-1.69,2.52,2.52,0,0,1,1.4-.77,1.59,1.59,0,0,1,1.17.74l1.91,3.08a20.3,20.3,0,0,1-7.09,5A22.09,22.09,0,0,1,1164.89,281.86Z"/><path class="cls-1" d="M1196.3,280.68V207.57h3.82a2,2,0,0,1,2.2,1.84l.66,11a41.09,41.09,0,0,1,11.65-10.18,29,29,0,0,1,14.81-3.86,27.33,27.33,0,0,1,10.61,1.92,19.5,19.5,0,0,1,7.61,5.51,24.38,24.38,0,0,1,4.55,8.67,39.28,39.28,0,0,1,1.55,11.46v46.73h-7V234q0-10.29-4.71-16.13t-14.4-5.84a25.5,25.5,0,0,0-13.37,3.71,38.7,38.7,0,0,0-11,10.18v54.81Z"/><path class="cls-1" d="M1303.73,206.39a30.12,30.12,0,0,1,11.43,2.13,25.92,25.92,0,0,1,9.11,6.21,28.83,28.83,0,0,1,6,10,40,40,0,0,1,2.16,13.67,3.76,3.76,0,0,1-.47,2.21,1.83,1.83,0,0,1-1.51.58h-52.76v1.4a49.65,49.65,0,0,0,1.91,14.47,29.67,29.67,0,0,0,5.44,10.47,22.38,22.38,0,0,0,8.52,6.36,28.23,28.23,0,0,0,11.17,2.13,33.3,33.3,0,0,0,9.55-1.21,36,36,0,0,0,6.8-2.72,35.58,35.58,0,0,0,4.37-2.72,4.94,4.94,0,0,1,2.35-1.21,1.68,1.68,0,0,1,1.47.73l1.91,2.35a19.81,19.81,0,0,1-4.66,4.12,33.78,33.78,0,0,1-6.47,3.27,46.63,46.63,0,0,1-7.64,2.17,42,42,0,0,1-8.19.81,34.77,34.77,0,0,1-13.67-2.61,29.09,29.09,0,0,1-10.59-7.61,34.65,34.65,0,0,1-6.83-12.23,52.31,52.31,0,0,1-2.42-16.57,45.28,45.28,0,0,1,2.24-14.51,33.27,33.27,0,0,1,6.47-11.47,29.69,29.69,0,0,1,10.36-7.53A34.06,34.06,0,0,1,1303.73,206.39Zm.11,5.22a27.54,27.54,0,0,0-10.12,1.76,22.15,22.15,0,0,0-7.74,5.07,26,26,0,0,0-5.29,7.94,36.36,36.36,0,0,0-2.67,10.36h48.12a32,32,0,0,0-1.61-10.54,22.52,22.52,0,0,0-4.55-7.9,19.54,19.54,0,0,0-7-5A23.28,23.28,0,0,0,1303.84,211.61Z"/><path class="cls-1" d="M1349.89,280.68V207.57h3.67a2,2,0,0,1,2.43,2.28l.59,15.43a34.78,34.78,0,0,1,9.4-13.93,21.51,21.51,0,0,1,14.48-5,24.83,24.83,0,0,1,6.09.7,23.21,23.21,0,0,1,5.3,2l-1,4.85a1.33,1.33,0,0,1-1.47,1.17,3.88,3.88,0,0,1-1.25-.29c-.54-.19-1.21-.42-2-.66a22.27,22.27,0,0,0-3-.66,24.22,24.22,0,0,0-4-.3,18.82,18.82,0,0,0-13.63,5.15q-5.32,5.14-8.63,14.84v47.54Z"/><path class="cls-1" d="M220.85,0V87.85l33,33.51a2,2,0,0,1,.61,1.46v110a2,2,0,0,0,2,2h54.05a2,2,0,0,0,2-2V92.58a2,2,0,0,0-.61-1.45Z"/><path class="cls-1" d="M220.85,0V87.85l-34.27,33.51a2.05,2.05,0,0,0-.62,1.46v110a2,2,0,0,1-2,2h-54a2,2,0,0,1-2-2V92.58a2,2,0,0,1,.6-1.45Z"/><path class="cls-1" d="M347.41,121.5v87.85l34.26,33.51a2,2,0,0,1,.62,1.46v32.75a2,2,0,0,0,2,2.05h54.05a2.05,2.05,0,0,0,2.05-2.05v-63a2,2,0,0,0-.61-1.45Z"/><path class="cls-1" d="M347.41,121.5v87.85l-34.27,33.51a2,2,0,0,0-.62,1.46v32.75a2,2,0,0,1-2,2.05H256.43a2.05,2.05,0,0,1-2.05-2.05v-63a2,2,0,0,1,.61-1.45Z"/><path class="cls-1" d="M93,121.5v87.85l34.27,33.51a2,2,0,0,1,.61,1.46v32.75a2.05,2.05,0,0,0,2,2.05H184a2,2,0,0,0,2-2.05v-63a2,2,0,0,0-.61-1.45Z"/><path class="cls-1" d="M93,121.5v87.85L58.75,242.86a2,2,0,0,0-.61,1.46v32.75a2.05,2.05,0,0,1-2,2.05H2a2.05,2.05,0,0,1-2-2.05v-63a2,2,0,0,1,.61-1.45Z"/></svg>