<?xml version="1.0" encoding="utf-8"?>
<svg version="1.1" id="Lag_1" xmlns="http://www.w3.org/2000/svg" xmlns:xlink="http://www.w3.org/1999/xlink" x="0px" y="0px"
	 viewBox="0 0 2730.2 3244.4" style="enable-background:new 0 0 2730.2 3244.4;" xml:space="preserve">
<style type="text/css">
	.st0{fill:none;stroke:#1A315D;stroke-width:45;stroke-linecap:round;stroke-linejoin:round;stroke-miterlimit:10;}
</style>
<g>
	<path class="st0" d="M1971,1064.3c8.2,5.6,11.1,11.5,13.6,15.9c2.6,4.4,4.8,7.4,11.5,7.1c13.3,0.2,16,0.1,17.1-2
		c1.1-2.2,0.6-6.4,7.8-14.3c16.9-22.4,28.4-26.4,54.3-34.9c3.8-1.3,8-2.9,10-6.5c-8.6-0.3-16.6,3.1-24.6,6.8c-8,3.6-16,7.5-24.6,7.9
		c-4.2-0.3-8.2,0.1-12.2,0.9c-4,0.8-7.9,2.1-11.8,3.6c-4.8,1.5-9.6,1.5-14.5,1c-4.9-0.5-9.8-1.3-14.8-1.3c-4.8-0.4-5.2,2.6-7,6
		C1973.4,1057,1964.8,1060.2,1971,1064.3z M2075,1573.2c-0.7-0.1-12.7-6.9-13.6-5.3c-0.3,1.7-0.4,3.8,0,5.7c0.4,1.9,1.3,3.7,2.8,4.7
		c2.7-0.6,3.4,1.1,3.8,3.3c0.4,2.2,0.4,5,1.6,6.5c5.4,5.7,13.5-2,17.8,6.6c0.9,1.1,2.4,2,3.8,1.6c-0.1-6.9,1.7-9.6-5.4-13.3
		C2081.4,1579.6,2080.7,1575.1,2075,1573.2z M2645.1,1864.7c-12.6-1.8-2.3-6.8-23.7-9.4c-4,0-8.4,1.9-11.6,4.1
		c-0.5,1,0.6,1.9,1.3,2.4c4.3,3,9.1,6.1,13.2,9.9c4,3.7,7.3,8.1,8.6,13.5c1,1.4,3.1,2.2,5.3,2.4c2.2,0.2,4.5-0.2,5.9-1.1
		C2646.5,1882.9,2652.4,1867,2645.1,1864.7z M2655,2079.8c7.6,3.6,5.6-8.3,5.4-11.7c-1.2-0.3-3.5-1-4.7-1.3
		C2652.1,2069.9,2651,2076.6,2655,2079.8z M2703.7,2140.4c-1.9-0.5-2.5,0.3-2.9,1.5c-0.3,1.2-0.3,2.8-0.7,3.9
		c-6.9-0.2-6.9-11.7-8.5-22.7s-4.7-21.7-17.9-20.4c-2.3,0-4.7-0.3-7.1-0.5c-2.4-0.2-4.7-0.1-6.9,0.7c-5.7,5.4-8,12.6-9.3,20.3
		s-1.4,15.8-2.6,22.9c1.1,5.4,4.9,9,9.3,12.1c4.4,3.1,9.5,5.8,13,9.3c1.4,1.3,2.8,2.7,4.2,4c5.1,5.3,13,5.3,19.4,2.3
		c4.7-2.1,9.1-5.5,12.4-8.8c1.3-2.3,1.5-5,1.5-7.7C2707.1,2152.4,2709.5,2142.4,2703.7,2140.4z M1302.3,1988.5
		c-1.1-7.8-7-14.4-7.9-22.3c-0.5-4.3,0.5-9.1-1.4-13.1c-1.8-3.8-7-4.4-7.1,0.7c-1.3,9.4-3.3,18.8-6.1,27.9c-0.8,3.7-2.3,5.4-4.2,6.8
		c-3.6,2.6-7.5,4-6.4,9.8c0.2,1.8,0.4,3.6-0.5,5.1c-2.9-0.5-7.1,0-9.8-0.6c-2.7-0.6-3.8-2.2-0.4-7.2c4.8-12.4-26.2-2-28.9-2.6
		c-6.4,2.1-4.3,5,0.1,7c4.4,2.1,10.9,3.3,13.5,2.2c2.1-0.5,4.3-0.2,4.8,2.3c0.5,2.2,2.1,4.6,1.4,7c-2.9,2.8-4.2,6.6,0,9.2
		c7.1,2.6,15.3,0.2,22.6,0.6c10-0.5,4.9,11.3,22.6,6.9c1.9-1.2,1.6-3.9,1.5-5.8C1295.1,2011,1303.9,2000.1,1302.3,1988.5z
		 M1316.1,1932.7c4.7-2.6,3.7-14.5-1.7-15.7C1314.8,1922.1,1315.5,1927.5,1316.1,1932.7z M1367.9,1810.4c-2.1,0.1-9.9-1.7-16.3-2.2
		s-11.5,0.3-8.1,5.6c0.7,1.3,1.7,2.2,2.9,3c1.2,0.8,2.5,1.5,3.7,2.2c3.5,2.1,6,5.3,8.9,8c5.7,6,15,6.7,20.9,0.3
		c2.6-2.7,4.5-6.3,5.7-9.9c0.6-1.8-1.3-2.7-3.5-3.4s-5-0.9-6.1-1.4C1373.3,1811.7,1370.6,1811,1367.9,1810.4z M1321.1,1940.2
		c-2.1-1.8-5.2-2.3-7.8-2.4c4.3,1.8,8.8,4.2,12.4,7.4c0.4,0.2,0.7,0.4,1.1,0.2C1328.6,1941.1,1323.6,1941.4,1321.1,1940.2z
		 M1499.1,1907.6c1.6-8.3,4.1-16.1,8.5-23.4c2.7-7.5,2-19.2,0.6-26.8c-1.9-3.9-4.2-7.7-6.7-11.4c-2.5-3.7-5.2-7.2-7.9-10.7
		c-0.7,11,12.4,14.2,10.7,25.6c-0.5,5.3-5.4,8.3-10.4,8.4c-3,1.3-3.1,5.8-3.1,8.4c-8.1,4.8-9.9,5.1-11.4,3.8s-2.6-4.3-9.2-5.8
		c-2.5-9.7,9.9-13.6,12.8-21c-0.3-8.7-11.5-10.3-17.3-13.7c-20.4-11.4-31.7-36.6-27.3-59.5c-0.2-6.5,3.5-14.9,5.4-22.6
		s1.9-14.8-5.6-18.6c-3.3,3-3,8-3.4,12.1c-3.8,21.8-13.1,25-19.5,31c-6.5,6-10.2,14.9-3.2,48.4c0.3,6.1,18.2-2.6,30.3,20.6
		c5,10.1,5.4,22,3.6,33c-1.8,13-7.4,15.7-13.1,16.9c-5.7,1.2-11.5,1-13.8,8.2c0.7,5.4-1.8,6.3-4.4,7.2c-2.6,0.9-5.2,1.8-4.9,7.4
		c0.7,12.1,0.5,24.8,1.2,37.3s2.3,24.8,6.6,36.3c2.3,4.2,5.6,6.4,9.2,7.3c3.7,0.9,7.7,0.5,11.8-0.6c1.4,0.1,2.7,0.7,3.9,1.3
		c2.6,1.3,5.5,2.5,7.6-0.3c0.8-1.1,1-2.4-0.2-3.2c2.1-0.4,4.3,0.1,6.2,1.1c1.9,1,3.4,2.7,4.3,4.6c1.9,0.4,3.2-0.6,4.3-2.3
		c1.1-1.6,1.9-3.8,2.6-5.6c1.6-3.7,4.7-6.4,7.7-9.1c7.4-6.2,9.9-12,6.7-21.4c-1.3-4.1-3.1-8.2-3.9-12.3
		C1473.5,1938.6,1491.4,1923.4,1499.1,1907.6z M1552.4,1834.5c1.7,0,5.9,0.9,6-1.9c0.2-4.9-2.3-8.3-5.8-10.2
		c-3.5-1.9-8.1-2.5-12.2-1.8c-0.5,1.6,0.3,2.6,1.4,3.3s2.6,1.2,3.4,2C1548.3,1828.3,1547.8,1833.9,1552.4,1834.5z M1576.6,1635.9
		c-1.3-1-2.4,0.7-3.1,1.6c-3.7,2.9-5.9,6.3-1.3,9.8c2.7,1.9,5.3-0.3,6.5-2.7c1.1-2.4-1.5-4.5-1.7-6.8
		C1577,1637.1,1577.1,1636.4,1576.6,1635.9z M1479.6,1877c1.1,0.2,7.1,0.2,6.8-2c-2.1-0.7-4.1-1.9-6.2-2.6c-2-0.7-4.1-0.8-6.2,0.9
		c1.4,0.9,3,1.6,4.7,2C1478.4,1876,1479,1876.7,1479.6,1877z M1489.6,1867.7c0.9-0.1,2.2-0.5,2-1.7c-1.2-0.6-2.6-1.1-3.5-0.9
		s-1.5,1-1.1,2.9C1487,1868.2,1489.5,1867.7,1489.6,1867.7z M1666.2,2431.5c-2.3-2.2-12.6-1.4-13.6,2.3c-1.7,2.8-4.8,4.9-7.5,7.2
		s-5,4.8-5.2,8.6c5.1,1.9,8.9,0.9,12.8-0.6c3.9-1.4,8-3.3,13.5-3C1678.7,2443.5,1668.2,2437.6,1666.2,2431.5z M1758.6,1879.4
		c-10.9-10.6-21.8-19.1-37.6-20.3c-3.5,7.4,5.3,12.4,10.4,15.3c15.6,9.8,23.3,31.4,41.5,37.3c13.2,1.6,20.2,5.8,26.6,10.6
		s12,10.4,22.3,14.7c1.2-3-0.2-5.3-2.3-7.1c-2.1-1.8-5.1-3.2-7.2-4.3c-2.3-1.4-4.1-3.3-6-5.2c-1.9-1.9-3.7-3.8-5.9-5.4
		c-11.5-4.8-18-9.4-23.6-14.9C1771.3,1894.4,1766.6,1887.9,1758.6,1879.4z M1783.5,2581.8c1.7,2.2,0.4,12.7,5.6,11
		c5.7-2.3,13.6-7.4,11.3-14.8c-3.1,3.7-7.5-0.6-10.2-2.3c-5.2-1.8-4.4-7.7-4.4-13c-0.1-5.3-1-9.9-9.7-9.1c-2.2-5.1,6-10,4.4-15.2
		c-0.1-1-3.3-4.9-6.4-7.7c-3.1-2.8-6.1-4.6-5.8-1.4c2.6,17.1,1.6,35.5,6.3,52.3C1777.6,2581.7,1780.5,2581.7,1783.5,2581.8z
		 M1773.5,2612.5c-1.9-8.2-4.2-8.4-8.4-6.6c-4.2,1.8-10.2,5.7-19.5,5.5c-3.2,0.1-4.9,3.2-2.1,5.4c5.4,1.9,6.7,7.7,8.4,12.7
		c1.8,5,4,9.1,11.4,7.7c-1.5-7.6,1.4-11.2,4.5-14.2S1774.3,2617.8,1773.5,2612.5z M311.8,2544.1c-2-11.8-13-17.1-23.4-19.6
		c-12.6-2.5-32.7-15-39,4.6c-2.2,12.9-5.7,17.1-8.4,20.4c-2.7,3.2-4.7,5.4-4,14c0.5,9.3-0.1,18.7-1.5,27.9c-1.5,9.2-3.9,18.3-7.3,27
		c-1.4,3.6-3.1,7.5-2.2,11.4c2.6,5.9,5.9,11.5,9.4,17.1c3.5,5.5,7.1,11,10.2,16.7c1.3,2.6,3.2,4.9,5.5,6.2c2.3,1.3,5,1.6,7.9,0.3
		c4.7-1.3,9.4-2.9,14-4.6c4.6-1.7,9.1-3.6,13.6-5.6c4.3-1.3,5.7-4.3,6-7.8s-0.4-7.6-0.3-11c-0.1-4.5-0.3-9.1-0.2-13.8
		c0.1-4.6,0.6-9.2,2.1-13.5c14.6-30.1,20.7-22.8,18.5-59.2C312.6,2551.2,312.6,2547.6,311.8,2544.1z M311.4,2421.2
		c-0.8-0.3-1.6-0.6-2.5-0.9c-2.2-3.3-7.4-4.6-12.9-5c-5.6-0.5-11.5-0.2-15.2-0.2c-4.7-0.3-7.3,3.7-9.9,6.9
		c-11,12.9-17.1,18.1-20.3,24.7c-3.2,6.5-3.6,14.4-3.1,32.6c0.2,4.2,5.3,6.5,11.2,7.9c5.8,1.4,12.4,1.9,15.7,2.4
		c7,0.9,14.4-1.6,17.5-8.6c1.9-9.3,6.5-17.5,10.6-25.7c4.2-8.2,8-16.5,8.2-26.1c0.2-1.2,1.3-2.9,1.8-4.5
		C313.1,2423.2,313.2,2421.8,311.4,2421.2z M236.9,2394.3c20.1-4.6,33.3-4.1,39.6-8.5c6.3-4.4,5.6-13.8-1.8-38.3
		c-8-20.9-21.6-39-34.7-57c-4.7-5.9-11.7-17.6-19.6-27.5c-10.9-13.6-24.5-24.2-33.8-8c-2.3,3.5-4.3,7.3-7.3,9.8
		c-17.3,9.8-5.9,24.1,4.7,33.1c7.1,7,12.9,15.1,17.5,24c4.6,8.9,7.9,18.4,10.2,28.1C218.5,2365.7,205.7,2402.5,236.9,2394.3z
		 M1636.5,519.9c5.4,3.9,13.9,6.7,15.9,13.6c3.5-1.8,7.1-3.6,10.6-5.4c3.8,3.2,6.8,8.3,10.1,12.8c3.3,4.5,7,8.5,12,9.5
		c4.8-1.6,16-1.6,25.8-2.8c9.8-1.2,18.3-3.8,17.7-10.7c8.1-8.4,12.9-11.4,15.5-15.6s3.1-9.7,2.4-22.9c0.1-3.1-4.7-3.2-6.1-5.3
		c-1.2-2.7,1.1-5,4.3-6.7c3.2-1.7,7.1-2.9,9.2-3.5c8-1.6,16.2-6.1,24.4-6.1c3.4,4.1,7,6.4,11.1,1.3c1.8-2.9,1.6-6.1,1.2-9.3
		c-0.4-3.3-1-6.6-0.3-9.7c-12.7,0.1-25.5,0.3-38.2,0.4c-12.7,0.1-25.5,0.3-38.2,0.4c-1.8,4.1,8.4,5.5,7.1,9.6
		c-10.9,11.2-29.7,0.9-42.6,3.1c-6.9,0.9-11.5,5.5-16.2,10.6c-4.7,5.2-9.6,10.8-17.1,13.7c-2.6,1.4-6.1,2.3-9,3.8
		c-5.8,2.5-8,8.8-4.8,14.1C1632.5,516.8,1634.3,518.4,1636.5,519.9z M1696.7,571.4c7.7-0.5,15.5-0.9,23.2-1.4
		c2.8-0.1,2.9-5.8,2.8-7.5c-1-4.6-7.1-5.1-13.7-4.3c-6.6,0.8-13.6,2.9-16.6,3.5C1689,564.7,1691.1,572.9,1696.7,571.4z
		 M1645.8,422.2c4.1,0.1,8.3,0.3,12.4-0.1c2.8-1.5,1.2-5.5,2.2-7.8c0.1-1.2,6.7-7,4.5-8.5c-4-0.8-5.6,3.9-7.4,6.3
		c-3.1,4-11.8,3.1-13,8.9C1644.4,421.8,1645.1,422.2,1645.8,422.2z M1469.8,332.7c4.3,1.2,8.9-4.7,9-8.5c0.6-3.1-7.9-10.3-8.2-3.5
		C1474.3,325.4,1469.6,328,1469.8,332.7z M1500.7,287.7c2.4-5.9-6.7-14-12.3-11.2c-2.8,1.7-2.3,3.4-0.9,4.8s3.8,2.6,5,3.5
		C1494.8,287,1497.6,288.2,1500.7,287.7z M1490.7,292.2c1.6,2.1,5,1.2,3.3-1.7c0,0-1.6,0.3-1.6,0.3l-1.6,0.3
		C1490.4,291.3,1490.5,291.8,1490.7,292.2z M1876.9,2751.8c0.2-0.2,0.4-0.4,0.5-0.6C1877.2,2751.3,1877.1,2751.5,1876.9,2751.8z
		 M1875.5,2752.6c0.5-2.1,0.6-4.3,0.1-6.4c-0.9,1-2.2,1.2-3.3,0.8c-1.1-0.4-2-1.4-1.9-2.8c-1.8,0-3.2,1-4.1,2.3
		c-0.9,1.3-1.3,3.1-1.1,4.7c0,1.4-0.5,3.6-0.4,5.4c0,1.8,0.6,3.4,2.7,3.4c3.7-0.2,8.5-4.9,9.4-8.3c-0.7,0.7-1.5,1.2-2.4,1.5
		C1874.7,2752.9,1875.1,2752.6,1875.5,2752.6z M1883.5,2748c1-1.3,1.9-8.4,0.2-9.6c-2.3-0.3-4.5,1.7-5.1,3.8
		c-0.8,2.9,0.8,6.3-1.2,8.9C1879,2749.7,1882.1,2749.7,1883.5,2748z M1840.9,2793.7c-7.2-5-16.7,6.8-9.3,12.1c7.3,2.4,10,6,12.1,9.1
		c2.1,3.1,3.4,5.8,7.8,6.3c1.1,0,1.9-0.8,2-1.9C1856.8,2805.4,1855,2798.6,1840.9,2793.7z M1910.6,2842.8c6.6-5,14.5-4.5,22.3-4.8
		c16.1-3-3.2-21.3-4.5-27.7c-0.9-1.7-2.4-3.9-4.6-3.6c-2,0.4-2.7,3-3.6,5.3c-0.9,2.3-2,4.1-4.9,3c-4-1.4-5.4-8.7-10.6-7.8
		c-2.8,1.1-3.5,3.5-3.5,6.3c0,2.8,0.7,5.9,0.7,8.1c-2.8,5.4-16.4,0.5-18.7-3.2c-2.7-3.8-3-9.6-4.2-14.8s-3-9.7-8.6-11.1
		c5.6,11.1,4.6,15.4,3.3,18.5c-1.3,3.2-2.9,5.2,1.6,11.7c4.8,4.7,6.5,10.2,6.2,16.8c1.4,5.5,19.8,24.6,25.6,13.2
		C1907.6,2848.8,1905.9,2844.9,1910.6,2842.8z M1991.5,2814.3c5.6-7.1-0.5-19.6-6.3-24.4c-4.1-1-8.5-1.2-13-1.3
		c-4.4,0-8.9,0.2-13.1,0.2c-3.1,0.2-3.7,1.3-3.9,3s0,3.9-1.7,6.5c-0.2,2.3,2.2,3.7,3.8,5c2.8,2.1,4.6,5,6,8.2
		c1.4,3.2,2.3,6.8,3.1,10.2c0.5,2.9,1.8,5.5,4.3,7c1.9,1.4,2.5,4.4,3.3,7.1c0.8,2.7,1.9,5,4.6,5c1-2.8,0.5-6.1,0.1-9.2
		C1977.1,2819.1,1985,2820.8,1991.5,2814.3z M1949.3,2893.4c3.4,0.4,7.9-1.2,8.3-5c1.8,2.4,4.5,4.1,7.4,4.8c0.7-2.5-1.2-4.3-2.9-6.2
		c-1.7-1.9-3.2-3.8-1.5-6.7c1.4-5.4,2.1-17.5-5.7-18.1c-1.3,0.1-2.6,0.8-3.3,2.5c-1.4,3.3,1.2,7.3-1.8,10.2
		c-1.4,1.4-3.1,1.6-4.7,1.6s-3.2,0.1-4.2,0.9c-1.8,2.9-1.5,6.7,0.2,9.9C1942.6,2890.7,1945.7,2893.2,1949.3,2893.4z M1625.5,2624.3
		c-16.8,10.5-17.6,13.6-20,32.6c-5.3,9.1-8.6,18.3-8,29.1c-3,30-25.7,58.8-35.5,86.3c0.1,1,0.7,1.7,1.5,2.1c-1.1,7.1-2.3,9.5-4.1,11
		c-1.8,1.5-4.3,2.2-8.1,6c-0.4,0.7,0.6,1.8,1.4,3.1c0.8,1.3,1.3,2.8-0.3,4.3c-1.6,1.5-3.2,0.7-4.6-0.5c-1.5-1.2-2.8-2.9-3.8-3.1
		c-14-6.1-21.9,1.6-28.2,12.6c-6.3,11-10.9,25.4-18.2,32.7c-7.8,9-23.1,21.7-8.6,32.9c3.1,2,6.7,2.1,9.2-2.2
		c2.2,8.9,4.4,17.9,6.6,26.8c-5.6-0.4-11.2,3.5-12.8,8.9c-2.4-1.7-2.9-4.4-3-7.2c-0.2-2.8-0.1-5.8-1.4-8.1c-9.3-10.6-9.1,11-11,14.7
		c-1.2,2.9-2.7,5.6-4.1,8.4s-3,5.5-4.3,8.3c-2.2,4.4-3,13.1-5.9,17c-1.3,1.7-4.5,2.8-6.9,4.3s-4,3.5-2.3,7
		c11.2,8.6,16.1,20.4,18.4,33.2c2.2,12.8,1.7,26.7,2.1,39.4c0.2,11.9,5.1,22.1,12.2,26.5c7.1,4.5,16.4,3.3,25.4-7.3
		c5.1-7.8,8.1-16.7,10-25.9c1.9-9.2,2.7-18.7,3.4-27.7c9.4-10.8,10.9-25,13.1-38.7c9.6-43.7,43.6-80.4,42.7-126.8
		c4.2-14.8,13.7-23.4,22.1-33c8.4-9.6,15.8-20.3,16.1-39.5c3.2-23.8,11-46.5,17.5-69.4c6.6-22.9,11.9-46,10.1-70.6
		C1639.3,2615.7,1632.4,2620,1625.5,2624.3z M1394.4,2915.4c-4.5-7.4-12.1-14.2-16.4-21.7c-1.9-3.7-3.1-8.1-6.3-10.9
		c-2.3-0.9-3.5-3.5-4.8-5.7c-1.2-2.2-2.4-3.9-4.7-3c0.1,2.3,0.3,4.6,0.4,6.9c-3.8,0.7-6.9-3.9-10.7-3.5c-0.7,1.9-0.2,3.6,0.9,5.1
		c1.1,1.5,2.7,2.8,4,3.9c1.7,1.8,12.4,11.7,9.8,15.1c-1.9,1.1-4.8-0.8-7.6-2.8c-2.9-2-5.8-4.2-8-3.8c0.5,1.4,0.8,2.8,0.9,4.3
		s0.1,2.9-0.2,4.4c-4.2,0.3-6.1-2.5-8.1-5.9c-2-3.4-4.3-7.4-9.2-9.4c-2.7-2-2.6-4.5-2.3-7s0.8-5.1-1-7.5c2-3.5,6.3,1.8,8.8,0.9
		c4.5-2.4-8.8-10.8-9.3-12.1c-2.2-3.6-6.7-8-11.2-5.3c-0.3,0.3-0.5,0.7-0.3,1.1c5.8,4.1,5.4,7,5.5,13.4c-7.4-2.6-9.9,7.2-9,12.3
		c-5.3-7.4-13.4-12.8-22.3-14.8c-4.9,0.2-8.5-7.5-13-16.3c-4.5-8.8-9.8-18.9-17.9-23.5c-3.1-2.8-6.4-3.5-10-3.9
		c-13.3-0.4-18.2-4.1-27.1-14c-4.6-4.9-8.6-8.9-13-7.7c-3.6,6.5,0.9,10.4,6.4,14.1s12.2,6.9,12.8,12.3c-2.4,10,0.3,16.4,5,21.8
		c4.7,5.4,11.5,9.9,17.1,16.2c6.3,8.5,10.8,26.4,25.1,23.5c-1.1,15.3,9.4,25.3,21.5,32.4c6,4.5,16.3,16.6,25.8,23.4
		c9.5,6.8,18.2,8.4,20.9-8.2c3.9-8.3,11.8-9.3,20.2-9.1s17.6,1.4,24-2.3C1396,2925.6,1398.4,2919.7,1394.4,2915.4z M1685.6,2937.4
		c1.7-3.2,0.7-6.2-1.6-9c-3.7-4.3-5-2.5-5.6,0.9c-0.6,3.3-0.3,8.2-0.7,10c-1.9,3.7,0.5,9,5.1,6.5
		C1683.3,2940.8,1681.9,2941.6,1685.6,2937.4z M2242.6,2857.1c5.5,4.6,11.9,8.4,18.8,10.9c6.9,2.5,14.2,3.7,21.3,3.3
		c1.7,0.6,4.6,2.3,7.1,2.9c2.5,0.6,4.6,0.3,5-3.1c-0.8-3.2-5.5-2.3-7.7-4c5.9-5.3,6.6-7.2,4.6-8.3c-1.9-1.1-6.4-1.4-10.6-3.6
		c-2.8-1-2-4,0.2-5.3c6.1-2.3,5.4-7.7-0.7-9.5c-3.2-0.5-6.4,0.7-9.5,0.8c-2.9,0.1-6-0.7-8.8,0.3c-5.6,3.2-11.4,10.7-14.8,0.1
		c-3.5-3.3-4.3-4.6-4.5-6.1s0.1-3-1-6.8c-1.4-2.2-3.3-2.2-4.5-1.2s-1.5,3.1,0,5.1c1.1,1.6,2.8,3.1,2.9,5.2
		C2237.9,2844.7,2236.8,2851.5,2242.6,2857.1z M2561.8,2801.2c16.7,109.1-94.7-36.8-147.8,35c-14.3,14.9-27.2,32.4-36.1,51.1
		c-0.9,5.1-3.8,9.3-9.2,10.3c-4.9,1.5-48.1,7.7-43-8.3c-4.2,0-8.5-1.6-11.7-4.4c1.5-0.1,3.1-0.3,4.6-0.4c0.2-1.1-0.3-2.2-1-3
		c-0.8-0.8-1.9-1.3-3-1.1c1.6-1.4,2.3-3.8,1.5-5.8c-2.3-0.3-6.9-0.8-9.2-1.1c2.9-1.4,3.1-5.3,2.4-8c-9.5-16.2,15.6-19.2,8.1-32.1
		c-13.9-6.1-8.3-11.6,1.4-17.9c3.5-2.8,6.4-8,11.4-8c2,0,5.9,2.9,9.4,4.9s6.5,2.9,6.7-0.9c0-0.6-2.9-4.3-5.5-7.9s-4.8-7-3.3-7.3
		c9.3-2.8,24.5-1.5,22.5,12c-0.1,1.3,0,2.6,0.5,3.8c5.4-4.3,12.5-5.6,19.5-7c8.2-1.6,21.3-4.2,22.8-13.6c0.1-2.2-0.8-4.4-3.2-6
		c-6.6-12.1,5.5-14-8.5-32.4c-1-1.7-2.7-4.8-1.9-6.9c0.6-1.5,1.9-2,3.3-2.5c1.4-0.5,2.9-0.9,3.8-1.9c1.4-2.1,1.4-6.4,1.1-10.9
		c-0.3-4.5-0.8-9.2-0.6-12.1c0.7-9.1-10.7-9.2-15-14.8c-2.6-3.2-2-7.2,0.2-9.8c2.1-2.6,5.8-3.8,9.4-1.5c4.6,2.9,8.2,6.4,10.5,10.6
		c2.4,4.2,3.5,9,3.1,14.5c3.5,41.4,33.4,27.2,60.6,39.3c-7.7-16.7,57.1,0.3,57,3.4c-2.1-0.9-4.4-1.3-6.7-1.2c1,3.3,3.3,6,6.1,7.9
		c2.9,1.9,6.3,2.8,9.7,2.5c0-1.6-0.2-4.8-0.2-6.3c13.7,4,24.3,16.7,26,30.8c-2.9,2.2-6.7-3.4-9.8-2.3c-3.1,1-2.6,5.6-4.6,7.6
		c-19,6-3.3,26,7.9,11.3c0.8,2.1,2.1,4,3.9,5.5c0-2,0.4-9.6,1.4-14.7C2557.2,2796.5,2559,2793.7,2561.8,2801.2z M2438,2797.3
		c-2.7-4.8-19.4-2.5-23.4-2.3c-3.6,4.8-10.5,9.3-11.3,15.6c5.3,2.5,8-1.1,11.8-5.2c3.8-4,8.8-8.4,18.7-7.3
		C2435.2,2798.2,2437.1,2798.5,2438,2797.3z M2388.7,2737c1.5-4.8-2.4-9.7-6.8-14.7c-4.4-5.1-9.4-10.4-10.2-16.1
		c-3.7-9.8-14.1,7.9-13,11.1c0.2,2.9,2.6,5.4,0.1,8.1c-4.8,3.2-11.7,3.5-4.2,10c5.6,12.5,14.4,14.9,26.6,18.8
		C2378.9,2747.4,2386.9,2742.5,2388.7,2737z M2125.4,1987.6c-1.5,4.4-3.8,6.2-8.2,7.6c-12.9,5.4,5.6,15.1,4.5,22.8
		c-0.6,4.8,2.7,5.7,6.3,6.4c3.6,0.7,7.4,1.1,8.1,4.8c0.1,1.2-0.6,2.2-1.6,2.9s-2.3,0.8-3.3,0.2c0.4,1.4,1.3,4.4,2.7,6.6
		c1.3,2.3,3,3.8,4.9,2.5c0.2-2.1,0.4-4.3,1-6.3c0.6-2,1.6-3.9,3.4-5.4c4.2-3,4.1-4.7,4.4-7.5s1-6.7,6.7-14.1
		c2.7-6.1,0.4-14.3-0.2-20.6c-0.4-4.1-0.3-9.9-1.5-13.6s-4-5.2-10.3-0.8c-1.2,1.2-1.6,2.8-1.8,4.5c-0.2,1.7-0.1,3.5,0,5.2
		c0.6,3.1-0.9,6.3-2.9,7.9s-4.7,1.4-6.5-2.1C2129.2,1986.6,2127.6,1984.7,2125.4,1987.6z M2291.5,2037.6
		c-6.7-9.8-12.8,11.8-11.5,14.6c3,1.2,5.9-1,8.8-0.9c0.9,1,3.5,1.3,5.4,0.9s3.2-1.4,1.2-3.1c-3-0.8-3.4-2.8-3.4-5
		C2292.2,2042,2292.7,2039.5,2291.5,2037.6z M847.2,2624.4c-4.1,0.2-7.8,7.3-8,10.8c0.4,2.3,1.9,3,3.3,3.8c1.4,0.9,2.7,2,2.7,5.3
		c6.3,3.8,22.1-2.7,11.5-10.8C854.1,2630.5,852.2,2624.2,847.2,2624.4z M963,2481.2c-3.5-2-12.2,3.9-15.1,5.1
		c-6.9,2.4,1.3,19.5,4.4,21.7c4.3,3.2,8.7,3.1,12.3,1.1s6.4-6.1,7.4-10.7c1.6-5.7,5.4-12.8,2.1-18.7c-7.6-5.6-5.6,7.7-5.8,10.8
		C965,2488.4,966,2483.2,963,2481.2z M989.4,2457.5c0.6,1.1,0.9,2.4,1,3.6c1.8-0.4,6.1,0.1,10,0.3c3.9,0.1,7.4-0.2,7.6-2.2
		c-0.8-4.5,3-26.2-5.8-26.3c-3.2,0.2-6,0.4-8.6-0.1s-4.9-1.6-7.2-4c-4-2.2-3.5,1.7-2.1,7s3.4,11.9,2.5,15.3
		C986.8,2453.4,986.9,2456.7,989.4,2457.5z M946.5,2393.7c-2.3-3.4-5.7-2.5-9.3-0.3s-7.1,5.4-9.5,6.5c-0.7,3.6,3.8,8.8,7.2,9.4
		c2.6,0.1,4.5-2.4,7-2.8C949.3,2407,948.3,2398,946.5,2393.7z M1136.8,2888.4c1.6,7-8.6,6.4-19.8,5.9c-11.2-0.5-23.3-1-25.5,6.4
		c-1.9,20.1-28.8,21-38.8,7.2c-2.3-3.8-5.2-6.3-9.9-5.8c-3,0-7.9-2.4-12.3-5.4c-4.3-3.1-8-6.9-8.5-9.9c1-5.3,7.4-11.7,11.4-14.9
		c9.1,1.5,14.2,11.4,21.9,15.5c8.6,5.3,21.2,5.8,26.9,14.9c4.9-25-27.3-31.5-41.3-43.2c-1.5-1.3-3.2-2.8-5-3.7
		c-2.9-1.8-6.4-1.1-8.3,1.8c-0.8,1-1.4,2.2-2.2,3.2c-5.2,7-17.2,7.5-22.9,0.8c3.7,5-3.3,8.8-7.5,7.8c-11.7-0.8-21.2-10.2-25.9-20.4
		c0.1,1.8,0.2,3.7,0.1,5.5c-6.6,2.2-13.6,3.5-20.5,3.9c-7,0.4-14-0.2-20.8-1.7c0,3.7,0,7.5,0,11.2c10,0.6,18.3,3.6,19.1,14.8
		c2.2,10.9,13.5,23.4,5.1,34.5c-11.5,8.7-21.1-7.7-28.3-13.5c-4.7-4.6-10.7-4.4-16.7-4.2c-6,0.2-12,0.6-16.6-3.5
		c-3.9-4.6-0.9-9.8,4.1-11.4c3.3-3.2,0.2-7-2.8-10.9c-3-3.8-5.9-7.6-2.3-10.8c-1.2-2-3.2-1.4-5.3-1.3c-2,0.1-4.1-0.3-5.5-4.2
		c-1.6-2.8-5-4.1-7.5-5.6c-2.6-1.5-4.4-3.4-2.7-7.4c1.6-3.9,5.2-4.6,9.1-4.1c3.9,0.6,8.1,2.4,11,3.6c9.2,2,11.7,0.1,10.9-3.2
		s-5-7.9-9.3-11.3c-2.5-4.6-5.6-6.1-8.7-5.5c-3.1,0.6-6,3.3-8.2,7.2c-1.2,1-4,2.5-5.8,4.1s-2.6,3.4,0.3,4.8c-4.7,8.4-7,10.1-9,10.5
		c-1.9,0.4-3.5-0.5-6.5,2.8c-0.9,2.7,2.3,5.9,3.2,8.1c1.2,8.9-4.1,11.4-11,12.2s-15.3,0-20.2,2.3c-9,5.5-14.3,15-19.4,23.8
		c-6.1,8.6-20.4,12.6-30.4,10.5c-13.7,0.9-22.4,1.6-30.9,0.5c-8.5-1.1-17-3.9-30.1-10.2c-0.8,1.7-1.7,3.5-2.5,5.2
		c-3.9-8.8-16.2-1.4-22.4-5.5c-5.7-4.5-8.8-10.6-10.2-17.3c-1.4-6.7-1.1-13.8,0-20.4c-21.5-15.6-50.6-27.2-77.5-26.1
		c-3.8,0.3-7.6,0.9-11.5,1.4c-23.9,3.8-44-12.9-67.2-24.3c-19-9.7-38.2-16.3-56.8-5.9c-21.2,16.3-14.7-15.1-46.2-1.6
		c-10,4.4-16.6,10.1-28,8.7c-9.5-1.2-20.5,1.6-28.9-4.7c-2.8-2.1-5-5.2-7.4-7.8c-2.4-2.7-4.9-5-8.4-5.7c-4.9-0.1-9.8,0.2-14.6-0.1
		s-9.7-0.9-14.3-2.8c2.6-6.5,4.4-13.6,6.4-20.7c2-7.1,4.3-14,7.8-20c4-3.3,3.9-8,2.1-12.5c-5.3-18-10.4-37-10.2-55.9
		c17.9-27.4,28.3-57.9,32.2-90.6c8.2-68.4-44.1-113.8-11.4-188.9c2-3.5,3.1-7.2,3-10.9c0-3.7-1.1-7.3-3.4-10.8
		c-4.1-8.7-6-18.2-7.1-27.8c-2.2-24.3-4.6-55.9-22.6-68.3c-9.7-6.9-23.1-8.9-42.3-9.4c-10.3-2.2-18.6-8.2-26-15.8
		c-7.4-7.5-13.8-16.6-20.2-25c-20.4-26.6-45.9-49.3-74.8-66.3c0.8,2.2-0.4,3.9-2.4,5.4c-1.9,1.5-4.5,2.9-6.3,4.5
		c-11.5,12.4,15,42.9,18.2,54c5.8,4.5-0.8,10.4-6.1,9.9c-3.7,0.2-6.9,3.2-10.6,3c-19-47.1-71.4-80.4-121.7-80.9
		c8.9-34.1,28-64.3,37.6-98.1c1.6-12.6,4-25,7.2-37.2c3.2-12.2,7.1-24.2,11.6-36.2c14.1-46.9,19-74.7,4.9-122.5
		c-13.3-49.6,6.2-104.3-17.8-151.8c-2.5-6-3.5-12.2-3.7-18.6c-0.2-6.4,0.4-12.8,0.9-19.2c4.2-38.6,4.7-78,12.6-116.2
		c4.8-20.2,13.3-39.5,17.1-59.9c3.7-60.5-5.9-122.1,4.5-182.3c1.6-9.3,2.8-16.5,2-26c-1-11.5,3.7-22,5.7-33.1
		c2.4-14,0.7-28.3-0.8-42.5c-1.5-14.3-2.8-28.6,0.5-42.7c-1.2,1-2.6,1.7-4,0.6c0.1-25.8,20.7-45.4,26.2-69.8
		c5.8-14.5,8.9-35.1,14.6-53.7s13.9-35.2,30-41.8c1.6,5.8,3.1,11.7,4.4,17.6c1.4,5.9,2.6,11.8,3.6,17.7c0,2.3-0.6,4.6-1.1,6.8
		c-0.5,2.3-1,4.5-0.8,6.8c1.4,6,3.4,9.4,4.1,12.9c0.7,3.4,0.2,6.8-3.3,12.8c-0.8,5.3,4.2,9,6.2,13.4c1.9,4.2,1.8,9.5,2.3,14.3
		s1.4,9,5.6,11c3.7,1.3,8.1,1.4,11,2.6c2.9,1.1,4.4,3.3,2.4,8.5c-2.2,9.6,8.4,19.9,4.3,29.4c3.6-10.9,16.5-27.1,29.3-17
		c38.7-21.8,71.6,47.8,94.7,36.5c6.2-9,2.1-23.6,12.2-30.5c-23.7,0.3-29.7-25.3-28.9-43.9c-1.8-8.9-8.6-14.9-15.9-20.7
		s-15-11.6-18.5-19.9c-1.5-5.8-5.9-9.6-11.2-12.2c-5.3-2.6-11.5-4.1-16.6-5.3c-8.2-1.1-9.2-3.8-9.8-7.4c-0.6-3.6-0.8-7.9-7.6-12.4
		c-3.9-8-4.2-11.7-11.5-17.6c-3.1-4.1-3-9.8-3.1-15.3c-0.1-5.5-0.3-10.8-4.4-14.1c-1.1-0.1-2.2,0.1-3.3,0.4c-1,0.3-2,0.9-2.9,1.6
		c0.6,1.1,1.6,1.9,2.7,2.3c1.1,0.4,2.4,0.5,3.5,0.1c-0.7,12.9-7.5,16.3-14.4,19.6c-6.9,3.3-13.9,6.4-15,18.7c-1.2,1-2.6,0.9-3.9,0.3
		c-5.4-2.7-2.9-9.3-3.5-14c-1.6-5-5.4-10.9-6.3-16.2c-3.7-24,3.5-46.6,9.7-69.4c10.7-52.4,41-98.4,64.4-145.7
		c4.9-7.2,9.2-9.2,13.5-10.7c4.2-1.4,8.6-2.2,12.1-6.6c7.2-11.2,15.1-22.3,23.1-33.4c7.7-10.9,16.1-22,22.7-32.7
		c-0.6,0-1.2-0.1-1.7-0.5c0,0-0.1-0.1-0.1-0.1c-0.8-5.2,8.2-3.5,10.7-5.2c23-8.3,35.4-31.6,49.6-50c6.9-15.1,9.5-24.6,15-28.8
		c5.4-4.3,14.4-3.2,32.6,2.4c7.5,2.2,14.3,5.7,21,9.5c6.8,3.8,13.4,8.2,20.6,11.2c21.9,6.2,44.7,3.3,65.5-5.4
		c20.8-8.6,39.4-23,53.7-39.4c23.1-18.3,61,3.1,83.5,11c24.6,8.8,51.6,10.8,77.2,6c17.1-3.4,33.3-11.8,50-15.5
		c30.6,0.1,62.6-20.7,90.3-47.6c50.6-49.2,73-99.7,105.2-154.5c16.2-28.9,32.3-59.7,43.9-92.3c3-7.3,6.3-14.4,11.3-19.8
		c31.8-27.8,54.9-63,79.4-97.2c9.8-17.7,18-20.4,36.9-12.6c12.2,1.7,24.5,1.9,36.8,1.8c12.3-0.1,24.6-0.5,36.9,0
		c7.9-0.1,15.7-1.7,23.3-4c7.6-2.3,15-5.3,22.2-8.3c7.4-3,15.7-5.5,22-10.7c49.1-36.6,93.8-85.1,147.7-114.7
		c18-10,38.1-18.4,59.2-16.5c5.5,0.5,8.1,3,8.1,6.1c0.1,3.2-3.3,7.7-8.1,10.2c-65.1,38-125.7,92.5-110.7,176.3
		c7.7,38.9,35.2,69.1,56.9,100.7c1.5,2,3.2,4.4,4.1,6.8c0.3,0.8,0.5,1.7,0.5,2.5c0,1-0.1,2-0.6,2.9c-0.4,0.8-1,1.8-1.7,2.1
		c-17.7,12.3-21.7,43-20.1,74.7c1.7,32,8.8,64.6,13.8,83.6c4.1,14,2.3,23.9,0.6,33.7c-1.1,6.3-2.2,12.5-1.7,19.7
		c0.2,2.7,0.6,5.4,1.3,8.4c0.1,1.4,2,4,0,4.2c-74.2,27.3-75,103.1-100.6,165.8c-3,12.8-5.5,26.1-13.4,37c-2.7,4.3-4.5,9-5.9,13.9
		c-1.4,4.8-2.5,9.8-3.8,14.7c-0.2,1-0.7,2.1-1.4,2.9c-0.7,0.8-1.8,1.2-3,0.6c-2.7-1.3-3.5-4-4.7-6.1c-0.8-1.4-1.7-2.7-3.5-3.1
		c-0.9-0.3-2.1-0.1-3.4-0.1c-2.9-1.2-4.4-2.9-6-3.6c-1.5-0.8-3.4,0-6.6,2.8c-4,2.1-8.6,2.3-13.3,2.1c-4.7-0.3-9.4-1-13.8-0.8
		c-8.2,0.2-16.1-2.9-21.3-9.4c-19.6-25.8-42.1-50.2-70.8-66c-2.9-1.4-6-3.2-8.5-5.5c-1.6-1.5-2.9-3.3-3.6-5.3
		c-0.5-1-0.3-2.4-0.7-3.3c-4.6-2.2-4.4-8.8-7.9-11.9c-6.5-5.5-22.3-2.4-26.8,4.3c-2.8,3.1-10.3,6.2-9.6,11.2
		c4.7,11.5-7.3,14.7-16.2,13.3c-2.8,0-5.2-1-7.3-2.5c-2.1-1.5-3.9-3.4-5.8-5.3c-10.7-7.6-23-5.7-26.8-20.8
		c-3.2-5.6-9.9-7.8-15.5-10.4c-6.1-2.8-11.8-6.5-16.9-10.9c-5.1-4.4-9.5-9.6-13.1-15.2c-0.8-1.1-1.6-2.4-2.6-3.3
		c-0.7-0.6-1.4-1-2.2-1.2c-0.3-0.1-0.6-0.1-0.9-0.1c-0.2,0-0.5-0.1-0.4,0.2c0,6,2.4,10,5.8,13.3c3.3,3.4,7.8,5.7,11.6,8.9
		c2.4,6.6,7.8,9.3,13.8,11.2c6.1,2,12.6,3.3,17.7,7.3c3.5,2,3.5,5.8,4.2,9.3c0.5,2.3,1.3,4.5,3.5,6.1c1.1,0.9,3,1.3,5,2
		c3.9,6.7-6.6,6.6-9.6,9.1c-0.8,0.7-1.5,1.6-2.3,2.4c-0.4,0.4-0.9,0.8-1.4,1.1c-0.5,0.1-0.6,0.5-1.5,0.2c-21.7-8-11.1-7.5-12.2-19.1
		c-2-3.3-6.7-2.4-10.8-2.3c-2.9,0.1-5.5-0.2-6.5-2.7c-0.3-0.7-0.4-1.5-0.4-2.5c0-0.4,0-0.8,0-1.2c0-0.2,0.1-0.5-0.1-0.4
		c-2-0.1-3.8,0.7-5.4,1.9c-1.6,1.2-3.1,2.8-4.6,4.1c-11.3,10.5-29.2,13-43,5.8c-4.8-2.3-2.2-4.9-0.8-8.5c0.1-2.5-2.1-3.5-4.3-4.6
		c-2.2-1.1-4.6-2-4.7-4.4c0-2,1.4-3.2,3-4.2c1.6-1.1,3.6-1.8,4.4-3.4c2.4-8.1-7.2-3.7-18,1.6c-10.8,5.2-24,12.4-27.7,8.8
		c0.1-0.5,0.2-1,0.3-1.4c0.1-0.4,0.5-1.3,0.1-1.2c-4.5,1.8-10,5.9-11.6,10c0.7,0.1,1.4,0.2,2.1,0.2c0.5,0.1,1,0.1,1.5,0.2
		c0.1,0.1,0.5-0.1,0.4,0.2c-1.8,3.8,0.6,8.8,4.7,4.8c3.3-3.5,5.1-14.3,12.2-10.9c3.2,2.5,1,7.8,2.5,11.2c2.1,5.5,10.7,5.1,13.9,9.2
		c-1.9,7.4-8,8.4-13.8,9.3c-4.3,0.7-8.4,1.4-10.1,4.8c-0.4,0.7-0.6,1.6-0.7,2.5c-0.1,0.4,0.1,1.3-0.3,1.5c-12.9,5-26.6-4.3-39.3-5.2
		c-30.3-0.7-60.5,2.1-87.7,16.4c-25,3-42.9,20.5-61.2,35.6c-30.5,8.9-68.9-56.5-99.7-39.3c-5.1,2.9-8.9,7.7-13.3,13.4
		c-9.5,6.5-12.1,1-15.4-7.5c-6.2-6.2-18.9,1.5-22.8,7c-1.8,4.8-5,8.1-10.6,6.4c-8.8-1.1-14.7,0.2-18.9,3.8
		c-4.2,3.6-6.6,9.6-8.6,17.4c-1.9,3.7-8.4,7.5-11.5,3.4c-0.3-4.5,0.1-9.3-0.4-13.6c-9.1-5.2-25.4,2.9-32-6.8
		c-2.4-3.2-3.3-11.5-7.9-11.3c-12.1,13.9,25,24.5,20.5,35.6c-7,6.7-24.5,5.4-32,11.6c-3.4,2.7-9.1,7.7-14.5,10.2
		c-5.6,2.6-10.3,2.1-12.6-4.7c-6.9,0.4-34.8-10.1-39.4-2.1c-3.5,4.3-10,8.3-6.4,14.8c1.2,4.2,0.5,8.9-1.5,12.7
		c-1.3,2.5-3.2,4.7-5.5,6.2c-0.8,0.6-1.7,1.1-2.7,1.5c-0.4,0.2-0.7,0.3-1.1,0.4c-0.2,0.1-0.4,0.1-0.3,0.3c1.8,5-1.9,10-4.9,15
		c-3.1,4.7-5.4,10.6-1.2,14.9c0.3-2.6,2.2-4,4.4-4.6c2.3-0.6,4.8-0.5,7-0.2c9.5,0.7,18.5,0.2,28-2.2c20.6-7,16.5,13.4,25.2,1.6
		c7.9-4.7,18-6.4,26.3-9.7c10.8-3,19.6-42.8,29.3-49c3.7-2.7,8.3-3.1,13-3.2c12.7,0.1,15.9-2,24.8-10.6c3.3-2.9,7.4-6,11.5-5.3
		c-0.1,4.4-4.6,6.3-7.8,8.9c-9.4,8.4-9.6,15.7-8,22.7c1.6,6.8,5.4,13.2,3,19.2c-13,16.7-18.7,34.7-17,56.1c0.9,5.3-1.5,8.8-4.1,9.6
		c-2.5,0.9-5.4-1.4-4.9-6.8c1.4-3.8,3.2-7.8,3.1-10.8c0-3.1-2.3-5-8.3-5.2c-1.4-0.5-2.4-1.7-3.3-2.9c-1.7-2.6-3.1-5.8-6.5-6.3
		c-1.5-0.3-3.1,0.2-3.4,1.6c0.7,3.2,0.8,7.4-0.3,10.9c-0.8,2.2-2,4.1-4,5.1c-0.7,0.3-1.4,0.6-2.3,0.7c-0.4,0.2-1.2-0.1-1.4,0.3
		c-0.6,2.9,0.8,5.4,2.5,7.9c1.7,2.5,3.8,4.9,4.8,7.8c3.1,8.7-4.1,18.1-0.3,26.7c1.5,5.2,7.2,11.7,12.4,18c5,6.2,9.6,11.8,8,15.3
		c-1.8,2.5-1.5,4.6-1,6.6c0.4,1.9,1,3.8-0.7,5c-6.9,2.3-15.3,0.5-21.9,3.4c-2.3,2.2-4,7.1-3.9,11.5c0,3.3,1.1,6.4,3.5,7.8
		c0.5,0.3,1.1,0.5,1.7,0.7c0.3,0.2,1-0.1,0.9,0.4c0.1,1.4-0.1,2.9-0.4,4.3c-0.4,1.3-0.7,2.9-1.6,3.9c-4.9,0.2-7.6-5.4-10.1-7.6
		c-1.7-1.6-3.4-1.7-5.8,2.2c-0.5,0.9-1.1,1.9-1.7,3.3c-0.6,1.5-1.9,3.8-2,5.4c4.6,0.5,5.8,4.5,4.1,7.6c-1.1,1.9-3.3,3.7-6.5,4.4
		c-1,0.2-2.1,0.3-3.2,0.3c-0.9,0-1.9-0.1-2.9-0.2c-0.4-0.1-0.7-0.1-1.1-0.2c-0.2-0.1-0.6-0.1-0.4,0.1c4.7,9.4-0.5,22.5-10.7,25.8
		c-3.5,1.1-5.7,2.8-6,4.5c-0.3,1.7,1.5,3.3,5.4,4.1c1,0.4,1.8,1.2,2.2,2.1c0.5,1.1,0.3,1.9-0.8,2.7c-13.9,12.4-26.1,13-36.5,12.9
		c-10.1-0.2-17.8-0.7-22,8.7c-3.5,2.9-12.9-2.2-19.6-8.8c-6.8-6.7-10.5-14.1-3.6-17.2c-0.1-1.7-1-3.2-2.2-4.4
		c-1.2-1.3-2.7-2.3-4.2-3.3c-3.8-2.4-5.2-5.9-4.3-8.4c1.9-5,8.7-3.4,13.1-0.5c6.6,3.6,3.2,1.6,5-3.3c0.3-1,0.8-2.1,1.4-3
		c0.2-0.4,0.5-0.8,0.8-1.1c0.1-0.2,0.3-0.3,0-0.4c-1-0.5-1.9-1-2.9-1.6c-0.9-0.4-1.9-1.4-2.8-1.4c-1.9,1.3-3.9,2.5-6,3.5
		c-2.1,0.9-4.3,1.4-6.6,1.2c-2.3-0.2-4.5-1.6-5.8-3.5c-0.8-1.1-1.3-2.5-1.3-3.8c0-0.5,0.1-1,0.3-1.5c0-0.2,0.5-0.8,0.1-0.6
		c-1.3,0.2-2.6,0.4-3.9,0.7c-0.9,0.1-1.8,0.3-2.6,0.4c-0.3,0.2-1.3-0.2-0.9,0.5c5.6,11.8,2.2,19.5-2.6,22
		c-4.8,2.5-10.8-0.5-10.6-9.3c-0.8-1.6-3-2.8-4.8-4.1c-1.8-1.3-3.1-2.9-2-5.1c1.4-2,4.3-1.3,6.4-0.9c2,0.4,3.8-0.3,4.6-1.4
		c0.8-1.1,0.5-2.6-1.6-3.9c-11.7-9.3-14.8-9.3-28.9-6.5c-9.5-6.3,1.7-18,7.8-21.7c6.5-4.5,9.9-7.9,11.4-12c1.5-4.1,0.9-9-0.3-16.4
		c0.2-3.5,1.5-6.3,3.7-7.7c2.1-1.5,5-1.3,8,0.6c6.5,2.2,14.4-6.2,20.6-2c3.5,3.3,5.7,5.1,10.5,2.4c10.5-4.4,24.9-12.1,25-25.1
		c-8.7-2.7-22.9,5.4-27-6.4c-0.3-1.2-0.3-2.5,0.1-3.6c0.3-0.5,0.5-1.5,1.2-1.6c2.7,0.1,5.4,0.2,8.1,0.4c1.7,0.1,3.4,0.2,5.2,0.2
		c0.8-0.1,2.2,0.4,2.7-0.1c0.6-2.6,0-5.4-1.4-7.7c-0.9-1.5-2.2-2.7-3.7-3.6c-0.5-0.3-1.1-0.6-1.7-0.8c-0.3-0.2-0.9,0-0.8-0.5
		c2.1-7.5,6.2-13.2,8.8-19.2c2.6-6,4-12.7,0.7-21.8c-0.1,0-1.6-0.9-1.6-0.9c0,0-0.7-0.4-1.2-0.6c-0.2-0.1-0.3-0.2-0.4-0.2
		c0,0,0,0.1,0,0.1c0-0.2-0.1-0.2-0.1-0.2c1.4,4.4-2,7.3-4.2,9.9c-1.4,1.7-2.3,3.3-1,5c0.5,0.6,1.2,1.3,2.3,1.9
		c0.4,0.2,0.8,0.5,1.3,0.8c0.3,0.2,0.7,0.3,0.5,0.5c-3,4.5-7.6,8.6-11.1,12.7c-4.7,5.4-8.5,12-12.7,18.2c-4.2,6-8.7,12.2-14.9,15.5
		c-3.1-0.4-6.3-1.2-9.5-1.5c-3.1-0.3-6.3-0.2-9.3,1.4c-0.8,0.4-0.7,1.4-0.3,2.2c4.5,6.8-1.8,10.3-9.3,12c-6.3,1.5-13,2.3-16.1,5.6
		c-8.3,7-9.8,13.1-8,19.2c1.8,6.1,6.9,11.9,11.7,19c2.1,5.4-0.8,7.7-4.2,10.4c-3.4,2.9-7.4,6.1-7.6,14.2c0.4,8.7-0.7,11.1-2.5,12.4
		c-1,0.8-2.2,1.1-3.3,2.2c-0.5,0.5-0.9,1.1-1.3,1.9c-0.1,0.4-1,1.5,0.2,1.1c23.1-5.1,27.2-1.6,27.8,3.2c0.5,4.7-2.1,10.2,6.9,8.8
		c0.9,0,1.8,0.5,2.4,1.1c0.6,0.6,0.9,1.6,0.2,2.2c-2.5,1.7-5.9,2.3-9,3.4c-3.1,1.1-5.8,2.7-6.8,6.2c-0.7,2.5,0.2,5.8-1.9,7.6
		c-5,2.6-9.9-1.4-14.6-6.2c-4.8-4.9-9.3-10.6-14-12c-7.9-2.9-1.8-13.2-2.7-18.7c0.2-2.5-2.8-1.6-5.1,0.5c-2.5,2.2-4.8,5.8-3.9,9.2
		c0.8,5.6,5.9,9.7,6.1,15.6c-0.5,6.2-3.5,6.5-6.8,6.3c-3.2-0.2-6.7-1.1-7.3,2.6c1.2,4.9,8.6,7.9,12.6,7.9c-1.2-3.1,0.2-5.3,2.6-6.8
		c2.3-1.4,5.7-2.1,8.1-1.8c1.9,0.2,4.6-0.4,7-0.4c2.4,0,4.7,0.5,5.3,2.8c-0.1,1.6-1.4,2.9-2.2,4.3c-0.5,0.9-0.7,1.8-0.3,2.8
		c0.1,0.7,1,1.2,1.4,2c1.8,7.9,9.7,7.6,16,4.3c4.5-2.3,8.2-6,8.2-9.2c0-0.8-0.2-1.6-0.7-2.3c-0.2-0.3-0.4-0.5-0.7-0.8
		c-0.2-0.2-0.5-0.4-0.2-0.4c11.2-1.5,50.3-12.1,31.2,14.8c-4.8,7-9.8,30,5.8,27.8c1.6-0.7,2.7-2.2,3-3.9c0.3-1.6,0-3.5-1.5-4.4
		c-2.7-0.9-5.5-2.4-7.3-4.5c-0.7-0.8-1.2-1.7-1.6-2.7c-0.4-1-0.5-2.1-0.3-3.4c0.1-0.4,0.1-0.9,0.3-1.3c0.1-0.2,0.1-0.7,0.4-0.5
		c5.7,1.8,11.6,3.1,17.6,3.9c3.9,0.5,7.8,0.8,11.7,0.9c1.3,0,2.7,0,4,0c0.5,0,1,0,1.6,0c0.2,0,0.5-0.1,0.4,0.2
		c-0.5,2.3-1.7,4.4-3.3,6c-1.6,1.7-3.8,2.6-5.9,3.3c-0.9,2.3,0.9,3,2.2,4.3c1.5,1.4,2.4,4,0.6,9.4c-0.6,5.9,7.7,11.9,5.3,17.5
		c-10.6-1.2-20.4-8.2-24.9-17.9c2.8,12.5,0,25.7-4.3,37.6c-5.5,0.1-11,0.1-16.5,0.2s-11,0.1-16.5,0.2c0.6,9.9,14.5,9.5,12.1,16.7
		c1.6-0.4,3.2-0.3,4.8,0.3c3,8,4,22.9,7.5,34.9c3.5,12.1,9.4,21.3,22.2,18c-10.6-23.6-4-41.6,4.9-50.3c8.9-8.8,20.1-8.3,18.6,4.8
		c-18.1,11.9-29.1,30.6-21.4,52.4c-8.4-0.4-22.7,3.6-19.9,15c3.2,0.2,6.4,0.3,9.5,0.5c-2,12.1,4.6,19.9,14,24.3
		c9.4,4.5,21.7,5.6,31.2,4.4c17-4,17.1-18.7,16.3-33.9c-0.8-15.2-2.4-30.8,11.1-36.5c7.8-9.3,3-16.1-4.3-22.5
		c-7.3-6.4-17.1-12.2-19.2-19.7c-1-3.4-0.8-7.1-1.8-10.5c-2.4-7.6-15.7-21.4-3.5-27.8c2-0.6,4-0.2,5.9,0.5
		c22.3,10.7,35.2-4.9,42.7-24c7.1-16.8,13-36,29-41.3c2.7-1.5,5.1,0.3,7.3,2c2.2,1.7,4.1,3.5,5.8,1.8c0.8-2.6,2.9-4.8,5.5-5.6
		c3.7,3.6,11.1,1.1,11.9-3.9c1.2,7.7,7.1,9.3,11.7,7.1s8.1-8.4,4.2-16.2c-4.5-0.3-9,2.7-10.5,7c-0.7-1.6-2.3-3.1-3.9-3.8
		c-1.5-0.7-3-0.6-3.2,1.2c-0.5-1.2-1-2.5-1.6-3.7s-1-2.5-1.6-3.7c-2.9,2-6.2,3.5-9.6,4.5s-7,1.4-10.5,1.3c-0.7-4.8,1.5-9.9,5.5-12.7
		c7.2-5.2,6.8-17.7,10.6-24.9c3.4-3.7,2.6-9.9,2.6-14.7s0.8-8.4,7.3-7c11.6,1.2,20-7.9,28.4-16.5c13.7-14.4,24.2-20.7,41-7.8
		c3.9,2.5,7.8,4.6,12.2,4.3c6.7-0.5,6.1-6.6,2.4-10.4c-5,1.3-11.7,5.6-15-1c-3.2-4.1-5.8-8.5-8-13.1c-2.2-4.6-4-9.4-5.6-14.2
		c-1.3-1.9-3.4-2.7-5.6-3.5c-2.2-0.8-4.5-1.4-6.2-3c-0.3-5.8,10-9.6,21.4-12s24.2-3.4,28.9-3.7c1.7-0.3,3.3-0.2,4.8,0.2
		c1.5,0.4,3,1,4.4,2c2,1.3,4.2,1.7,6.4,1.9c2.2,0.2,4.5,0.2,6.7,0.6c3.7,2.1,1.8,4-1.1,6c-2.9,2.1-6.9,4.3-7.4,7.2
		c2.6,1.7,7.7-0.2,9.3,3.1c0.4,3.9-2.4,7.4-6.1,9.8c-3.7,2.4-8.4,3.7-11.9,3.4c-5.4-1-9.2-0.7-11.7,1.3c-2.5,2-3.7,5.7-3.8,11.3
		c4.7,1.4,9.7,0.8,14.6,0.7c4.9-0.1,9.6,0.3,13.6,3.8c2.1,2.1,7.6,5.3,12.5,8.6c4.9,3.3,9.3,6.7,9.1,9.2c-0.7,1.6-2.9,1.5-4.2,2.5
		c-2.7,2.1-0.8,6.1,0.5,8.5c6.2,11.5,6.7,25.5,13.4,36.8c5.1,6.8,14.1,14.2,18.1,21.1c3.9,6.9,2.9,13.3-12.1,18
		c-10.9,5.5-13.4,13.5-15.4,19.6c-2,6.1-3.4,10.2-12.3,7.9c-2.9,0.9-3.1,4.8-2.2,7.2c11.3,21.1-18.7,11.8-28.7,38.5
		c-2,5-5.2,14.5-6.7,23.6c-1.5,9.2-1.3,18.1,3.2,21.9c5.2,2.9,6.1,6.1,6.5,9c0.4,2.9,0.3,5.7,3.4,7.9c5,2,8.3-3.7,9.4-7.6
		c6.9-14.7,5.8-20.8,4.8-24.9c-1.1-4.1-2.1-6.3,5-13.1c7.6-8.1,8.4,11.8,17.2,6.6c5.6-3.6,10.2-9.9,5.9-13.9
		c-2.5-2.4-7.5-3.1-12.4-1.2c-1.2-4.2,1.5-8.5,4.7-13.5s6.6-10.9,6.8-18.1c0.2-2.3,0.3-4.7,1.3-6.9c2.1-3.3,4.5-3.7,6.3-2.5
		c1.8,1.2,2.8,4.1,2.3,7.3c0.1,3.3-0.6,7-0.9,10.6c-1.1,11.5,3.9,14.4,15.7,12.7c5.8-0.9,11.8-2.6,15.9-2.8c2.6,2.4,5.8,3.3,9.3,3.6
		c3.5,0.3,7.2,0,10.7,0.1c11.7-0.1,18.4,5.5,20,12.7c1.6,7.2-2,15.8-10.7,21.7c-2.3,1.5-4.8,3.6-6.4,5.9c-5.7,8.2,4.4,10.6,2.2,18.9
		c-1,13.3,7.5,26.7,19.9,31.5c-0.3,1.8-0.4,3.6-0.4,5.5c0,1.8,0.1,3.6,0.4,5.5c1.4-0.4,2.2-1.6,2.7-2.9c0.5-1.4,0.9-3,1.4-4.3
		c2.3-5.1,6.8-6.9,11.7-6.9c4.9,0,10.3,1.7,14.3,3.8c-0.6-10,2.3-20.2,8.1-28.4c-7-5.9-12.5,5.2-17,8.4c-4.5,2.4-11.2,4.2-16.6,3.5
		c-5.4-0.7-9.6-3.9-9.1-11.2c-1.7-16,0-31.1,8.3-45.1c11.6-15.5,9.8-115.7-34.6-75.6c-3.5,3.5-36.4,21.1-38,11.6
		c-0.8-10.9,7.1-21.3,16.4-31.2c9.4-10,20.3-19.6,25.6-28.8c1.1-4.1,1.2-8.3,1.1-12.6c-0.1-4.3-0.6-8.6-0.5-12.8
		c0.6-10.1-24.7-6-29.5-7.2c5.5-31.8-16-42.7,3.5-56.5c2.2-7.6,6.1-15.8,8.5-24.1c2.4-8.3,3.2-16.6-0.9-24.3
		c-4.1-6.8-12.9-10.5-15.6-18.3c-2.5-7.5,1.8-15.2,5.7-21.6c7-10.5,14.8-25.5,24.4-37.6s20.9-21.3,35.2-20.3c4.5-2.2,6-6.8,7.3-11.9
		c1.3-5,2.3-10.4,5.7-14.1c8.1-7.7,27.6-7.6,37.7-10.5c38.5-10.3,78.6-1.2,111.5,20.3c17,12.5-10.6,9.3-6,26.6
		c-11,1.8-12.8,6.6-11.1,12.3c1.8,5.7,7.1,12.4,10.4,17.8c3.2-1.3,2.8-5.7,2.9-10.4c-0.1-8.7,3.2-13.8,13.4-14.7
		c2.8-0.4,5.6-0.7,8-2c4.6-2.5,6.3-7.5,7.7-12.8c1.4-5.3,2.5-11,5.8-15.1c10.5-5.9,13.2-17,16.3-27c3-10,6.4-18.9,18.1-20.2
		c10.4,0.7,20.9-1.5,31.5-3.9c10.5-2.4,21-4.9,31.3-4.7c2.7,0.7,5,2.3,7.4,3.8c16.8,12.7,24.1-11.6,39.2-11.4
		c4.7,0.3,8.5,3.2,12.3,6.2c3.8,3,7.6,5.9,12.3,6.2c17.5,1.3,26.3-41.6,46.3-19.4c41.4,39.5,74.7,103.5,143,91
		c9.6-1.1,6.4,11.5,22.7,11.3c1.6,6.7-5.3,11.3-9.9,15c-13.2,10.2-21,24.4-25.3,39.9c-4.4,15.5-5.3,32.4-4.9,48.1
		c1,48.6,10.8,99.4,39.1,140c3.7,4.6,7,7.1,4.4,13.5c-7.4-0.3-14.7,6.8-22.2,4.5c-4.8-2.5-6.6-1.3-10.7,1.7
		c-6.4,3-11.6-0.1-16.5-4.3c-4.9-4.2-9.6-9.5-15.1-10.8c-18.1-3-21.3,18.4-29.4,19.4c-4.4-1-7.3-4.4-10.1-8s-5.2-7.7-8.6-10.1
		c-5-2.3-10.1,2.5-15.1,2.9c-8.7-1.6-12.6-0.1-14.6,3.5s-2.2,9.3-3.6,16c-6.7,2.9-11.7-4.7-17.6-7.7c-5.9-3-12.7-1.4-23.3,19.9
		c-12.3,0.3-17.6,2.6-21.5,6.4c-13.2,14.6-11.9,20.7-36.4,20.1c-18.1,0-36.1,2.7-53.4,7.9c-2.3,4.5,10.1,4.4,23.8,3.1
		c13.7-1.2,28.7-3.5,31.7-3.4c17.1-1.2,24.3-6.4,29.8-11.8c5.5-5.4,9.2-11,19.2-13.2c11.6,3,15.1-5.1,18.9-11.8
		c3.8-6.7,8.1-12,21.1-3.5c11.1,5.2,14.1,2,15.5-3.2c1.4-5.2,1.2-12.5,6.1-15.2c5.4-2,16.3-1.5,21.8-0.9c2.7,2.4,4.9,5.5,7.5,8.3
		c2.5,2.8,5.3,5.1,9.2,6c5.6,1.7,12.7-0.2,15.3-5.8c2.6-9.2,3.3-16.4,14.7-10.1c8,4.5,16,9,24,13.5c3.6,2.2,5.6,2.3,7.4,1.4
		c1.8-0.9,3.3-3,5.6-5.3c10.1-3.2,21.3-3.7,31.4-7.3c2.4,5.8,4.2,14.4,5.1,23.3c0.9,8.9,0.8,17.9-0.7,24.6c-0.1,3.6,0.1,7.3,0.1,11
		c0,3.7-0.1,7.3-0.6,10.9c-1.1,2.2-2,4.5-2.8,6.8c-0.7,2.3-1.2,4.7-1.4,7.2c-0.9,6.9-4.5,13.1-9.6,16.9c-5.2,3.8-11.9,5.3-19,2.8
		c0-2.2-1.7-3.7-3.8-4.4c-7.9-2.2-11,6.7-12.4,12.7c-2.1,7.5-4.6,10.1-8.1,11c-3.5,0.9-7.9,0-13.8,0.5c0.5,5.5-0.4,11.1-2.4,16.2
		c-2,5.1-5.2,9.8-9.3,13.5c-1.6,1.5-3.4,2.9-4.9,4.5s-2.6,3.4-2.9,5.5c2,8.4,4.3,17,5.5,25.6c1.2,8.6,1.2,17.4-1.3,26.1
		c-1.2,5.3-3.8,11.7-9.5,13.3c3.1,2.7,7.6,3.6,11.4,2.2c3.5,7.8,10.3,9.1,17.9,8.7c7.5-0.4,15.8-2.6,22.1-1.9c0.7-3.6-3.3-4.7-7.9-5
		c-4.7-0.3-10,0.4-12.2,0.5c-8.8,2.1-15.2-1.9-20.2-8.9c10.4-8.2,8.8-21.4,6.7-33.9s-4.8-24.4,3.5-29.9c5.1-1.7,8.2-5.1,10.4-9.2
		c2.2-4.1,3.4-8.9,4.8-13.4c5.7-14.3,16.2,0.5,16.5-16.5c0.3-2.8,0.6-5.9,1.4-8.8s2-5.6,4.2-7.6c4.5-0.5,9.1,2,13.5,2.6
		c6.2-1.3,8.4,1.8,9.4,6.2c1,4.4,0.9,10,2.4,13.6c1.6,3.7,4.4,6.8,5.7,10.6c5.3,18.6,21.7,32.1,34.4,45.6c5.9,3.8,12.7,5.7,19.5,7.4
		s13.7,3.4,19.8,6.6c27.1,3.7,39.1,0.4,50.2-4.3c11.2-4.7,21.5-10.6,45.4-12.3c11.9-0.9,27.4,2.8,38.9-2.1c22.1-12.7,29-4.1,50.8,2
		c16.4,8.8,7.4,34.8,23.6,43.8c15.2,7.9,38.1,29.9,45.6,45.4c1.4,6-2.9,8-7.4,10.8c-4.5,2.8-9.2,6.4-8.8,15.5
		c4.1,23.4-1.3,51.5-5.5,74.5c-4.7,15.9-17,24.4-26.8,36.9c-11.1,14.3-20.8,29.6-29,45.7c-1.1,3.1-3,5.4-5.4,7
		c-2.4,1.6-5.3,2.6-8.5,3c-20,5.5-28.5,28.1-30.7,46.9c-2.8,16.1,1.8,70.7-26.2,69.9c-2.5-0.7-4.4-2.4-6.1-4.4s-3-4.4-4.4-6.7
		c-4.2-9.8-14.7-18.2-23.7-26.2s-16.2-15.6-14-23.8c4,1,8.1,2.1,12.1,3.1c4,1,8.1,2.1,12.1,3.1c1.1-9.3,11.2-35.5-6.2-37.5
		c-15.1-3-22.6-1.5-28,3.5c-5.4,5-8.7,13.4-15.3,24c-8,9.2-26.6,15.9-17.9,30.9c1.1,2.1,2.5,4.1,3.7,6.2c3.8,6.8,5.1,14.7,6.1,22.4
		c4.1,16.7-0.8,46.3-24.4,43.4c0.7-1.1,0.1-1.9-0.9-2.7s-2.6-1.5-3.6-2.3c-8.6-14.4-11.4-32.4-15.5-48.5c7.8-0.1,15.7-0.2,23.5-0.3
		c4.4-8.8,4.7-19.6,0.8-28.6c-2.6,1.9-4.8,4.3-6.6,6.9c-1.8,2.7-3.2,5.6-4,8.7c-2-6-8.8-13.1-16.4-17.4c-7.6-4.4-16.2-6-21.8-1.4
		c3,19.9-18.4,20-30.9,13.5c7.4-40.8-25.3-10.9-16.5-44.6c5.4-0.4,10,4.4,15.3,4.4c5.1-0.1,8.3-3.5,11.3-7.3c4.3-5.5,8.8-13,16.6-11
		c2.3,0.6,4.2,2,4.8,4.2c-3.8,14.1,3.3,20,10,18c6.7-1.9,12.8-11.6,6.9-28.4c-4.7-0.9-9.8,0.1-13.9,2.7c5-7,11-13.6,16.7-20.3
		c5.7-6.7,11.1-13.6,15-21.2c0.6-4.3-2-7.5-5.4-8.6c-3.4-1.1-7.4-0.2-9.6,3.6c1.2-7.1,1.7-14.4,1.5-21.6c-4.4,6.5-8.7,6.5-12.7,5.2
		c-4.1-1.3-7.9-3.8-11.4-2.3c-9,11.5-20.3-3.4-26.1,7.1c-0.1,3.9,1.2,6.2,1.4,8.2c0.1,2-0.9,3.8-5.5,6.4c-4.8,3.5-6.3,9.1-7.6,15.1
		c-1.3,6-2.3,12.2-6,16.7c-18.2,15.6-30,6.3-33.9,35.2c-4,10-12.3,14-20,16.2c-9.6,2.8-22.3,3.6-14,12.1c1.8,1.8,3.9,3.6,4.5,5.9
		c-1.4,1.7-2.7,3.4-4.1,5.2c4.9,2.4,10.1,4,15.5,4.8c6.9,14.8-24.7,12.2-23.9,24.2c0,4.2,4.3,7.4,8,10.6c3.7,3.3,6.7,6.7,4,11.4
		c15.7,4.3,11.8,24.1,12.2,35.8c0.6,8.5,3.7,17.3,5.6,25.8c1.9,8.5,2.7,16.7-1.4,24.3c2.9-0.4,4.8,1.7,5.6,4.4
		c0.8,2.8,0.6,6.2-0.9,8.7s-3.5,4.7-5.4,7c-10.5,11.7,1.4,29.6-1.4,43.3c-10.2,20.4-9.8,34.1-8.4,42.4c1.4,8.3,3.8,11.2-2.5,9.9
		c-4.4-0.9-8,3.5-8.4,7.5c-0.9,8.3,7.3,16.4,3.9,24.7c-5.4,0.4-10.9-0.6-15.8-3c-3.9,6.1-0.8,12.4,1.4,18.5s3.3,12.2-4.7,17.6
		c-1.9,3.1,0.6,7.4-0.9,10.6c-6.6,1.9-12.8-1-19.2-4.3c-6.3-3.3-12.7-7.1-19.6-7.1c-0.4-1-0.7-2-1.1-3c-0.4-1-0.7-2-1.1-3
		c-9.7,3.4-20.2,2.8-30.6,2.3c-10.4-0.5-20.8-0.9-30.4,2.8c-2.7-3.3-1.6-6.3,0.7-8.9c2.3-2.6,5.9-4.9,8.2-6.6
		c2.4-2.2,4.4-5.4,6.5-7.9c2.2-2.5,4.6-4.4,7.8-4.1c1.5,0.1,2.8,0.7,4.1,1.4c1.3,0.7,2.6,1.5,4,1.9c4.2,0.9,6.5-0.9,6.6-2.9
		s-1.9-4.2-6.3-4.2c-7.8-0.8-13.6-0.7-18.9,0.8c-5.4,1.5-10.3,4.3-16.5,8.9c-15.1,16.5-87.2-20-87.1,11.3c2.6,4.5,9,3.4,13.3,4.7
		c3.2,0.9,5.9,2.9,8.6,4.9c2.7,2,5.4,3.9,8.6,4.6c12.5-1.2,17.9,0.4,22.5,2.5c4.6,2.1,8.5,4.8,18,5.7c2.5-0.5,6.3-1.1,9.4-0.7
		c3.1,0.4,5.5,1.9,5.2,5.8c4.3,2.4,9.9,2.5,14.3,0.2c2.4,6.7,6.6,12.4,8,17.5c1.4,5.1-0.1,9.6-9.3,13.8c-6.1,2.8-12,8.2-14.9,14.4
		c-2.9,6.2-2.8,13,3.2,18.6c2.4,1.9,5.8,3.4,8.4,5.1c7.8,4.9,3,8.8,1.2,15.4c-0.9,2.9-1.4,5.9-0.5,9.1c-12.6,1.6-25.4,2.1-38.1,1.5
		c0.3,17.6,34-4.2,25.9,31.1c-3.6,2.1-9.1,0.8-14.1,0.3c-5.1-0.5-9.6-0.1-11.2,5.4c-34.6,7.9-45-5.7-76.5,18.9
		c-6.7,3.8-14.3,3.2-20.5-1.2c-5-2.9-12-2.5-18.6-2.6s-12.8-0.9-16.5-6.1c-1.5-3,0.8-7.9,4.4-7.3c0.2-1.1-0.3-2-1-2.7
		c-0.7-0.8-1.8-1.4-2.7-1.9c-7.5-2.9-14.7-7.8-22.2-11.8c-19.8-10.4-22.2-6-51-4.8c-13.8,1-27.6,1.9-27.6,1.9
		c-2.3-0.2-3.8,1-4.3,2.6c-1.5,5.1,4.7,7.4,8.2,9.6c2.6,2,5.7,5.9,8.9,8.5c3.3,2.5,6.8,3.7,10.5,0.4c4.3-0.9,10.4-0.3,16-0.5
		c5.6-0.2,10.7-1.2,13.1-5.3c12.7-7.4,12.2,22.2,32.8,24.8c19.1,8.1,5.1,40.5,25.3,47.6c5.4,1.5,10.6-0.9,15.8-3.5
		c11.7-6.2,15.4-6.5,27.5-1.5c3.7,1.5,7.4,3.1,11.2,4.4c0.4,5.1-5.2,8-9.2,9.9c-5.1,2.4-10.1,5.1-14.8,8.2
		c-4.7,3.1-9.3,6.5-13.5,10.2c-2.6,1.8-3.3,3.6-3.4,5.6c0.3,8.2,0,8.3-7.6,12c-6.5,3.6-9.3,12.7-5.9,19.3c-6.2-1-12.4-1.9-18.6-2.9
		c-2.2,9.1-4.5,18.9-1.3,28c0.7,2,1.7,4,2.4,6.1s1.2,4.1,0.8,6.2c-3.4,0.1-6.8-0.3-10-1.2c-3.3-0.8-6.4-2.1-9.3-3.9
		c-5.1-3.5-10.1-6.8-14.7-7.5c-4.6-0.6-8.9,1.4-12.4,8.5c-10.1,10.8-33.1,1.6-44.8-0.1c1.1,4,3.2,12.1,4.2,16.1
		c-14.9,0.2-29.9,0.4-44.8,0.5c-3-0.3-5.5,0.9-6.5,2.6c-1,1.7-0.5,4,2.5,5.9c7.5,1.1,15.2,1,23,0.9c7.8-0.1,15.5-0.1,23.1,1.1
		c7.2-0.9,11.2-5.4,15.6-7.5c4.3-2.2,8.9-2,17.1,6.3c4.8,5.4,11.5,10.9,17.2,17s10.2,12.8,10.6,20.4c-0.5,2.7-2.4,4.3-4.9,5.5
		c-2.5,1.2-5.4,2.1-7.9,3.1c-6.5,2.7-12.2,9.7-18.4,15s-12.7,9-20.9,5.3c-2.5,8,0.1,17.3,6.3,22.9c3.2,3,3.4,10,5.2,13.7
		c6.2,9.8-1.4,16.8-7.5,24.1c-3.6,3.7,3.6,6.8,10.8,11.7c7.2,4.9,14.3,11.6,10.7,22.5c2.5,7.3,2.5,9.1,0.6,16.7
		c-1.3,12.4,13.7,21.6,13.2,33.8c-22.1-11.4-27.1-11.7-29.5-8.3c-2.4,3.5-2.2,10.8-13.7,14.7c-6.3-0.8-7.4,2.8-8.4,7
		s-1.8,9.2-7.5,11.2c-9.1,4.6-20.1,5.3-29.7,2c-1.2,4.1,4.5,5.9,10.9,6s13.4-1.5,14.9-4.2c3-4.3,5.2-3.6,9.9-4
		c2.2-0.8,2.5-3.1,2.8-5.6c0.3-9.1,4.7-8.5,11.6-7.7c3.1,0.2,5.8-0.5,7.7-6.3c4.2-8.5,17.4-10.5,23.9-3.7
		c4.3,7.4,11.9,9.2,19.2,12.4c10.3,6.1,9.6,20.4,2.1,28.2c3.1,8.8,0.3,7.6-5.5,13.2c-6,8.7,0.7,28.6-0.6,38.4
		c-12.3,1.3-18.2,5.9-22.6,10c-4.4,4.1-7.5,7.7-14.2,6.8c-5.8-3-5.6-8.8-7-13.7c-1.4-5-4.4-9.1-16.8-8.8c-4.8,0.6-10.3,4.4-13.6,7.9
		c-14.5,14.6-28.9,16.5-36,20.8s-7,11,7.7,35.3c-5,0-11.4,0.6-16.1-1.7c-2.4-1.1-4.8-3.3-7.6-2.7c-1.3,0.8-4.8,2.9-7.9,5.2
		s-5.5,4.8-4.9,6.4c6.8,3.5,11.4-7.7,16.9,2.9c0.5,0.7,1.3,1.4,2.2,1.7c0.8,0.4,1.7,0.4,2.5-0.1c1.6-1,1.5-4.8,4.1-4.6
		c1.5,0.6,1.5,2.1,2,3.4c0.4,1.3,1.1,2.4,3.9,2.2c13.9,0.9,16.5,17.5,20.6,27.5c1.3,3.3,2.8,6.9,1.9,10.5
		c-3.4,8.3-12.1,13.5-17.6,20.1c-3,3.7-7.3,5.4-12,4.9c-4.3,0.6-9.4-0.4-14.2-0.5c-4.8-0.2-9.3,0.4-12.5,4.1c-4.3,3.3-11,0.2-15.4,3
		c-7.7,6,0.4,16.5,8.5,14.1c6.8,9,14.4,11.8,22.4,11.2c7.9-0.6,16.2-4.6,24.4-9.2c4.3-1.2,10.5-2,15.4-4.1c4.9-2.1,8.4-5.4,7.2-11.7
		c3.5-0.3,7.3,0.4,10.8,1.7c3.6,1.3,6.9,3.2,9.6,5.5c1.9,10.9,4,14.1,12.1,21.7c20.5,22,34.8,27,44.9,28.4c10.1,1.4,16-0.7,19.7,7.1
		c2.2,8.9,5,18.5,7,28.2s3.5,19.5,3.1,28.6c-0.9,4.9,4.7,3.8,6.7,6.6c-3.4-13.9-5.6-28.1-8.4-42.1c-0.5-4-7-24,4.9-13.4
		c4,4.8,4.8,5.8,10.5,7.7c18.3,5.6,20.8,27.9,28.1,42.4c2.9-4.4,8.5-6.8,13.7-5.9c2.2-4.3-3-10.1-7.5-8.3
		c-13.3-18.4,5.4-12.1,4.9-20.5c-3.8-0.4-7.6-0.7-11.4-1.1c6.9-6.9-4.7-15.5-10.3-17.4c-5.1,0.7-10.5-0.5-14.2-3.4
		c-3.8-2.8-6-7.3-4.9-13.1c6.6,0.1,13-4.3,15.3-10.4c-25.1-0.3-66.1,11.5-81.4-17.4c1.3-5.4,8.5-3.1,12.2-4.4
		c2.9-1.1,4.7-3.9,7.5-5.2c8.8-4,18.9,10.9,27.6,4.2c-0.9,0.6-7.2-1.4-8.2-1.5c-4-0.7-14.4-1.3-5.7-6.8c-7.5,0.5-15.4-0.5-22.3,3.1
		c-2.2,1-7.4,0.3-11.9-1.4c-4.5-1.7-8.4-4.4-7.8-7.3c2.5-10.7,10.3-17.8,19.9-23.3c9.5-5.5,20.7-9.5,29.7-13.9
		c16.9-8.4,53.2,13.5,55.3,31.7c0-0.8,1.9,0,3.8,0.9c1.9,1,3.9,2.2,4.1,2.4c2.6,2.3,4.2,5.9,5.6,9c3.3,7.4,8.5,9.2,13.2,15.6
		c2.6,3.5,4.7,6,7.1,7.4c2.4,1.4,5.3,1.7,9.6,0.9c15.3-3.4,27.7,0,35.9,14.1c6,8.7,13.2,16.8,14.9,27.6c5.2,4.5,9.6,9.4,12.5,15.8
		c3.5,6.4,7,13,9.6,19.8c2.6,6.8,4.4,13.8,4.5,21.1C1119.4,2866.6,1135.2,2857.9,1136.8,2888.4z M908.9,2541.9
		c11.2,3.5,8.1-12.8,1.7-10.3c-2.8,0.1-3.5,4.7-4.7,6.5C905.1,2540.2,907.3,2541.4,908.9,2541.9z M863.9,2385.4
		c0,5.6,9.2,10.5,11.5,3.5c0.6-1.1-0.3-3.4-1.8-3.3C872.5,2384.3,859.8,2377.7,863.9,2385.4z M1383.6,1245.3c3,1.4,6.1,2.6,9.3,3.6
		C1389.8,1247.7,1386.7,1246.5,1383.6,1245.3z M110.4,1457.1c4.8,2.9,16-17.1,18.4-18.5c4.4-6.2,0.8-14.8-0.5-21.3
		c-3.4-4.9-10.7-4.2-15.5-6.3c-1-5.6-3.3-24.9,8.4-22.9c4.3,2.8,8.3,6.1,12.6,9c4.3,2.9,8.8,5.5,14,6.8c8.7,1.7,10.6,5.8,10.7,11.1
		c0.1,5.2-1.7,11.5-0.3,17.5c15.1-5.3,26.6-19.7,28.5-35.6c-9.3,6.2-11.9-10-16.2-13.9c-8.9-5.1-8-8.8-10.1-18
		c-3.3-10.2-15.3-15-19.9-24.4c-6.3-12.2,1.9-29.7-7.2-40.8c-4.6-5.5-13.4-7.9-15.7-15.2c-0.6-1.8-0.7-4.1-2.4-5.2
		c-12-6.1-6,53.6-7.9,55c-1.3,23.2-2.7,46.3-2.7,69.6C104.7,1414.4,98.7,1449.3,110.4,1457.1z M96.9,1547.8c1.9,0.7,4.4,0.7,6.3,1.2
		c1.1,0.3,2.4,1.3,3.6,0.8c4.2-4.8,8.5-11.2,8-17.9c-0.3-6.1-3.4-8.2-6.4-9.9c-3-1.7-5.8-3-5.6-7.4c3,0,5.9,0.3,8.8,0.8
		c0-3.2,0-6.3,0-9.5c-1.7,0-3.5-0.2-5.2-0.6c-1.8-8.6,2.8-16.8,2.6-25.3c-0.6-0.4-1.2,0.5-1.4,1c-2.7,7.4-4.9,15-6.6,22.7
		C103,1519,100.9,1532.9,96.9,1547.8z M303.8,1801.9c-21.2,1.8-42.7-3.2-63.7-3.1c-5.2,4.6-9.8,8.5-15,10.9
		c-5.2,2.4-11,3.2-18.4,1.8c6-11.8,6.7-23.3,3.7-34c-3-10.7-9.7-20.7-18.4-29.4c-4.4-6.2-6.5-13.3-7.7-20.8
		c-1.2-7.5-1.5-15.3-2.3-22.9c-6.9-44.3-14.1-57.4-25.3-64.2c-11.2-6.9-26.6-7.5-49.9-27.1c-1.3-1.7-3-3.6-4.8-4.8
		c-1.8-1.2-3.7-1.6-5.3-0.3c3,4.9,3,10.4,1.8,16c-1.2,5.6-3.5,11.4-5.4,16.8c-14.5,42.6,2.8,86.8,13.2,127.9c3,15.4-2.3,32.7,4,47.6
		c1.3,2.7,3.5,5.5,2.9,8.7c-3.7,6.3-3.5,10.5-2.5,14.7c4.5,15.8,3.6,15-4.9,30c-2.6,5.3-3.7,10.4,1.7,14.6
		c-0.2-10.5,4.8-16,9.3-19.8c4.4-3.8,8.3-5.9,5.7-9.3c-3.5-7.1-4.1-15.5-1.6-23c0.7-0.4,20.9-18.8,22.1-18.4
		c11.4,3.3,24.3,28.3,13.8,38.4c-4.1,3.2-7.9,6.4-10.1,10.2c-2.2,3.8-2.9,8.3-1,14c12.9-6,24.8-13.1,35.4-21.8
		c10.5-8.7,19.7-19,26.8-31.5c0.9-1.7,2.2-3.2,3.7-4.1c1.5-0.9,3.3-1.4,5.2-1.2c3.2-0.3,6.1-1.6,8.9-3.2c2.8-1.6,5.5-3.5,8.4-4.9
		C255.1,1798.8,283.7,1815.1,303.8,1801.9z M802.7,2576.6c-0.9-0.2-5.9-6.9-5.9-2.2c-0.6,2.8,0.7,4.8,2.5,6.4
		c1.9,1.6,4.3,2.8,6.2,4.1c0.1,0.1,0.3,0.2,0.5,0.2c0.2,0,0.3-0.1,0.4-0.3c0.8-1.7,0.4-3.2-0.4-4.6S803.9,2577.6,802.7,2576.6z
		 M761.5,2516.7c-4.2-7.7-9.3-9.6-17.5-11.4c-8.4-3.8-8.6,0.3-15.3,3.1c-2.4,0.8-4.8,0.7-7.5-1.6c-1.9-2.3-4.2-1.9-6.7-0.9
		s-5.1,2.5-7.6,2.3c0,1,0.1,2,0.1,3c7.9-6.3,10.5-6.1,12.4-4.5c1.9,1.5,3.2,4.3,8.6,3.3c4.1-0.9,9.3-9.3,13.3-2.9
		c0.7,1.4-0.5,3.9,0.6,5.1c0.7,0.7,1.6,0.9,2.6,0.9c4.5-0.3,6.6,2,7.6,6.1c0.8,2.7,1.3,5.6,3,7.4c2.9,1.8,3.4,4,3.7,6
		c0.3,2.1,0.4,4,2.4,5.2c3.7,1,4.8-2.6,6-6s2.3-6.7,6.3-4.9c1.2,1,1.3,2.7,1.5,4.1c0.6,3.8,4.5,4,4.9,0c0.4-1.4-0.5-4-0.8-6
		c-0.3-2,0.1-3.4,3.2-2.4c5.9,2.2,6.6-2.2,10.7-5.2c2.1-1.6,4.5-3,6.6-4.7c2.1-1.7,3.8-3.8,4.4-6.6c0.5-3-1.4-3.7-3.7-3.4
		s-5,1.8-6.2,3.4 M1191.5,2713.3c-6.8,1.3-8.4-0.7-10-7.1c-0.6-4.3-5.3-7.3-8.1-2.8c-2.9,8.5-3.5,16-0.7,20.9
		c2.8,4.9,8.9,7.3,19.1,5.6c4.8-2.7,10-6.3,13.9-10.1C1209.2,2709.9,1196.5,2711.8,1191.5,2713.3z M1238.6,2741.5
		c10.2,14.1,9-0.6,28.3,9.1c3.5,1.2,8.9,5.7,14.1,8.8c5.2,3.1,10.3,4.6,13.3-0.1c-1.7-0.1-3.1-1.4-3.8-2.9s-0.7-3.4,0.3-4.8
		c-3.2-0.7-6.9,0-10.2-0.2s-6.1-1.3-7.2-5.7c-2.1-2.6-5.9-2-9.8-1.8c-3.9,0.2-7.8-0.1-10-4.3c-2.3-12-9.9-15.8-15-14.4
		C1233.5,2726.5,1230.9,2732.9,1238.6,2741.5z M1240.3,2706.1c1.5,1,3,3,4.6,4.4c1.6,1.4,3.4,2.2,5.4,0.8c3.3-1.8,2.3-3.8,0.2-5.8
		c-4-3.4-8.2-4.8-10.3-9.1c-1-1.4-2.1-2.5-4.5-2.5c-0.9-0.1-4.1-1-4.9-0.3c-1.4,1.2,0.2,3.6,1.5,4.1
		C1235.4,2699.9,1237.2,2704,1240.3,2706.1z M1359.9,2757.9c-0.6,1.7-2,3.3-3.9,3.4c-1.3,5.9,1.1,7.8,4.7,8.4
		c3.6,0.6,8.4-0.1,11.9,0.7c0.9,0.2,2,0.4,2.9,0.4c2.3,0.2,3.7-2,3.7-4c0-1.1-0.5-2.1-1.7-2.7c-1.9-3-4.5-5.5-7.5-7.5
		c-3-2-6.4-3.4-9.8-4.2C1360.4,2754.2,1360.5,2756.1,1359.9,2757.9z M1318.8,2790.5c1.7,0.7,2.7,2.2,4.3,3c0.7,0.3,1.3,0.4,1.9,0.5
		c2.2,0.2,3.6,2.4,4.6,4.4c0.7,1.4,1.4,2.8,2.6,3.7c9.9,3.3,14,0.9,14.4-3.7s-3.2-11.3-8.4-16.6c-2.5-3.3-5.6-1.4-4.5,2.4
		c1.4,3.5,1,7-2.7,2.8c-2.5-3.3-5.9-5.3-9.2-5.5c-3.3-0.2-6.4,1.4-8.5,5.5c-2.4,1.3-5.4,0.7-7.2,1.1c-1.8,0.4-2.5,2-0.2,7.6
		c2.3,0.3,4.6,0,6.7-0.9C1311.7,2791.5,1316.2,2789.5,1318.8,2790.5z M1386.6,2804.4c1.7,0.2,1.5,1.8,2.1,3.3s1.8,2.6,6.5,1.8
		c0.8-1.6,1.3-3.4,1.5-5.2c-1.7-1.1-3.6-1.3-5.6-1.4s-3.9-0.2-5.5-1.1c-0.1-0.8,0.4-2.9,0.8-5c0.4-2,0.6-4-0.2-4.4
		c-2.1-0.5-3.5,0.8-4.7,2.5c-1.1,1.7-1.9,3.9-2.6,5.4c-1.9,1.7-4,1.1-6.2,0.1c-2.1-0.9-7.3-4-7.5-0.4c0,1.1,2,1.9,2.6,2.6
		c1.6,1.8,2.5,3.7,3.8,5.2c1.2,1.5,2.8,2.7,5.6,3c2.8,0.3,4-1.4,5.1-3C1383.3,2806.1,1384.3,2804.4,1386.6,2804.4z M1454,2857
		c0.4-3.6-3.6-5.9-6.5-6.4c-3.5,0.5-6.5,3.3-8.6,4.2c-2.1,0.9-3.1-0.2-2.8-7.5c-6.5-1.6-6.4,0.7-5,4.8c1.4,4.1,4,10.1,2.5,15.8
		c-7.5-4.8-8.3-7.7-10.2-9.7c-1.9-2-5-3-17-3.8c-0.8-1.6-1.1-3.3-1.4-5.1c-0.5-7.8-5.5-9.7-12-12.9c-4.1-2.1-7.9-4.4-8.5-9.3
		c-0.2-1.5,0.1-3.7-1.5-4.5c-4.8,7.8-1.2,11.6,4.1,15.1c5.4,3.4,12.6,6.5,15.1,12.7c-2.3,0.5-4.8,0.1-6.9-1c0.3,3.8,2.7,6.7,5.3,9.6
		c2.6,2.9,5.4,5.8,6.5,9.5c1.5,3.6,3.8,8.9,8.7,8.2c-1-5.5-1.8-11-2.4-16.5c0.3-0.7,5.2,1.8,5.4,2.2c3.5,7.5,2.7,10.1,3.7,11.2
		c1,1.1,3.9,0.8,14.8,2.6c0.3-1.7,0.2-3.6-0.4-5.2c3.7,2.7,4.5,6,6.1,7.8c1.6,1.8,4,2,10.8-1.4
		C1454.1,2870.6,1454.1,2863.8,1454,2857z M1463.4,2811.3c5.3-1.6,4.7-8.8,9.8-10.7c11.9-5,14-0.5,24.8,2.4c4.4-1.7,3.2-4.3,0.8-7
		c-5.5-5.8-7.6-6.4-7.5-14c-0.1-2.1-0.3-4.1-1.5-5.7c-4.6-4.2-8.8-2.7-11.8,0.9c-3,3.6-4.7,9.3-4.2,13.7c-2.7-1.2-7.6-2.7-10.7-4.8
		c-3.1-2.1-4.5-4.7-0.3-8.2c0.2-2.1-1.9-3.1-3.5-4.6c-1.6-1.5-2.7-3.4-0.5-7.2c4.8-4.4,7.1-3.6,7.9-4.1c0.8-0.5,0.1-2.4-1.1-12.1
		c3.1,0.6,5.8-1,7.3-3.3c3.8-6.5-1.7-10.5-7.5-12.9c-5.2-2.4-6.7-4.8-6.1-10.4c0-1.6-0.1-3.1-1.2-4.1c-4.1-0.8-7.3,1.4-10.4,3.9
		c-3.1,2.5-6.1,5.4-9.8,6.1c0.6,1.7,1,4,0.7,6c-0.3,2-1.3,3.7-3.5,4.3c-2.5,0.3-4.4-0.6-6-0.8c-1.6-0.2-2.9,0.2-4.1,3.1
		c-1.8,0.6-2.7,0.4-3.4,0.7c-0.7,0.2-1.2,0.9-2.3,3.2c-5.6,5.7-10.8,2.4-13.3,11.6c-9.8,5.5-8.1,10.7-7.7,20.4
		c-0.2,4.1-1.7,8.1-1.8,12.2c0,8.4,3.8,9.7,7.8,10.5c4,0.9,8.2,1.4,9.1,8.3c0.2,3.8-2.5,8-0.8,11.7c4.2,7.2,14,1.4,20,3.5
		c3.5,1.1,4.1,5,5.6,8.1s3.8,5.8,10.7,4.4c2.5-0.8,7-0.6,10.1-1.3c3.1-0.7,4.9-2.3,1.8-6.8
		C1461.4,2822.5,1457.2,2815.8,1463.4,2811.3z M1475.6,2814.2c5.9,0.5,9.3,2.6,11.8,4.4c2.5,1.7,3.9,3.1,6,1.9
		c2.8,0.5,5.3,2.2,7.9,3.1c0.5-2.5,0.6-5,0-7.2c-0.6-2.2-1.9-4.1-4.2-5.4c-1.5-2.9-4.5-2.5-7.2-3c-3-2-10-2.2-14.6-1.1
		C1470.6,2808.1,1468.6,2810.6,1475.6,2814.2z M1378.5,2849.9c-3.6-3.3-7.6-8-12.5-9.2c-0.5,1.7,2.2,6.2,5.5,9.7
		c3.3,3.5,7.1,6,8.7,3.8C1381.1,2852.6,1379.7,2850.9,1378.5,2849.9z M2628.9,2164.4c2.4-6.9,1-26.1-11.3-21.2
		c0.3-4.6-1.3-11.7-7.4-11c1.2-4.9,1.6-9.9,1.5-14.8c-0.1-5-0.7-9.9-1.5-14.9c-1-10.3-9.2-17.2-17.3-22.4c-3-1.1-4.2,0.1-5,2.1
		c-0.8,1.9-1.2,4.5-2.6,6c-11.1,3.2-15.3,7.5-18.6,12.7c-3.2,5.2-5.4,11.5-12.4,18.6c-4.2,3.2-5.6,7.2-6.3,11.5
		c-0.7,4.3-0.6,8.9-1.9,13.4c-4.9,9.4-9.6,12.4-12.3,16.6c-2.7,4.2-3.3,9.6,0.2,23.4c0.8,4.7,2.5,8,4.9,10.7
		c2.4,2.7,5.5,4.9,9.1,7.5c7.5,6.2,8.4,17.3,14.3,24.6c25.3,10.3,30.9-11.3,46.2-24.9c3.4-3.5,6.8-4.2,9.6-4.7s5.2-1.1,6.4-4.2
		C2638.2,2173,2618.3,2188.2,2628.9,2164.4z M2319,2916.1c-11.1-4.9-6.3-12.5-7.1-18.4c-0.8-5.9-7.3-10-40.9-8
		c-11.5,0.2-25-1.9-32.2-11.8c-5.4-9.4-6.7-18.9-10.2-25.9s-9.4-11.5-23.9-10.9c-7.2-1.3-11.1,22.1-14,25.6c-4.6-2.8-6-7.9-7.2-13.4
		c-1.6-8.6-2.9-15.8-10.9-20.3c-2.1-1.4-4.3-2.6-6.2-4.1c-5.1-4.1-9.2-11.1-14.1-16.7c-4.9-5.6-10.4-9.7-18.4-8
		c2,5.3,3.9,11.9,3.8,18c-0.1,6.1-2.1,11.8-7.6,15.5c-2.9-3.8-4.4-8.3-5.8-12.8c-1.5-4.5-2.9-9-5.7-12.6c-4-1.8-10.1-2.5-15.4-1.4
		c-5.3,1.1-9.8,4-10.4,9.5c0.2,1.8,0,3.2-0.7,4.2c-0.7,1-1.9,1.7-3.8,1.9c-4.2,0.9-8.4,2.1-12.4,3.6c-4,1.5-7.9,3.4-11.7,5.5
		c-2,1-3.5,2.6-4,4.3c-0.5,1.7,0.2,3.4,2.5,4.5c10,4.9,21.9,6.3,28.9,10.3s9.1,10.5-0.6,25.8c-1.1,4.4,3,9,6.8,13.2
		c3.8,4.1,7.3,7.7,4.9,9.9c-3.3,12.7-2.1,16.4,1.3,18.4c3.4,2,9.1,2.3,14.7,8.2c7.9-0.1,12.6,4.9,14.3,11.2s0.3,13.9-3.8,19.3
		c-1.7,2.7-4.2,5.8-3.2,9.1c1.9,3.6,6.1,5,10.4,7s8.8,4.4,11.5,10.1c1.7,3.6,5.2,4.5,8.8,5.5c3.6,1,7.2,2.1,9,6.3
		c2.4,4.1,3.1,10.5,4.7,16c1.6,5.5,4.3,9.9,10.8,10.2c-7.5,7.7-11.3,18.8-10.1,29.4c6.1-0.8,10.7,2,13,6.1c2.4,4.2,2.5,9.8-0.3,14.9
		c-2,5.4-3.6,11-5.1,16.6c-3.6,15.2-9.8,36.6-5.9,49.2c2.2,9,7.6,17.1,17,27.3c9.2,11.1,10.1,18.9,9.6,24.9s-2.3,10.3,1.6,14.4
		c9,2.8,11,2.6,16.8,10.8c37.9,30-11-132.8,15.8-144.1c10.2-13.6,31.8-21.3,33.5-40.6c0.4-4.8-1-10.3,1.9-14.4
		c8.9-6.4,10.9-13.1,12.3-19.3s2.1-12,8.6-16.5c9-4.3,19.4,0.7,22.3-12.6c0.9-3.9,1.3-8.3,4.2-11.9
		C2330.2,2946.6,2337.4,2928.7,2319,2916.1z M2139.6,3046c4.1-0.1,6.2,3.1,8.6,5.8c5.4,0.7,11.9-6.2,15.9-8.9
		c8.2-6.5,5-16.8-0.4-23.8c-4.3-8.8-2-22.4-12.3-27.3c-1.3-0.7-2.7-1.2-4.1-1.6c-2.8-1.6-5.6-3.7-8.7-5.4c-3-1.6-6.2-2.7-9.6-2.2
		c-12-10.5-12.2-20.1-11.5-27.6c0.7-7.6,2.3-13.2-6.2-15.8c-18.8-8.1-19.3-17.3-19-25.2c0.3-7.9,1.5-14.5-13.7-17.4
		c-8-2.7-12.1-6.7-14.9-11.6c-2.8-4.9-4.2-10.8-6.9-17.3c-2.6-3.1-6.5-3.2-10.7-2.8c-4.2,0.4-8.7,1.2-12.6,0.1
		c0.3,18.8,0.9,37.6,0.8,56.3c-3.5-0.1-2.8,6.1-6,6.5c-3.6-0.1-8.2-5-12.5-8.6c-4.3-3.6-8.2-6-10.6-1.2c-2,3-3,6.3-3.3,9.9
		c-0.4,1.2-1.4,2.1-2.4,2.9c-4.2,2.7-4.2,6.9-0.6,9.5c2,1.7,4.7,3,6,4.8c-7.3,0.4-14.3-2.1-20.9-5.2c-0.9-2.2-3.4-2.9-5.5-3.4
		c-11.8-3.3-23.8-4.8-35.3-9.3c-0.5-2.5,0.2-5.9,0.2-8.9c0.1-3.1-0.5-5.8-3.4-7c-9.2-4.4-19.2-7.8-28.9-11.5s-19.3-7.8-27.6-13.7
		c-2.2-2.6-3.3-5.9-4.1-9.2c-0.8-3.4-1.3-6.9-2.4-10.2c-1.6-4.6-4.6-8.6-8.5-11.6s-8.5-4.9-13.4-5.3
		c-16.9-44.1-103.4-44.5-136.5-25.8c-7.7,5.4-13.8,13.7-23,16.5c-6.9,1-10,3.1-11.2,6.4c-1.1,3.3-0.2,7.9,0.8,13.9
		c-9.7,4-13.5,12.3-12.9,21c0.6,8.7,5.5,17.7,13,23.1c6.9,4.5,13,9.7,18.5,15.8c2.6,1.9,4.1,4.3,5.2,6.9c1.1,2.6,1.7,5.5,2.3,8.5
		c0.9,1.8,2.9,5,5.1,7.1c2.2,2.1,4.7,3.1,6.7,0.4c4.3-1.4,4.6,4.4,2.2,6.5c-4.5,2.3-4.3,14.6-11.5,12c-3.2-6.2-7.2-5.4-10.6,0.1
		c2,9.3,2,13-8.5,8.3c4-12.1-16.3-10.5-21.7-14.8c-2.5-1.7-8.8-4.7-9.8,0.4c0.3,4.2,7.6,7,6.1,11.5c-4.5,2.9-10.7-1.4-13-5.2
		c-1.7-4.3-1.6-8.6-2.1-12.7c-0.6-4.9-3.2-11.1-9.6-13.2c-1.4-0.5-2.9-0.7-3.2,0.3c-13,41.6,22.4,45.2,31.8,79.2
		c4.5,8.3,14.6,11,23.2,13.3c41.3,11.1,81.1,27.9,117.9,49.8c9.3,5.6,18.7,11.7,25.4,20.4c3.9,5.2,6.8,11.3,11.4,16.1
		c26.8,21.3,40.2,7.9,66.7,41.3c7,7.7,12.6,6.7,17.9,3c5.3-3.7,10.2-10.3,15.9-13.7c6.1-3.2,12.6-1.8,19.1-2.8
		c7.6-1,10.3-4.8,13.4-8.5s6.3-7,15-6.9c0.2-1.3,0.5-2.6,0.7-3.9c8,0.3,10.8-3.5,15.6-6c4.8-2.5,11.4-3.6,27.1,2.1
		c4.9,1.8,6.7-0.6,10.2-2.9c3.4-2.3,8.5-4.5,19.9-2.3c8.2,0.7,11.5,3.1,13.8,5.4c2.3,2.3,3.6,4.5,8,4.9c4.1,0.2,8.2,0,12.3,0.1
		c4.1,0.1,8.1,0.6,11.9,2c7.5,3.1,16.5,11.6,23.7,3.5c1.9-2.1,2.6-4.9,0.8-7.2c7,0.4,12.3-7.8,16.1-17.5c3.8-9.7,6.1-20.9,7.1-26.4
		c0.2-1.5-5.9-2.2-12.3-2.6c-6.4-0.4-13.1-0.5-14-0.8c1.1-5.6-0.7-10.8-2.4-16.1c1.7-0.2,3.4-0.6,5-1.3
		C2144.3,3053.6,2135.6,3049.1,2139.6,3046z M706.2,1023c-0.7-0.7-2.2-2.2-3-2.9c-0.9,0-1.8,0-2.7,0.1c-0.3,2.2-0.5,4.4-0.8,6.6
		C702.4,1027.9,705.9,1025.9,706.2,1023z M647.8,843.5c-2.9,7.6,10.2,8.1,9.9,1C655.1,843.6,650.2,839.5,647.8,843.5z
		 M1161.1,1925.9c-2.2-0.2-5.7-1.1-7,1.4c-1.7,2.7-3,6.1-2.9,9.1c0.1,3,1.7,5.6,5.7,6.7c3.5,0.8,7.8,2.8,11.3,0.9
		c3.6-2.3,4.9-8.3,2.1-11.6c-1.8-2.2-5.4-2.4-7.2-4.6C1162.6,1927.1,1162,1926.2,1161.1,1925.9z M1219.1,2708
		c7.1-9.1,8.4-22.4,3.2-32.7c-0.7-1.4-1.5-2.8-2.1-4.2c-1.3-2.9-1.3-6.5,1.9-8.1c1.4-0.7,2.9-0.7,3.9,0.5c8.7,7.5,17.5,15,26.2,22.5
		c8.7,7.5,17.5,15,26.2,22.5c1.7,5.6,3.5,11.2,5.2,16.8c5.2-3.5,22.9-8.3,25.5-14.9c1.1-3.7-1.6-7.8-3.9-11.5c-2.2-3.7-4-7.1-1-9.6
		c3.4-0.3,5.5,1.9,7,5c1.5,3.1,2.4,7,3.4,10.3c8.6,26.7,41.6,27.8,64.2,25.2c-2.6,7.6,4.9,16.2,12.7,15.5c5.5-0.4,7.1-4.2,10.9-7.4
		c8.2-4.6,17-8.4,25.9-12s17.8-7,26.4-11c5.7-2.9,9.9-2.4,12.6,0.2s3.8,7.5,3.3,13.2c6.6-0.3,13.3,0,19.8,0.9
		c-2.8,2.9-5.6,5.7-8.3,8.6c6.9,1,16.8,0.1,19.4-7.5c1.5-4.6-0.8-9.7,0.4-14.3c1.5-5.8,7.1-8,13.1-10c11.6-3.7,17.9-6.2,19.3-19.1
		c0.6-3.7,1.2-7.5,3.3-10.5c2.2-2.4,4.3-4.5,5.7-6.9c1.5-2.4,2.2-5.1,1.7-8.6c-0.3-6-1.1-12.1-1.1-18.1c-0.1-6,0.5-11.9,3.1-17.3
		c5.1,13.8,9.6-0.7,12.9-19.6c3.3-18.8,5.5-41.8,6-44.8c0.8-9.8,1.2-20-0.1-29.8c-1.3-9.8-4.3-19-10.2-26.9c-1.9,1-3.7,2.2-5.3,3.6
		s-3.1,2.9-4.4,4.6c-0.7-2.1-1.1-4.3-1.4-6.6c-0.3-2.2-0.3-4.5-0.2-6.7c6.5-2.3,12-7.6,14.4-14c4.2-12.5-27.3-1.1-24.8-9.1
		c3.3-1.5,7.2-0.6,10.7-0.6c6.5-0.6,8-2.7,8.3-5.1s-0.6-5.1,1-6.7c1.3-1,3.3-0.2,4.3,0.9c1.3,4.7,6,8.1,9.9,11.6
		c3.9,3.5,7.1,7.2,5.4,12.6c2.4-4.5,11.9-2,14.8-6.3c4.7-6.5-3-11.6-7.4-14.8c-11.2-7.6-12.9-21.4-15.6-33.5
		c-1.2-4.7-2.8-9.3-4.5-13.9c-3.8-8.7-6.9-18.2-12.4-26c-2.7-3.8-5.9-7.3-9.6-10.4c-10.5-9.2-16.2-22.6-26.5-31.9
		c-6.7-5.7-10.3-15.4-17.9-20.3c-5.3-1.8-11.2-2.1-16.9-2.8c-5.7-0.7-11.3-1.9-15.9-5.5c-3.3-2.9-5.4-2.8-7.4-3.2s-4.2-1.1-7.5-5.6
		c-3.7-2.3-9-1.2-12.7,0.4c-4.6,3.1-4.8,7.9-4,13c0.7,5.1,2.3,10.4,1.1,14.8c-1.8,0.7-3.4,0.2-4.9-0.9c-1.4-1-2.6-2.6-3.5-4
		c-0.8-1.6-2.6-3.7-4.1-5.7c-2.3-3.1-4-7,0.8-7.3c1.2-0.2,2.5-0.4,3.1-1.3c1.1-1.6-0.4-4,0.7-5.5c1.6-1.3,3-1,4.4-1.1
		c1.4-0.1,2.8-0.6,4.3-3.5c5.4-6.4,13.3-3.5,21.9,1.1c8.5,4.5,17.7,10.7,25.7,10.6c6-0.6,5.5-5.6,8.7-11.7c3.1-6,9.9-13.1,30.2-17.5
		c18.9-3.1,12.5-17.3,3.7-28c-9.9-13-15.1-29.5-14.4-45.8c-5,0.5-8.3-4.6-10.4-8.5c-5.6-11.5-12.4-22.5-18.6-33.9
		c-6.2-11.3-11.9-22.8-15.4-35.2c-1.1,3.3-5,4-8.8,4.8s-7.5,1.5-8.3,4.9c-1.5,6.9,12.1,8.3,13.2,14.7c-17.8,0.7-13.1,22-6.8,42.3
		c6.2,20.3,14,39.4,2.1,35.6c-0.1-6.5-7.9-11.5-13.8-8.9c-3.6,3.9-8.2,9.7-5.5,15.2c3.6,6.9,14.9,4.6,19.6,10.3
		c6.8,9.7-4.7,19-12.7,22.2c-7.5,3.1-15.9,8.7-24.6,12.6c-8.6,3.9-17.4,6.2-25.5,2.5c-2.6-1.4-5.6-3.5-8.4-4.6s-5.5-1.4-7.4,0.8
		c-4.6,5.4,5.7,13.2,4.4,19.4c-1.3,6.2-7.2,7-13.4,7.5c-6.1,0.6-12.5,0.9-14.8,6.1c2.3-12.7,0.4-32.4,7.8-43.6
		c6.1-8,19.4-8.8,26.4-1.6c1.2-2.3,2.5-4.6,3.7-6.9c3.9,2.4,7.9,4.8,11.8,7.2c-2.1-20-18.9-33.9-23-53.2c11.4,1,12,23.7,25.1,21.3
		c0.2-2.3,0.3-4.5,0.5-6.8c5.6,2.8,11.2,5.6,16.8,8.4c-3.4-18.1-18.1-33.5-36-37.7c-18.6-23.6-38.3-47.4-68-56.8
		c-9.4-4.6-18.3-11-27.5-16.2c-9.2-5.2-18.6-9.1-29.1-8.8c-4.9,0.1-7.9,2.1-8.6,4.7s0.8,5.8,5,8.2c2.9,2,3,3.4-0.2,5.3
		c-4.3,2.5-10,1.4-14.6,2.3c-6.2,1.1-13.2,2.2-19-0.8c-5.4-2.8-8.9-11.4-3.9-16c-8.4,8.6-18.6,15.6-29.6,20.5
		c6.5,4.2,12.9,8.4,19.4,12.6c-8.7,3.7-17.4,7.4-26.1,11.1c0-2.8,0-5.5-0.1-8.3c-7.7-2.4-13.7,3.6-21,10.7c-7.3,7.1-16,15.5-28.9,18
		c-2.1,0.6-7-0.2-5.9-3.2c-17.7,15.4-32.9,34.4-52.4,47.7c-7.7,3.5-16.7,2.3-24.6-0.4c-11.1,0.2-21-7.8-20.5-19.3
		c3.5-15.9-10.8-23.8-24.6-22.5c-5.3,0.4-6.6,3.1-9.2,5.5s-6.4,4.3-16.7,3c-6.4-1.2-10.9,3.6-3.9,7.7c7.2,4.5,8.3,19-0.3,22.8
		c-15.6,6-32.9-2.2-47.8-5.9c-1.5,1.9-1.7,4.4-1,6.7c0.7,2.2,2.4,4.2,4.7,4.8c3.5,0.1,6.8,1.1,9,3.1c2.3,2,3.5,4.9,2.7,8.8
		c-4.2-0.1-8.4-1.6-11.7-4.2c-2.7,5.6,2.1,15,2.6,20.7c4.3-1.2,8.6-2.8,12.7-4.6c2-4-2.2-7.5-5.3-9.1c3.2-1.4,6.8-2.9,10.4-2.5
		c8.1,6.3,1.2,20.2,11.1,25.1c3.4,1.7,6.6,0.8,10.1,1.2c2.9,0.4,11.4,3.2,12,6.8c-1.7,0-3.3,0-5,0.1c0.2,4.6,9.3,11.1,13.5,11.8
		c3.6,3.4,6.2,8.1,10.6,10.6c1.2,0.6,1.4,1.5,1,2.3c-2.1,3-7.2-1.2-9.1-3c-1.9-1.8-3.8-3.8-6-5c-1.5-0.9-3.4-1-5.2-1.2
		s-3.5-0.6-4.8-1.9c-1.4-3.7-3.3-6.3-5.8-8.4c-2.5-2.1-5.5-3.5-9.3-4.7c-3.5-0.7-5.9-5-8.4-8.5c-2.5-3.5-5.1-6.4-9-4.1
		c2.1,12.3,8,20.1,12.4,26s7.4,10,3.8,14.7c6.8-1.9,17.1-0.4,23.9,1c8,2.2,12.7,8.9,20.2,12.1c1.1,2.4-1.2,5.1-3.5,5.7
		c-5.1,1.2-9.6-3.6-14.7-3.2c-5.2,0.6-3.3,7.3,0,8.9c4.4,2.7,10.6,1.5,14.5,5.3c1.6,1.6,2.4,3.8,3.8,5.6c3,3.6,12,8.6,7.1,14.5
		c-3.4,1.7-6.7,3.2-9.3,6.1c-7.1,5.4-21.2-7.1-26.4,3.9c-4.3,15.7,17.5,16.2,26.8,17.2c32.2,8.9,33.1,46.2,35.3,72.9
		c0.6,3.6,1.3,8-1.5,10.9c-9.8,5-0.8,15.6,3.2,20.8c-8.6,1.1-17.3,1.5-25.9,2.3c40.5,8.5,33,47.6,52.1,34c6.7-3,14.6,1.2,18.4,7
		c5.1,12.1,8.3,28.3,7.4,43.6c-0.8,15.2-5.7,29.5-16.9,37.5c4,3,8.6,5.3,13.5,6.8c9,2.6,20.1,3.3,27.4-3.5c3.2-2.9,4.9-6.8,3-10.7
		c-1.3-2.7-4.2-4.6-5.4-7.4c-1.8-4.3,1-9.6-1.1-13.9c-7.5-6.2-11.2-12.2-12.4-19c-1.2-6.8,0.3-14.5,3.2-24
		c7,4.8,11.4,13.2,11.2,21.6c16,7.6,35.9,6.4,50.9-3c5.5,18.5,10.9,37.1,16.3,55.6c-5.7-1.2-11.5,1.1-15.6,5.2s-6.5,9.9-5.3,15.6
		c-2.8-0.1-5.7,0.2-8.4,0.9s-5.4,1.8-7.8,3.3c-1.7,7.7-3.5,15.4-5.2,23.1c6.9,0.8,13.9,0.4,20.6-1c6.8-1.4,13.3-3.9,19.3-7.4
		c4.4,10.9,16.2,18.3,27.9,17.7C1209.5,2697.4,1213.1,2704.5,1219.1,2708z M1547,2263.2c5.4,2.1,9.3,2.1,11.1,0.3s1.6-5.5-1-10.7
		c-3-1.1-5.1-0.2-6.8,1.5c-1.7,1.7-2.9,4.3-4,6.4C1545.3,2261.6,1545.6,2262.8,1547,2263.2z M1876,2014.2c7.9-9.4,15.6-23,14.7-35.7
		c-0.7-8.9,1.9-18.4-1.2-27.1c-2.1-6.4-8.5-13.4-5.2-20.3c6.5-3.2,9.7,6.8,14.7,8.3c6.3,0.3,12.4-1.5,18.3-4.1
		c5.9-2.6,11.6-6.1,17-9c4.2-2.3,8.2-2.7,12.2-2.4c4,0.3,7.9,1.2,12,1.3c-1.3-0.1-2.6-0.2-3.9-0.3c2.6-5.1,6.1-10,9.2-15.1
		c3.1-5.1,5.9-10.3,6.9-16.1c0.9-8-5.4-16.6-1.9-24.3c1.6-3.6,6-7.1,3.8-11.5c-5.3-7.6-12.8-13.6-20.2-19.1
		c-17.5-15.8-44.1-5.7-64-13.7c-6.6-4-10.1-11.9-16.9-15.7c-4.4-2.5-9.6-2.9-14.7-3.5c-5.1-0.6-10.1-1.3-14.1-4.4
		c-5-4.7-7.5-11.1-8.5-17.9c-1-6.9-0.7-14.1-0.1-20.5c3-1.4,7,4.9,11.5,11.8c4.5,6.9,9.5,14.4,14.5,15.2c26.8,0.9,39,24.8,66.5,22.1
		c7.2-0.6,14.4-2.9,21.6-1.6c4.4,0.8,8.4,3.1,12.3,5.1s7.9,3.7,12.4,3.5c8.9,1.4,18.2,0.4,26.6-2.8c5-1.9,12.1-5,17-1.7
		c0.2-0.1,0.4-0.2,0.7-0.2c5.9,13.1,11.6,18.2,18.6,18.9c7,0.7,15.3-3,26.2-7.6c7,0.9,13-1.9,18.5-5.8c5.5-4,10.4-9.2,15.3-13.4
		c0.1,0.7,0.3,1.4,0.4,2.2c11.5-9.4,19.5-9.6,24.6-4.6c5,5,7.1,15.3,6.7,26.7c-3.7-2.1-7.4-4.3-11.2-6.4c-1.9,4.6-4.6,9-6.9,13.6
		s-4,9.4-4,14.4c0.4,8.3,9.5,21.8-1.1,27.7c-11.9,2.2-30.8-7.9-40.6-13.5c-1.6-1-4.1-2.3-5.7-0.7c-5.3,12.9-4,26.6,7.6,35.6
		c7.6,6.9,29.6,40.7,27.1,52c-0.8,2.4-2.5,5-3.6,7.4s-1.7,4.6,0.1,6.5c-9.5,3.8-18.6-6.9-28-7.1c-5.1-0.2-9.6,2.7-12.5,6.8
		c-2.9,4.2-4.3,9.6-3.1,14.6c0.4,1.6,1,3.4,0.2,4.9c-3.2,3.9-13.6,2.6-17.8,3.8c1,4.6,4.6,7.8,9,9.4c12.3,4.5,26.1-2.1,34.2-11.5
		c1.3-2.7,7.5-6.2,8.2-1c5.6-0.1,2.8-17.1,13.2-5.8c3,4.9,12.5,11,4.6,16.4c-1.1,1-2,2-1.6,3.4c2.4,0.7,6,1.5,9.2,2.7
		c6.2,2.3,11.1,6.8,2.7,10c-2.5,1.1-5.3,2.3-5.5,4.8c3.3,2.7,19.1,12,7,15.8c-18.1,6.4-24.4,8.4-30.4,8.7c-6,0.3-11.6-1-28.3-1
		c-2.4,3.1-3.8,7.2-3.4,10.3c0.4,3.1,2.5,5.3,7.2,4.9c9.4-0.2,18.8-0.2,28.2-0.2c9.4-0.1,18.8-0.3,28.2-1c-0.1-2.8-0.2-8.2-0.3-11
		c6-0.1,9.1,3.6,10.7,8.5c1.7,4.9,1.9,10.9,2.2,15.3c0.4,4.3,1.8,7.1,3.9,9.3s4.8,3.7,8.2,5.4c0.8,1,0.8,2.3,0.6,3.5
		s-0.8,2.6-1.2,3.8c-2.1,6.7,1.3,14.6,7.5,17.8c-3.1-10-1.2-12.5,1.8-14c2.9-1.4,6.9-1.8,7.9-7.4c1.1-7.4,2.6-15.5,4.7-23.2
		s5.1-15.2,9.4-21.2c1.5-0.7,4.8,0.3,8.1,1.7s6.7,3.1,8.2,3.6c-2.2-2.8-5.2-5-8.4-6.5c-3.3-1.5-6.8-2.2-10.4-2.1
		c-1.1-8.1-2.2-16.3-3.2-24.4c4.6-0.5,5.4-5.8,5-11.8c-0.3-6-1.8-12.7-1.6-16c2.3,0.2,4.8-0.7,6.1-2.2c1.3-1.5,1.3-3.4-1.3-5.2
		c-3.9-5.7,4.1-9.4,8.6-9.3c-3.6-8.1,1.9-11,9.2-13c7.3-2,16.3-3,19.5-7.2c3.4-3.8,5.5-8.3,7.4-13.1s3.5-9.7,5.6-14.2
		c2.7-6,1.7-10.7-5.4-11.6c-13.2-4.2-12.7-13.4-12.7-22.4s-0.3-17.9-14.9-21.5c-1.7-1-3.2-2.7-3.9-4.5c-1.6-4,1-6.1,4.6-7.3
		c1.4-0.6,2.6-1.3,3-2.7c-3.7-16.9,11.9-24.2,25.5-16.7c4.7,2.1,8,6,11.3,10c3.3,3.9,6.5,7.9,11,10.1c9.1-0.3,16.5,4.5,19.7,10.9
		c3.2,6.4,2.2,14.4-5.7,20.5c-5.2,2.5-2.7,6.2-0.7,10.1s3.5,8-3.5,11.5c-3.7,1.7-2.9,7.9,1.6,5.5c7.5,4.1,13.3,9.5,10.8,18.6
		c0,4.1,2.9,7.5,4,11.3c1.5,4.8,0,11.3,4.2,15c11.4,6.4-1.7,9.3,1,15.8c8.8,5.3,3,12.1,3.9,19.9c2.8,9.4,12.7,13.7,4.1,23.5
		c-1,3-0.3,10.6-5.7,9.6c1.6,6.2,0.6,10.9-2.1,14.5c-2.8,3.6-7.3,6.1-13,7.8c-2.8,0.9-4.9,1.1-6.4,0.5c-1.5-0.7-2.4-2.3-2.7-5.2
		c-0.5-0.9-1.3-1.5-2.3-1.9c-5.4-1.9-5.2-6.1-3.3-10.9c1.2-3.4,2.7-6.9,0.9-9.8c-3,9.7-9.2,19.1-9.5,29.5c0.4,1.9,0.7,3.9,0.7,5.8
		c0,1.9-0.4,3.8-1.4,5.7c-3.7,9.7-8.1,19.2-13.2,28.2s-10.8,17.8-17.1,26c-0.9,1.2-1.7,2.8-1.9,4.2c-0.7,2.9,2.6,4.7,4.7,1.9
		c0.9-1.1,1.6-2.5,2.2-3.7c2.8-5.7,11-9.1,11.2-16c-0.5-3.4,0.7-5.5,4.2-6.1c9.8-3.1,14.9-3,17.1-4.9c2.1-1.9,1.3-5.8-0.7-17.1
		c3.3-1,6.9,2.5,6.5,5.8c2-3.1,5.5-2.4,9.1-0.5s7.2,4.8,9.4,6c1.5,0.9,3.1,2.5,3.9,4.2c0.8,1.7,0.8,3.6-0.8,5.1
		c-4-1.8-8.2-3.1-12.6-3.9c-0.4,4.4-0.1,10.1,3.4,13.4c3.6,2.4,8.4-1.7,12.2-0.4c-0.8-3.9,1.9-3.9,4.7-2.3c2.8,1.6,5.6,4.7,5.1,6.8
		c-2.4,4.5,0.5,10,6,9.2c5-1.1,6.9-5.8,6.4-10.3c-0.5-4.5-3.5-8.8-8.4-9c-0.3-2.4,0.5-4.9,2.1-6.8s3.8-3.2,6.2-3.4
		c0.5-0.4,0.5-1.1,0.3-1.7c-0.2-0.6-0.7-1.2-1.3-1.6c-10.1-5.3,6.5-7,3-12.3c3.4-1.8,7.1-3.1,10.9-3.9c0.4-4.1-6.3-6.1-6-10.1
		c3.3-9.9,14.7-24.2,26.6-16.6c6,8.1,18.6,11.9,25.5,2.4c-10.3,4.8-15.3,2.4-19.4-0.9s-7.5-7.5-14.8-6.4c-8.4,6.1-12.7,6.6-19.3-2.5
		c-2.6-2.8-1.7-5.6,0.4-8.2c5.7-10.5,0.8-17-4.7-24.4s-11.5-15.6-8.1-29.7c-0.1-4.3-1.3-9.2-3-13.9c-1.7-4.7-3.9-9.3-6-13
		c-1.9-3.3-4.9-6.6-7.3-10.1c-7-9.5-4.6-16,3.2-24c10.1-10.2,9.5-16.9-0.2-27.3c-3.9-4.5-7.9-9-7.8-14.7c5.3-17.4-3.9-23.4-9.6-38.8
		c-3.6-28.7-25-19.6-41.1-7.6c-7,3.9-15.2,6.9-23.5,8c-8.3,1.1-16.8,0.4-24.3-2.9c-5.6-4.1-4-13.6-9.3-18c-1.5-1.3-3.7-2.2-4.4-4.2
		c-0.7-2.6,1.8-4.7,3.7-6.2c9.6-7,19.3-13.8,29-20.6c9.8-6.7,19.6-13.4,29.4-20.1c-0.3-0.1-0.6-0.1-0.8-0.2c8-4.9,16.1-10,23.8-15.5
		c7.8-5.5,15.3-11.3,22.2-17.7c0,0.2,0.1,0.4,0.1,0.5c36.9-23.5,67.8-65.5,112-80.7c-0.5,0-1,0-1.6,0c50.2-19.5,70.3,5.8,112,27.5
		c10,2.3,20.7,2.5,31,3.9c10.3,1.3,20.3,3.8,29,10.3c-0.6-0.1-1.1-0.2-1.7-0.4c13.6,8.5,68.6,36.7,50.8,61.3
		c-2.9,5.3-6.6,10.1-10.4,14.8c-16.1,18.7-28.6,37.3-37.5,66.5c-5.9,20.6-6.1,41,8.2,51.6c0.8,1.4,1,2.9,1.1,4.5
		c0.1,1.6-0.1,3.3,0,4.8c0.2,5,2.2,9.4,4.6,13.8s5.2,8.7,7.1,13.3c3.4,8.6,4,17.9,6.1,26.9c4.7,1.7,4.7,8,5,11.9
		c-0.3,5.1,1.4,10.4,2.7,15.6c1.4,5.2,2.5,10.3,1.1,15.2c0.7,3.7,1.5,7.5,2.1,11.3c11.2,11.6,1.3,30.5,8.8,43.4
		c2.4,3.1,5.1,6.9,6,10.5c0.8,3.6-0.2,6.9-5.3,9.2c-4.8,2.3-6.6,6.7-8.4,11s-3.5,8.7-8.1,10.8c-7.4,3.2-9.1,7.2-11.4,12.4
		c-2.4,5.1-5.4,11.3-15.6,18.7c-9.4,7.5-1.4,15.6-10.3,18.1c-18.2,9.4-3.9,21.6-9.7,33.5c-2.9,4.6-8.4,6.6-14.1,6.8
		c-5.7,0.2-11.8-1.5-15.7-4.2c-4.4-4.7-10.8-4.8-16.6-5.7c-12.8-3.9-29.3,15.6-38.6,21.2c-21.8,16.2-48.5,27.8-64.6,50.4
		c-8.8,13.5-15.8,28.5-20.9,43.9c-4.5,16,0,33.7,4.1,49.3c5.6,19.2,26.9,26.4,42.4,36.1c4.4,2.5,8.8,4.9,13.4,6.6
		c12.1,1.3,24.5,2.3,35.1,8.7c12.8,7.4-6.4,17.8,20.9,25.9c7.3,2.9,6.9-4.1,10.2-1c7.7,7.3,18.4,13,18.5,25.1
		c3.5,7.9,4.9,10.9,4.6,13.9c-0.3,3-2.3,5.9-5.5,13.4c0.5,24.5,18.6,25.7-9.7,43.7c-6.8,5.5-11.7,20.6-21.8,21.1
		c-5.4,0.1-11.9,0.4-15.6,4.9c-5.1,10.5-14.4,11.3-25.8,11.1s-24.9-1.6-38.4,4.5c-8.1,2.1-17,1.7-24.5,5.8
		c-9.7,6.1-14.9,15.4-27,17.4c-5.2,2.4-7.4,8.3-10.1,12.9c-1.8,4.9-6.2,8-10.1,11.4c-3.9,3.3-7.4,6.8-7.2,12.3
		c-0.2,7.3,4.4,16.7,3.3,24.1c-1.1,7,2.9,14.6,9.3,17.7c2.6,1,4,1.8,4.9,2.9c0.9,1.2,1.2,2.7,1.6,5.1c0.3,0.4,0.6,0.6,1,0.8
		c0.4,0.2,0.9,0.3,1.3,0.4l8.6,2.2l8.6,2.2c0.8,5.5-2.3,10.5-5.6,15.7c-3.3,5.2-6.8,10.6-6.9,16.7c-0.7,5.5-2.4,7.8-4.8,8.1
		c-2.4,0.2-5.5-1.6-8.8-4.6c-6.8,2.7-6.4,8.4-4.8,14.6c1.6,6.2,4.3,13,2.3,17.7c2.1,0.1,4.2,0.2,6.3,0.2c0.4,3.9-0.3,7.9-0.8,11.8
		c-0.6,3.9-1,7.8-0.1,11.7c2.3,10.5,15.2,18,14.2,29.4c-0.2,3.1-4.8,3.4-9.9,3c-19-2.6-28.3-4.9-38.5,8.5
		c-5.4,6.5-10.4,14-23.7,15.9c-15.3,0.7-39.4-3.6-40.9-23.2c-9.8-6.7-22.8-6.2-33.8-9.1c4.6,3.7,8.6,8.1,11.7,13.1
		c-8.8-3.5-17.5-7-26.3-10.6c5.6,4.5,12.6,12.5,7.9,20c-0.8-4-6-6.6-9.8-9.4c-3.8-2.9-6.3-6-1.6-11.1c0.4-2.6-1.4-3.4-3.6-3.9
		s-4.8-0.7-5.9-2.1c-0.2-5.6-8.1-10-14.3-14.3c-6.3-4.3-10.9-8.5-4.8-13.6c-39.1-12.3-75.3-32.8-113.1-48.3c-2.5-1.2-6.4-3.7-5-6.9
		c38,13.1,78.7,23,114.8,40.5c-7.6-5.6-12.4-14.9-12.3-24.3c-2.6-0.7-5.8-1.8-9-2.5c-3.2-0.7-6.4-0.9-8.9,0.2
		c-9.2,17.6-24.5-2.1-29.6-11c3-0.6,6-1.2,9.1-1.8c-1.4-8.8-6-26.7-12.9-42.4c-6.8-15.7-16-29.2-26.5-29.1c-3.7-1.2-5.8-4.5-7.7-8
		c-2-3.5-3.8-7.3-7-9.5c-4.2-3.1-12.4-3.3-13.9-9.3c0.1-2.9-1.1-4.5-2.9-5c-3.8-1.3-7.6,3-11.6,3.8c-1.9,0.5-3.7,0.4-5-0.6
		c-4.7-0.5-9.5-0.7-14.3-1c-4.8-0.3-9.5-0.7-14.2-1.7c-8-6.8-12.4-9.2-16.9-8.7c-4.5,0.4-9.1,3.8-17.5,8.5c-1.5-3.9-0.7-6.3,0.9-8.3
		c1.6-2,4-3.6,5.9-6c3.3-12.9-1.3-26.9,2-39.8c1.1-4,6.1-8.7,4.6-13.3c-7.4,2.4-9.4,10.4-9.8,19.4c-0.4,9,0.7,19-0.4,25.5
		c0.2,5.5-1.9,8.3-6.7,10.6c-4.5,3.2-2.2,8.2-5.1,12.2c-3.1,4-9.8,1.3-13.7,0.9c-7.6-0.8-15.5,0.5-23.2,1.3
		c-7.7,0.8-15.3,1.2-22.6-1.4c-6.4-2.2-12.6-7.1-19.7-6.1c-7.5,2.9-10.2,1.6-12.6-0.2c-2.4-1.8-4.4-4.3-10.6-3.7
		c-4.3-0.2-8.9-4-12.4-8.8c-3.5-4.8-6-10.6-6.1-14.6c-1.3-0.2-2.6-0.4-3.8-0.6c2.4-4.6,1.9-8.7,0.5-12.7c-1.4-4-3.7-7.8-4.9-11.9
		c0-3.1,2.2-5.9,4.2-8.6c1.9-2.7,3.5-5.4,2.3-8.2c-1.6-2.1-2.4-3.6-2.7-5.3s0-3.4,0.4-6c-1.2-12.3-10.9-24.1-22.4-28.3
		c1.3-1.8,1.9-4.2,1.6-6.4c-0.5-0.2-1-0.3-1.6-0.3s-1.1,0.1-1.5,0.4c-0.8,2.6-3.3,4.4-5.9,4.9c-2.7,0.5-5.5-0.3-6.9-2.8
		c-1.3-3,1.2-5.5,3.6-8c2.4-2.5,4.7-5.1,2.8-8.1c-3.7,1.4-7.4,2.5-7.1,7.4c0,4.1-3.4,9.9-7.1,4.4c-0.9-1.4-1.6-3.1-2.3-4.8
		c-1.4-3.6-4.2-5.6-7.9-6.1c-1.7-0.3-3.5-0.6-5.1-1.5c-3.2-1.8-4-4.1-3.2-5.7c0.8-1.6,3.3-2.5,6.7-1.6c5.4,2,44,2,28.7-13.9
		c-3.6-2.5-8.8-10.7-14-5.9c0.5,2.6-0.6,5-1.9,7.5c-1.3,2.4-2.6,4.9-2.6,7.6c-13.7,1.2-17.5-1.8-20.1-4.8c-2.6-3-4-6.1-13.1-5.2
		c-1.7-6.2,2.8-13.9,2.9-20.1c-0.3-4.6,1.4-11,7.3-8.1c3.6,1.9,6.2,4.4,9,5.6c2.8,1.2,5.6,1.3,9.8-1.6c5.4-1.5,8.1-4.1,10.5-6.8
		c2.4-2.7,4.5-5.5,8.7-7.3c4.7-0.1,9.5-2,12.6-5.2c3.2-3.2,4.8-7.7,3.4-12.8c-5.7-9-5.8-18.4-5.5-27.8c0.3-9.4,1-18.7-3.1-27.5
		c-1.9-3.6-4.8-6.8-7.3-10s-4.7-6.6-5.2-10.7c4.1-26.6-6.6-22.2-21.7-39.3c-2-4.5-6.3-6-10.9-5.1c-1.5,7.8-12.7,14.5-18.3,6.3
		c-1.6-3.3-0.9-8.9,0.3-14.6c1.2-5.7,2.9-11.6,3.3-15.6c9.8-2.8,21.7,8.5,30.1,0.6c3.1-3,4.2-8.2,2.9-14.9
		c-3.5-19.2-4.7-43.2-15.9-60c-10.3-12.9-27.3-18.1-41.2-25.9c-7.1-3.6-14.5-7.2-22.1-9.6s-15.4-3.7-23.2-2.5
		c-3.5-1.7-8.8-4.3-12.6-7.6c-3.8-3.3-6.1-7.2-3.6-11.4c2.7-0.8,5.6-0.6,8.6-0.1c2.9,0.5,5.8,1.4,8.6,2c0.2-0.3,0.3-0.6,0.5-0.9
		c2.8-0.3,5.5,0.4,8.3,1.2c2.8,0.8,5.6,1.7,8.4,1.7c-0.3,0.3-0.5,0.6-0.7,1c-0.2,0.4-0.3,0.8-0.4,1.2c4.1,1.2,8.4,1,12.7,0.7
		c4.3-0.3,8.5-0.6,12.6,0.4c5.9,3.4,10.8,5.2,15.9,5.8c5.1,0.6,10.5,0.1,17.2-1.3c2.3-0.5,6.3-1.8,5.6-4.8
		c-3.7-0.5-7.3-1.7-10.5-3.5c2.2-0.7,4.4-1.4,6.5-2.1c-1.8-1.3-3.8-2.3-5.8-3.2c-2.1-0.8-4.2-1.4-6.4-1.8c0.1,0.9,0.3,2.8,0.4,3.7
		c-8.3-4.5-15.9-10.2-22.7-16.8s-12.6-14.1-17.4-22.2c-2.4-5.2-5.5-9.3-9.5-11.8c-4-2.5-8.9-3.4-14.7-2.1
		c-16.6,0.8-40.8-3.6-51.7-17.7c21.5-1.5,44.2-9.7,65.8-4.5c23,11.1,37.5,28.7,63.5,10.1c4.4-4.1,7.6-7,11.1-8.8s7.6-2.2,13.8-1.3
		c9.2-0.1,20.9-8.8,29.4-0.9c4.7,7.8,10.8,12.3,14.7,0.8c5.7,0.6,11.1,6.6,16.7,11.2c5.5,4.6,11.2,7.6,17.3,2.1
		c2.1-2.5,2.3-6.3,2.8-9.7c0.5-3.4,1.2-6.6,4.2-8C1853.4,2015.8,1867.9,2023.3,1876,2014.2z M1855.1,2198.3
		c1.3-8.5-10.2-25.8-19.6-15.5c-3.4,1.6-4.3,4.5-5.9,7.7c-0.8,1.5-2.2,2.7-3.5,3.9c-2.6,2-4.1,5.6-2,8.3c0.8,1.1,2.1,1.9,3.5,2.5
		c5.9,1.6,5.5,8,9,11.9c5.5,5.3,15.2,2.7,14.8-5.8C1852.7,2206.8,1855.9,2203.2,1855.1,2198.3z M2473.4,1967.4
		c-8.1,2.9-19.8-2.1-27.1,2.7c1.1,0.3,1.8,2,0.8,2.8c-2.9,0.5-2.5,3.1-2,5.3c5.4,2.5,8.9,1.4,11.7,1.6c2.9,0.2,5.1,1.7,8.1,9.2
		c1.7,1.5,3.8,0.6,5.8,0s4-1.2,5.6,0.8c1.5,1.8,3.4,2,5.5,1.8c2.1-0.2,4.3-0.7,6.2-0.4c4,0.2,8.1-2.5,4.2-6.2
		c-1.3-1.2-3.1-2.3-4-3.5c-1-1.3-1.1-3.8,0.6-4.4c1.2-0.5,3,0.4,4-0.7c0.9-3.4-0.3-7.3-0.2-10.7c5,2.8,8.8-5.6,8.3-9.3
		c-1.1-0.9-4.9-0.1-6.1,0.1c-3.3,0.5-4.6,3.7-7.1,5.3C2483.2,1963.8,2478.2,1965.8,2473.4,1967.4z M2444.7,1775.6
		c1.6,4.7,2.7,11.3,3.4,16.1c-0.3,3.7-0.3,5.8,3.9,6.5c3.7-6.8,9.4,1.6,7.8-14.2c1.3-18,11.4-8.8,15.4-13.7c1.3-1.9,1-5.5,0.3-7.5
		c-0.5-1.4-1.4-1.8-2.4-2.1c-3.7-0.7-4.2-3.9-1.6-6.6c1.4-1.6,3.2-3.1,4-4.3c2.4-3.6,0.2-11.4-5.4-8.7c-6.4,6.8-8.4,6.7-10.3,5.2
		s-3.6-4.5-9.6-3.4c0.5,4.2,2.3,11.4,2.5,14.8c0.1,4.4-2.2,6.7-4.5,9C2446.1,1768.8,2444,1771.1,2444.7,1775.6z M2039.5,1914.2
		c1.1,2.5,5.3,1.8,7.4,2.2c2.3,0.1,4.2,2.3,6.6,1.5c0.5-4.2,1.6-7.6,1.2-10s-2.4-3.8-8-3.8c-2.1-0.8-3.2-0.1-3.8,1.2s-1,3-1.9,4.4
		C2040.1,1911,2038.8,1912.3,2039.5,1914.2z"/>
</g>
</svg>
