<?xml version="1.0" encoding="utf-8"?>
<svg id="_002-destination" data-name="002-destination" xmlns="http://www.w3.org/2000/svg" width="87.558" height="87.558" viewBox="0 0 87.558 87.558">
  <path id="Path_85" data-name="Path 85" d="M16.052,251.779a1.458,1.458,0,0,0,1.138-.547c.614-.759,14.914-18.7,14.914-27.179a16.052,16.052,0,1,0-32.1,0c0,8.476,14.3,26.413,14.914,27.179A1.458,1.458,0,0,0,16.052,251.779Zm0-40.86a13.148,13.148,0,0,1,13.134,13.134c0,5.662-8.626,18.042-13.134,23.9-4.508-5.857-13.134-18.237-13.134-23.9A13.148,13.148,0,0,1,16.052,210.919Zm0,0" transform="translate(0 -170.058)" fill="#1a315d"/>
  <path id="Path_86" data-name="Path 86" d="M67.674,261.837a5.837,5.837,0,1,0-5.837,5.837A5.837,5.837,0,0,0,67.674,261.837Zm-8.756,0a2.919,2.919,0,1,1,2.919,2.919A2.919,2.919,0,0,1,58.919,261.837Zm0,0" transform="translate(-45.785 -209.303)" fill="#1a315d"/>
  <path id="Path_87" data-name="Path 87" d="M363.674,30.645a1.457,1.457,0,0,0,1.106-.508c1.083-1.256,10.569-12.453,10.569-18.463a11.674,11.674,0,1,0-23.349,0c0,6.01,9.485,17.207,10.569,18.463A1.456,1.456,0,0,0,363.674,30.645Zm0-27.727a8.764,8.764,0,0,1,8.756,8.756c0,3.7-5.571,11.318-8.756,15.234-3.186-3.915-8.756-11.528-8.756-15.234A8.764,8.764,0,0,1,363.674,2.919Zm0,0" transform="translate(-287.791)" fill="#1a315d"/>
  <path id="Path_88" data-name="Path 88" d="M400.756,36.378a4.378,4.378,0,1,0-4.378,4.378A4.378,4.378,0,0,0,400.756,36.378Zm-5.837,0a1.459,1.459,0,1,1,1.459,1.459A1.459,1.459,0,0,1,394.919,36.378Zm0,0" transform="translate(-320.494 -26.163)" fill="#1a315d"/>
  <path id="Path_89" data-name="Path 89" d="M401.459,186.919h1.459a1.459,1.459,0,1,0,0-2.919h-1.459a1.459,1.459,0,1,0,0,2.919Zm0,0" transform="translate(-327.035 -150.436)" fill="#1a315d"/>
  <path id="Path_90" data-name="Path 90" d="M297.408,234.919h2.951a1.459,1.459,0,0,0,0-2.919h-2.974a1.45,1.45,0,0,0-1.447,1.459A1.469,1.469,0,0,0,297.408,234.919Zm0,0" transform="translate(-241.955 -189.68)" fill="#1a315d"/>
  <path id="Path_91" data-name="Path 91" d="M393.688,233.459a1.459,1.459,0,0,0,1.459,1.459h2.973a1.459,1.459,0,1,0,0-2.919h-2.973A1.459,1.459,0,0,0,393.688,233.459Zm0,0" transform="translate(-321.874 -189.68)" fill="#1a315d"/>
  <path id="Path_92" data-name="Path 92" d="M352.557,186.919h2.973a1.459,1.459,0,1,0,0-2.919h-2.973a1.459,1.459,0,1,0,0,2.919Zm0,0" transform="translate(-287.053 -150.436)" fill="#1a315d"/>
  <path id="Path_93" data-name="Path 93" d="M125.848,464h-2.974a1.459,1.459,0,1,0,0,2.919h2.974a1.459,1.459,0,1,0,0-2.919Zm0,0" transform="translate(-99.267 -379.361)" fill="#1a315d"/>
  <path id="Path_94" data-name="Path 94" d="M273.55,202.9a1.431,1.431,0,0,0,.3-.032,1.459,1.459,0,0,0,1.128-1.727,3.036,3.036,0,0,1-.063-.606,2.919,2.919,0,0,1,.318-1.328,1.459,1.459,0,1,0-2.6-1.323,5.837,5.837,0,0,0-.509,3.853A1.46,1.46,0,0,0,273.55,202.9Zm0,0" transform="translate(-222.383 -161.138)" fill="#1a315d"/>
  <path id="Path_95" data-name="Path 95" d="M346.26,234.919h2.974a1.459,1.459,0,0,0,0-2.919H346.26a1.459,1.459,0,0,0,0,2.919Zm0,0" transform="translate(-281.905 -189.68)" fill="#1a315d"/>
  <path id="Path_96" data-name="Path 96" d="M303.651,186.919h2.974a1.459,1.459,0,1,0,0-2.919h-2.974a1.459,1.459,0,1,0,0,2.919Zm0,0" transform="translate(-247.068 -150.436)" fill="#1a315d"/>
  <path id="Path_97" data-name="Path 97" d="M226.177,314.231a1.415,1.415,0,0,0,.354.044,1.46,1.46,0,0,0,1.414-1.107,5.151,5.151,0,0,1,1.04-2.043,1.459,1.459,0,1,0-2.234-1.877,8.039,8.039,0,0,0-1.637,3.211,1.459,1.459,0,0,0,1.062,1.771Zm0,0" transform="translate(-184.015 -252.391)" fill="#1a315d"/>
  <path id="Path_98" data-name="Path 98" d="M370.172,463.609a7.119,7.119,0,0,1-.946.061h-1.837a1.459,1.459,0,0,0,0,2.919h1.837a10.249,10.249,0,0,0,1.313-.085,1.46,1.46,0,1,0-.373-2.9Zm0,0" transform="translate(-299.18 -379.031)" fill="#1a315d"/>
  <path id="Path_99" data-name="Path 99" d="M378.723,368.437a10.213,10.213,0,0,0-2.978-.438h-.383a1.459,1.459,0,0,0,0,2.919h.383a7.357,7.357,0,0,1,2.129.315,1.431,1.431,0,0,0,.425.064,1.459,1.459,0,0,0,.425-2.855Zm0,0" transform="translate(-305.698 -300.872)" fill="#1a315d"/>
  <path id="Path_100" data-name="Path 100" d="M363.4,298.919a1.459,1.459,0,0,0,0-2.919h-2.973a1.459,1.459,0,0,0,0,2.919Zm0,0" transform="translate(-293.489 -242.006)" fill="#1a315d"/>
  <path id="Path_101" data-name="Path 101" d="M414.326,435.812a1.459,1.459,0,0,0-1.929.73,7.28,7.28,0,0,1-1.379,2.044,1.459,1.459,0,1,0,2.108,2.017,10.169,10.169,0,0,0,1.932-2.862A1.46,1.46,0,0,0,414.326,435.812Zm0,0" transform="translate(-335.693 -356.209)" fill="#1a315d"/>
  <path id="Path_102" data-name="Path 102" d="M457.764,273.138a1.46,1.46,0,0,0-1.814.987,4.426,4.426,0,0,1-1.139,1.888,1.46,1.46,0,0,0,2.043,2.087,7.334,7.334,0,0,0,1.9-3.148,1.459,1.459,0,0,0-.986-1.814Zm0,0" transform="translate(-371.488 -223.265)" fill="#1a315d"/>
  <path id="Path_103" data-name="Path 103" d="M446.307,238.269a1.459,1.459,0,0,0,1.087-2.434,7.342,7.342,0,0,0-3.065-2.031,1.46,1.46,0,1,0-.948,2.761,4.376,4.376,0,0,1,1.838,1.22A1.462,1.462,0,0,0,446.307,238.269Zm0,0" transform="translate(-361.697 -191.089)" fill="#1a315d"/>
  <path id="Path_104" data-name="Path 104" d="M329.44,368h-2.973a1.459,1.459,0,0,0,0,2.919h2.973a1.459,1.459,0,1,0,0-2.919Zm0,0" transform="translate(-265.722 -300.872)" fill="#1a315d"/>
  <path id="Path_105" data-name="Path 105" d="M412.3,296h-2.974a1.459,1.459,0,1,0,0,2.919H412.3a1.459,1.459,0,0,0,0-2.919Zm0,0" transform="translate(-333.464 -242.006)" fill="#1a315d"/>
  <path id="Path_106" data-name="Path 106" d="M174.752,464H171.78a1.459,1.459,0,1,0,0,2.919h2.973a1.459,1.459,0,1,0,0-2.919Zm0,0" transform="translate(-139.252 -379.361)" fill="#1a315d"/>
  <path id="Path_107" data-name="Path 107" d="M418.384,389.7a1.462,1.462,0,0,0-2.413,1.65,7.219,7.219,0,0,1,1.021,2.24,1.459,1.459,0,1,0,2.824-.73A10.136,10.136,0,0,0,418.384,389.7Zm0,0" transform="translate(-339.884 -318.097)" fill="#1a315d"/>
  <path id="Path_108" data-name="Path 108" d="M235.946,356.091a5.19,5.19,0,0,1-1.776-1.452,1.46,1.46,0,0,0-2.306,1.791,8.1,8.1,0,0,0,2.79,2.278,1.459,1.459,0,0,0,1.292-2.617Zm0,0" transform="translate(-189.319 -289.487)" fill="#1a315d"/>
  <path id="Path_109" data-name="Path 109" d="M223.636,464h-2.977a1.459,1.459,0,1,0,0,2.919h2.977a1.459,1.459,0,1,0,0-2.919Zm0,0" transform="translate(-179.215 -379.361)" fill="#1a315d"/>
  <path id="Path_110" data-name="Path 110" d="M321.463,464h-2.973a1.459,1.459,0,1,0,0,2.919h2.973a1.459,1.459,0,1,0,0-2.919Zm0,0" transform="translate(-259.201 -379.361)" fill="#1a315d"/>
  <path id="Path_111" data-name="Path 111" d="M265.6,298.919a1.459,1.459,0,0,0,0-2.919h-2.973a1.459,1.459,0,0,0,0,2.919Zm0,0" transform="translate(-213.528 -242.006)" fill="#1a315d"/>
  <path id="Path_112" data-name="Path 112" d="M314.5,298.919a1.459,1.459,0,0,0,0-2.919h-2.98a1.459,1.459,0,0,0,0,2.919Zm0,0" transform="translate(-253.503 -242.006)" fill="#1a315d"/>
  <path id="Path_113" data-name="Path 113" d="M280.538,368h-2.973a1.459,1.459,0,1,0,0,2.919h2.973a1.459,1.459,0,0,0,0-2.919Zm0,0" transform="translate(-225.74 -300.872)" fill="#1a315d"/>
  <path id="Path_114" data-name="Path 114" d="M272.562,464h-2.974a1.459,1.459,0,1,0,0,2.919h2.974a1.459,1.459,0,0,0,0-2.919Zm0,0" transform="translate(-219.219 -379.361)" fill="#1a315d"/>
  <path id="Path_115" data-name="Path 115" d="M82.919,464H81.459a1.459,1.459,0,0,0,0,2.919h1.459a1.459,1.459,0,1,0,0-2.919Zm0,0" transform="translate(-65.407 -379.361)" fill="#1a315d"/>
</svg>
