<?xml version="1.0" encoding="utf-8"?>
<svg id="_001-order" data-name="001-order" xmlns="http://www.w3.org/2000/svg" width="79.269" height="88.244" viewBox="0 0 79.269 88.244">
  <g id="Group_35" data-name="Group 35" transform="translate(5.982 49.354)">
    <g id="Group_34" data-name="Group 34">
      <path id="Path_80" data-name="Path 80" d="M57.5,264a1.5,1.5,0,0,0-1.5,1.5v5.982a1.5,1.5,0,1,0,2.991,0V265.5A1.5,1.5,0,0,0,57.5,264Z" transform="translate(-56.004 -264.002)" fill="#1a315d"/>
    </g>
  </g>
  <g id="Group_37" data-name="Group 37" transform="translate(11.965 52.345)">
    <g id="Group_36" data-name="Group 36">
      <path id="Path_81" data-name="Path 81" d="M89.5,280a1.5,1.5,0,0,0-1.5,1.5v5.982a1.5,1.5,0,0,0,2.991,0V281.5A1.5,1.5,0,0,0,89.5,280Z" transform="translate(-88.004 -280.002)" fill="#1a315d"/>
    </g>
  </g>
  <g id="Group_39" data-name="Group 39" transform="translate(49.356 58.327)">
    <g id="Group_38" data-name="Group 38">
      <path id="Path_82" data-name="Path 82" d="M306.669,314.046a1.5,1.5,0,0,0-1.675,2.477,8.973,8.973,0,1,1-5.016-1.53,1.5,1.5,0,1,0,0-2.991,11.965,11.965,0,1,0,6.691,2.044Z" transform="translate(-288.016 -312.002)" fill="#1a315d"/>
    </g>
  </g>
  <g id="Group_41" data-name="Group 41" transform="translate(0 0)">
    <g id="Group_40" data-name="Group 40" transform="translate(0 0)">
      <path id="Path_83" data-name="Path 83" d="M102.564,65.325A17.939,17.939,0,0,0,92.8,53.99V20.938a1.5,1.5,0,0,0-.734-1.288L59.163.208a1.5,1.5,0,0,0-1.522,0l-32.9,19.442c-.031.018-.054.045-.084.066s-.058.045-.088.069a1.474,1.474,0,0,0-.331.365c0,.01-.018.016-.024.027v.01a1.5,1.5,0,0,0-.169.489,1.325,1.325,0,0,1-.018.132,1.307,1.307,0,0,0-.021.13V59.823a1.5,1.5,0,0,0,.734,1.288l32.9,19.442a1.229,1.229,0,0,0,.121.051,1.179,1.179,0,0,0,.126.054,1.334,1.334,0,0,0,1.029,0,1.2,1.2,0,0,0,.127-.054c.039-.018.081-.028.12-.051l8.93-5.278a17.939,17.939,0,0,0,34.471-9.951ZM58.4,3.232l7.777,4.6L54.648,14.642a1.5,1.5,0,1,0,1.522,2.577l12.95-7.647,7.777,4.6-29.962,17.7-7.777-4.6,12.528-7.4a1.5,1.5,0,1,0-1.522-2.577L36.218,25.534l-7.778-4.6ZM45.44,34.46v9.986L37.714,39.88V29.894ZM67.966,65.669a18.222,18.222,0,0,0-.492,6.5L59.9,76.645V71.788a1.5,1.5,0,1,0-2.991,0v4.858L27,58.971V23.56l7.728,4.566V40.732a1.5,1.5,0,0,0,.734,1.289l10.717,6.334a1.5,1.5,0,0,0,2.257-1.288V36.226l8.475,5.009V65.805a1.5,1.5,0,0,0,2.991,0V41.235L87,25.217a1.5,1.5,0,1,0-1.522-2.575l-27.079,16-8.525-5.039L79.839,15.9l9.969,5.891V52.944A17.875,17.875,0,0,0,67.966,65.669ZM85.322,85.248a14.956,14.956,0,1,1,14.956-14.956A14.956,14.956,0,0,1,85.322,85.248Z" transform="translate(-24.004 0)" fill="#1a315d"/>
    </g>
  </g>
  <g id="Group_43" data-name="Group 43" transform="translate(55.354 65.823)">
    <g id="Group_42" data-name="Group 42">
      <path id="Path_84" data-name="Path 84" d="M331.573,352.52a1.5,1.5,0,0,0-2.078,0l-5.673,5.673-1.186-1.186a1.5,1.5,0,0,0-2.115,2.115l2.243,2.243a1.5,1.5,0,0,0,2.115,0l6.73-6.73A1.5,1.5,0,0,0,331.573,352.52Z" transform="translate(-320.102 -352.1)" fill="#1a315d"/>
    </g>
  </g>
</svg>
